<?xml version="1.0" standalone="no"?>
<!DOCTYPE svg PUBLIC "-//W3C//DTD SVG 1.1//EN" "http://www.w3.org/Graphics/SVG/1.1/DTD/svg11.dtd" >
<svg xmlns="http://www.w3.org/2000/svg" xmlns:xlink="http://www.w3.org/1999/xlink" version="1.1">
<metadata>
Created by FontForge 20160407 at Tue Sep  6 18:10:49 2016
 By Jimmy Wärting
Stem is a geometric sans-serif with semi-closed aperture and large x-height. 12 faces of it, including upright and true italic faces of different weights, are intended primarily for large point sizes. The Stem family will be supplemented with faces for text and caption setting. Design -- Alexandra Korolkova with the assistance of Maria Selezeneva and Isabella Chaeva. Released by ParaType in 2014.
</metadata>
<defs>
<font id="Stem-Bold" horiz-adv-x="622" >
  <font-face 
    font-family="Stem Bold"
    font-weight="700"
    font-stretch="normal"
    units-per-em="1000"
    panose-1="2 11 7 3 2 2 3 2 2 4"
    ascent="778"
    descent="-222"
    x-height="520"
    cap-height="700"
    bbox="-538 -296 1338 994"
    underline-thickness="50"
    underline-position="-100"
    stemh="145"
    stemv="150"
    unicode-range="U+0020-FEFF"
  />
<missing-glyph horiz-adv-x="236" 
 />
    <glyph glyph-name="uniF350.var.accented" unicode="&#xf350;`" 
d="M-5 0l261 559h110l261 -559h-157l-42 85h-235l-43 -85h-155zM310 334l-66 -124h129zM452 771l-132 -164l-100 70l123 176z" />
    <glyph glyph-name="uniF355.var.accented" unicode="&#xf355;`" horiz-adv-x="554" 
d="M53 0v560h453v-140h-303v-69h282v-135h-282v-76h310v-140h-460zM427 771l-132 -164l-100 70l123 176z" />
    <glyph glyph-name="uniF358.var.accented" unicode="&#xf358;`" horiz-adv-x="644" 
d="M175 0h-122v560h150v-311l264 311h124v-560h-150v311zM457 771l-132 -164l-100 70l123 176z" />
    <glyph glyph-name="uniF35E.var.accented" unicode="&#xf35e;`" horiz-adv-x="664" 
d="M24 280c0 161 135 290 308 290c171 0 308 -124 308 -290c0 -165 -137 -290 -308 -290c-170 0 -308 124 -308 290zM179 280c0 -92 74 -145 153 -145c83 0 153 53 153 145s-77 145 -153 145c-79 0 -153 -53 -153 -145zM487 771l-132 -164l-100 70l123 176z" />
    <glyph glyph-name="uniF363.var.accented" unicode="&#xf363;`" horiz-adv-x="630" 
d="M155 24l64 120c4 -5 17 -7 21 -7c19 0 31 7 40 33l-280 390h187l166 -237l120 237h158l-214 -427c-43 -85 -89 -133 -174 -133c-23 0 -56 4 -88 24zM457 771l-132 -164l-100 70l123 176z" />
    <glyph glyph-name="uniF36B.var.accented" unicode="&#xf36b;`" horiz-adv-x="777" 
d="M573 0v560h151v-560h-151zM275 245h-72v-105h70c69 0 103 7 103 53c0 37 -33 52 -101 52zM203 560v-174h99c163 0 229 -79 229 -193c0 -128 -98 -193 -245 -193h-233v560h150zM487 771l-132 -164l-100 70l123 176z" />
    <glyph glyph-name="uniF36D.var.accented" unicode="&#xf36d;`" horiz-adv-x="604" 
d="M208 216v140h215c-20 43 -74 74 -152 74c-49 0 -120 -14 -167 -68l-98 97c60 76 164 111 270 111c187 0 304 -114 304 -288c0 -166 -113 -292 -311 -292c-85 0 -199 25 -273 130l99 85c45 -60 117 -75 177 -75c81 0 140 34 153 86h-217zM417 771l-132 -164l-100 70
l123 176z" />
    <glyph glyph-name="uniF36E.var.accented" unicode="&#xf36e;`" horiz-adv-x="878" 
d="M53 0v560h150v-212h57c27 128 143 222 294 222c185 0 300 -124 300 -290c0 -165 -129 -290 -300 -290c-153 0 -273 80 -295 231h-56v-221h-150zM405 280c0 -92 66 -150 149 -150c88 0 145 58 145 150s-59 150 -145 150c-84 0 -149 -58 -149 -150zM627 771l-132 -164
l-100 70l123 176z" />
    <glyph glyph-name="uniF36F.var.accented" unicode="&#xf36f;`" horiz-adv-x="601" 
d="M398 0v174h-81l-143 -174h-176l169 202c-81 29 -126 82 -126 165c0 109 86 193 254 193h253v-560h-150zM286 314h112v106h-110c-66 0 -92 -15 -92 -52c0 -32 37 -57 90 -54zM447 771l-132 -164l-100 70l123 176z" />
    <glyph glyph-name="uniF371.var.accented" unicode="&#xf371;`" horiz-adv-x="564" 
d="M55 700c0 41 37 70 78 70c38 0 79 -29 79 -70c0 -45 -41 -72 -79 -72c-41 0 -78 27 -78 72zM359 700c0 41 38 70 81 70c41 0 79 -29 79 -70c0 -45 -36 -72 -79 -72s-81 27 -81 72zM386 801l-96 -174l-70 22l37 184zM53 0v560h463v-140h-313v-69h292v-135h-292v-76h320
v-140h-470z" />
    <glyph glyph-name="afii10017.var.accented" unicode="&#x410;`" horiz-adv-x="721" 
d="M-4 0l307 700h115l307 -700h-162l-57 130h-293l-57 -130h-160zM359 470l-92 -209h182zM557 846l-240 -113l-57 99l228 142z" />
    <glyph glyph-name="afii10022.var.accented" unicode="&#x415;`" horiz-adv-x="649" 
d="M65 0v700h535v-145h-380v-130h355v-140h-355v-140h389v-145h-544zM537 846l-240 -113l-57 99l228 142z" />
    <glyph glyph-name="afii10026.var.accented" unicode="&#x418;`" horiz-adv-x="753" 
d="M192 0h-127v700h155v-429l339 429h129v-700h-155v427zM577 846l-240 -113l-57 99l228 142z" />
    <glyph glyph-name="afii10032.var.accented" unicode="&#x41e;`" horiz-adv-x="781" 
d="M30 350c0 202 158 362 361 362c200 0 360 -154 360 -362c0 -206 -160 -362 -360 -362s-361 154 -361 362zM191 350c0 -130 94 -212 200 -212c110 0 199 82 199 212s-97 212 -199 212c-106 0 -200 -82 -200 -212zM572 846l-240 -113l-57 99l228 142z" />
    <glyph glyph-name="afii10037.var.accented" unicode="&#x423;`" horiz-adv-x="728" 
d="M566 700h162l-254 -536c-50 -105 -102 -164 -200 -164c-45 0 -99 18 -141 80l100 91c11 -17 25 -26 43 -26c16 0 34 8 50 42l-326 513h192l213 -348zM577 846l-240 -113l-57 99l228 142z" />
    <glyph glyph-name="afii10045.var.accented" unicode="&#x42b;`" horiz-adv-x="900" 
d="M680 0v700h155v-700h-155zM321 323h-101v-178h99c92 0 138 20 138 91c0 60 -45 87 -136 87zM220 700v-232h104c197 0 294 -93 294 -232c0 -156 -113 -236 -303 -236h-250v700h155zM637 846l-240 -113l-57 99l228 142z" />
    <glyph glyph-name="afii10047.var.accented" unicode="&#x42d;`" horiz-adv-x="707" 
d="M207 285v145h308c-22 81 -94 133 -201 133c-62 0 -148 -21 -203 -89l-102 100c70 93 191 134 311 134c220 0 357 -138 357 -355c0 -208 -133 -361 -365 -361c-100 0 -229 30 -312 150l103 88c52 -72 139 -93 213 -93c109 0 186 58 201 148h-310zM507 846l-240 -113
l-57 99l228 142z" />
    <glyph glyph-name="afii10048.var.accented" unicode="&#x42e;`" horiz-adv-x="1014" 
d="M65 0v700h155v-278h71c29 166 165 286 344 286c213 0 349 -150 349 -358c0 -206 -149 -358 -349 -358c-183 0 -321 108 -345 298h-70v-290h-155zM443 350c0 -130 83 -213 192 -213c115 0 188 83 188 213s-76 213 -188 213c-110 0 -192 -83 -192 -213zM777 846l-240 -113
l-57 99l228 142z" />
    <glyph glyph-name="afii10049.var.accented" unicode="&#x42f;`" horiz-adv-x="701" 
d="M481 0v231h-119l-179 -231h-183l206 260c-100 31 -156 101 -156 204c0 133 97 236 293 236h293v-700h-155zM328 376h153v179h-147c-89 0 -123 -32 -123 -90c0 -49 46 -89 117 -89zM567 846l-240 -113l-57 99l228 142z" />
    <glyph glyph-name="afii10023.var.accented" unicode="&#x401;`" horiz-adv-x="649" 
d="M95 831c0 44 37 76 85 76c41 0 83 -32 83 -76c0 -46 -42 -77 -83 -77c-48 0 -85 31 -85 77zM414 831c0 44 40 76 85 76c41 0 82 -30 82 -76s-41 -77 -82 -77c-45 0 -85 31 -85 77zM444 935l-84 -156l-84 16l25 176zM65 0v700h535v-145h-380v-130h355v-140h-355v-140h389
v-145h-544z" />
    <glyph glyph-name="afii10065.var.accented" unicode="&#x430;`" horiz-adv-x="532" 
d="M117 346l-69 105c49 51 134 80 229 80c134 0 213 -79 213 -216v-315h-145v47c-22 -26 -77 -53 -140 -53c-115 0 -190 67 -190 170c0 120 112 171 236 171c36 0 72 -5 94 -13c1 53 -28 74 -84 74s-90 -12 -144 -50zM235 119c49 0 93 26 110 59v24c-16 6 -49 13 -79 13
c-58 0 -101 -13 -101 -51c0 -28 26 -45 70 -45zM437 751l-132 -164l-100 70l123 176z" />
    <glyph glyph-name="afii10070.var.accented" unicode="&#x435;`" horiz-adv-x="558" 
d="M438 184l87 -88c-56 -70 -137 -104 -224 -104c-168 0 -281 105 -281 269c0 152 94 270 270 270c142 0 248 -94 248 -239c0 -16 -2 -45 -8 -84h-358c14 -57 67 -81 131 -81c49 0 104 19 135 57zM285 401c-55 0 -92 -22 -110 -68h213c-13 49 -50 68 -103 68zM456 751
l-132 -164l-100 70l123 176z" />
    <glyph glyph-name="afii10074.var.accented" unicode="&#x438;`" horiz-adv-x="591" 
d="M168 0h-123v520h145v-283l233 283h123v-520h-145v283zM472 751l-132 -164l-100 70l123 176z" />
    <glyph glyph-name="afii10080.var.accented" unicode="&#x43e;`" horiz-adv-x="604" 
d="M20 261c0 157 115 270 281 270s283 -113 283 -270c0 -156 -117 -269 -283 -269c-161 0 -281 113 -281 269zM170 261c0 -76 53 -134 131 -134c79 0 133 50 133 134c0 86 -60 135 -133 135s-131 -49 -131 -135zM472 751l-132 -164l-100 70l123 176z" />
    <glyph glyph-name="afii10085.var.accented" unicode="&#x443;`" horiz-adv-x="557" 
d="M572 520l-293 -720h-157l107 244l-249 476h169l151 -302l117 302h155zM447 751l-132 -164l-100 70l123 176z" />
    <glyph glyph-name="afii10093.var.accented" unicode="&#x44b;`" horiz-adv-x="703" 
d="M45 0v520h145v-138h66c173 0 228 -89 228 -190c0 -98 -62 -192 -235 -192h-204zM248 247h-58v-112h57c64 0 87 18 87 56c0 39 -24 56 -86 56zM513 0v520h145v-520h-145zM497 751l-132 -164l-100 70l123 176z" />
    <glyph glyph-name="afii10095.var.accented" unicode="&#x44d;`" horiz-adv-x="552" 
d="M183 203v125h195c-19 54 -65 68 -130 68c-39 0 -100 -15 -137 -68l-104 78c64 88 150 125 258 125c161 0 267 -104 267 -270c0 -153 -100 -269 -278 -269c-94 0 -205 31 -249 122l105 75c37 -51 89 -62 129 -62c78 0 124 26 142 76h-198zM413 751l-132 -164l-100 70
l123 176z" />
    <glyph glyph-name="afii10096.var.accented" unicode="&#x44e;`" horiz-adv-x="803" 
d="M45 0v520h145v-190h65c28 120 120 201 256 201c161 0 272 -113 272 -270c0 -156 -112 -269 -272 -269c-140 0 -234 84 -259 210h-62v-202h-145zM397 261c0 -85 48 -134 115 -134c72 0 121 49 121 134s-48 135 -121 135c-63 0 -115 -50 -115 -135zM602 751l-132 -164
l-100 70l123 176z" />
    <glyph glyph-name="afii10097.var.accented" unicode="&#x44f;`" horiz-adv-x="533" 
d="M268 520h220v-520h-145v157h-67l-107 -157h-167l133 182c-70 21 -105 81 -105 161c0 95 64 177 238 177zM180 337c0 -27 23 -45 74 -45h89v93h-84c-57 0 -79 -18 -79 -48zM456 751l-132 -164l-100 70l123 176z" />
    <glyph glyph-name="afii10071.var.accented" unicode="&#x451;`" horiz-adv-x="558" 
d="M60 660c0 41 37 70 78 70c38 0 79 -29 79 -70c0 -45 -41 -72 -79 -72c-41 0 -78 27 -78 72zM364 660c0 41 38 70 81 70c41 0 79 -29 79 -70c0 -45 -36 -72 -79 -72s-81 27 -81 72zM391 761l-96 -174l-70 22l37 184zM428 184l87 -88c-56 -70 -127 -104 -214 -104
c-168 0 -281 105 -281 269c0 152 94 270 270 270c142 0 248 -94 248 -239c0 -16 -2 -45 -8 -84h-358c14 -57 67 -81 131 -81c49 0 94 19 125 57zM285 401c-55 0 -92 -22 -110 -68h213c-13 49 -50 68 -103 68z" />
    <glyph glyph-name="fi" unicode="fi" horiz-adv-x="586" 
d="M5 385v135h72v10c0 151 88 208 189 208c24 0 58 -5 82 -17l-48 -128c-9 8 -16 10 -25 10c-37 0 -54 -26 -54 -73v-10h111v-135h-110v-385h-145v385h-72zM387 0v520h145v-520h-145zM378 658c0 41 34 72 82 72c47 0 81 -31 81 -72c0 -43 -34 -74 -81 -74
c-51 0 -82 31 -82 74z" />
    <glyph glyph-name="fl" unicode="fl" horiz-adv-x="516" 
d="M326 0v584c-9 9 -22 19 -51 19c-37 0 -54 -26 -54 -73v-10h61v-135h-60v-385h-145v385h-72v135h72v10c0 151 88 208 189 208c41 0 80 -11 110 -32l95 32v-738h-145z" />
    <glyph glyph-name=".notdef" horiz-adv-x="236" 
 />
    <glyph glyph-name=".notdef" horiz-adv-x="236" 
 />
    <glyph glyph-name="space" unicode=" " horiz-adv-x="236" 
 />
    <glyph glyph-name="exclam" unicode="!" horiz-adv-x="309" 
d="M80 197v503h151v-503h-151zM70 75c0 36 34 75 86 75c47 0 83 -39 83 -75c0 -40 -36 -77 -83 -77c-52 0 -86 37 -86 77z" />
    <glyph glyph-name="quotedbl" unicode="&#x22;" horiz-adv-x="460" 
d="M251 432v268h149v-268h-149zM60 432v268h149v-268h-149z" />
    <glyph glyph-name="numbersign" unicode="#" horiz-adv-x="717" 
d="M274 21l60 161h-78l-75 -203l-133 42l60 161h-68v126h115c11 29 16 40 32 84h-147v126h193c24 63 56 148 76 203l132 -42l-60 -161h78l74 203l133 -41l-61 -162h72v-126h-118c-10 -29 -15 -40 -32 -84h150v-126h-196l-74 -203zM334 392l-32 -84h79l30 84h-77z" />
    <glyph glyph-name="dollar" unicode="$" horiz-adv-x="605" 
d="M427 194c0 122 -390 55 -390 309c0 94 75 181 199 206v70h149v-70c83 -17 150 -60 197 -122l-104 -100c-40 44 -98 84 -176 84c-72 0 -105 -26 -105 -66c0 -107 390 -46 390 -299c0 -109 -84 -194 -202 -216v-78h-149v80c-120 21 -199 88 -238 163l113 94
c46 -74 121 -120 207 -120c78 0 109 30 109 65z" />
    <glyph glyph-name="percent" unicode="%" horiz-adv-x="937" 
d="M157 42l512 693l111 -81l-506 -680zM30 517c0 110 88 186 202 186c115 0 202 -76 202 -186c0 -108 -87 -185 -202 -185c-114 0 -202 77 -202 185zM176 517c0 -38 27 -62 56 -62c31 0 56 24 56 62s-26 62 -56 62s-56 -24 -56 -62zM503 182c0 110 87 185 202 185
c114 0 202 -75 202 -185c0 -109 -88 -186 -202 -186c-115 0 -202 77 -202 186zM649 182c0 -38 27 -62 56 -62c30 0 56 24 56 62s-26 62 -56 62s-56 -24 -56 -62z" />
    <glyph glyph-name="ampersand" unicode="&#x26;" horiz-adv-x="783" 
d="M794 0h-193c-39 28 -54 44 -78 66c-46 -34 -106 -75 -217 -75c-175 0 -279 83 -279 199c0 117 89 180 191 238c-40 51 -59 94 -59 141c0 71 57 140 184 140c135 0 189 -56 189 -138c0 -60 -46 -126 -113 -170c20 -33 53 -72 103 -125c41 49 69 125 69 224h149
c0 -111 -38 -261 -116 -344c47 -52 110 -111 170 -156zM312 131c48 0 88 21 105 41c-48 58 -89 99 -119 138c-87 -52 -106 -72 -106 -104c0 -30 30 -75 120 -75zM319 549c0 -15 14 -35 25 -46c19 12 28 29 28 46s-7 30 -26 30c-22 0 -27 -10 -27 -30z" />
    <glyph glyph-name="quotesingle" unicode="'" horiz-adv-x="269" 
d="M60 432v268h149v-268h-149z" />
    <glyph glyph-name="parenleft" unicode="(" horiz-adv-x="371" 
d="M361 -113l-107 -87c-174 150 -224 329 -224 467c0 137 46 310 220 467l109 -87c-133 -124 -181 -261 -181 -380c0 -142 72 -276 183 -380z" />
    <glyph glyph-name="parenright" unicode=")" horiz-adv-x="369" 
d="M119 -199l-109 87c124 108 181 260 181 379s-48 256 -180 380l108 87c173 -157 220 -330 220 -467c0 -138 -48 -317 -220 -466z" />
    <glyph glyph-name="asterisk" unicode="*" horiz-adv-x="499" 
d="M324 700l-4 -109l108 39l41 -135l-109 -30l71 -89l-121 -87l-60 87l-60 -89l-122 87l71 91l-109 31l41 135l111 -39l-3 108h145z" />
    <glyph glyph-name="plus" unicode="+" horiz-adv-x="605" 
d="M60 294v130h174v173h135v-173h176v-130h-176v-175h-135v175h-174z" />
    <glyph glyph-name="comma" unicode="," horiz-adv-x="264" 
d="M96 -5c-33 12 -61 45 -61 85c0 53 35 83 96 83c60 0 93 -43 93 -104c0 -118 -85 -193 -164 -208l-40 87c28 6 69 22 76 57z" />
    <glyph glyph-name="hyphen" unicode="-" horiz-adv-x="424" 
d="M60 217v130h304v-130h-304z" />
    <glyph glyph-name="period" unicode="." horiz-adv-x="286" 
d="M50 81c0 41 37 85 94 85c52 0 92 -44 92 -85c0 -45 -40 -87 -92 -87c-57 0 -94 42 -94 87z" />
    <glyph glyph-name="slash" unicode="/" horiz-adv-x="377" 
d="M-40 -150l324 871l133 -42l-326 -879z" />
    <glyph glyph-name="zero" unicode="0" horiz-adv-x="679" 
d="M30 350c0 206 105 357 309 357c201 0 310 -151 310 -357c0 -207 -107 -357 -308 -357c-206 0 -311 150 -311 357zM190 350c0 -138 60 -207 151 -207c100 0 148 69 148 207c0 139 -52 207 -150 207c-91 0 -149 -70 -149 -207z" />
    <glyph glyph-name="one" unicode="1" horiz-adv-x="398" 
d="M0 585l230 115h98v-700h-150v516l-125 -57z" />
    <glyph glyph-name="two" unicode="2" horiz-adv-x="594" 
d="M155 445l-135 51c35 141 161 211 288 211c171 0 256 -101 256 -232c0 -134 -86 -218 -214 -300l-47 -30h268v-145h-541v113l83 58c162 113 291 192 291 290c0 61 -35 96 -102 96c-87 0 -125 -56 -147 -112z" />
    <glyph glyph-name="three" unicode="3" horiz-adv-x="621" 
d="M152 472l-124 58c40 107 129 179 294 179c145 0 246 -69 246 -187c0 -67 -32 -115 -91 -143c67 -24 114 -73 114 -162c0 -134 -102 -225 -267 -225c-143 0 -253 40 -308 185l136 61c19 -57 74 -101 156 -101c75 0 123 31 123 80s-46 71 -113 71h-102v140h82
c70 0 110 31 110 70c0 40 -29 66 -100 66c-86 0 -132 -40 -156 -92z" />
    <glyph glyph-name="four" unicode="4" horiz-adv-x="643" 
d="M376 0v122h-371v100l397 478h124v-443h107v-135h-107v-122h-150zM205 257h171v195z" />
    <glyph glyph-name="five" unicode="5" horiz-adv-x="629" 
d="M64 346l37 354h468v-145h-336l-13 -108c24 12 76 20 143 20c159 0 246 -95 246 -234c0 -146 -107 -241 -283 -241c-137 0 -239 42 -306 179l140 62c23 -54 88 -91 162 -91c81 0 127 35 127 88c0 60 -44 97 -129 97c-72 0 -106 -15 -151 -43z" />
    <glyph glyph-name="six" unicode="6" horiz-adv-x="648" 
d="M30 331c0 252 139 378 329 378c124 0 190 -51 238 -103l-86 -110c-38 33 -82 68 -152 68c-109 0 -174 -70 -174 -171c32 45 96 88 202 88c150 0 241 -94 241 -229c0 -154 -118 -261 -273 -261c-192 0 -325 120 -325 340zM209 250c1 -56 57 -114 133 -114
c74 0 126 44 126 107c0 60 -46 98 -117 98c-79 0 -130 -53 -142 -91z" />
    <glyph glyph-name="seven" unicode="7" horiz-adv-x="570" 
d="M10 555v145h550v-97l-303 -603h-161l280 555h-366z" />
    <glyph glyph-name="eight" unicode="8" horiz-adv-x="668" 
d="M321 424h28c60 0 108 25 108 74c0 47 -38 70 -124 70c-78 0 -122 -23 -122 -69c0 -42 39 -75 110 -75zM347 294h-23c-93 0 -134 -37 -134 -80c0 -52 50 -82 144 -82c93 0 144 28 144 79s-41 83 -131 83zM335 -8c-194 0 -305 79 -305 210c0 67 41 136 101 163
c-46 22 -80 87 -80 140c0 122 106 203 283 203c186 0 283 -81 283 -203c0 -53 -20 -106 -79 -136c70 -25 100 -94 100 -163c0 -136 -120 -214 -303 -214z" />
    <glyph glyph-name="nine" unicode="9" horiz-adv-x="668" 
d="M638 369c0 -252 -138 -378 -329 -378c-124 0 -220 51 -268 103l86 110c38 -33 112 -68 182 -68c122 0 175 79 174 151c-30 -36 -86 -68 -179 -68c-181 0 -284 94 -284 236c0 147 121 254 294 254c194 0 324 -120 324 -340zM465 430c-2 70 -52 134 -141 134
c-88 0 -144 -44 -144 -107c0 -60 58 -98 132 -98c79 0 141 33 153 71z" />
    <glyph glyph-name="colon" unicode=":" horiz-adv-x="289" 
d="M60 445c0 36 34 74 86 74c47 0 83 -38 83 -74c0 -41 -36 -77 -83 -77c-52 0 -86 36 -86 77zM60 75c0 36 34 75 86 75c47 0 83 -39 83 -75c0 -40 -36 -77 -83 -77c-52 0 -86 37 -86 77z" />
    <glyph glyph-name="semicolon" unicode=";" horiz-adv-x="288" 
d="M56 445c0 36 34 74 86 74c47 0 83 -38 83 -74c0 -41 -36 -77 -83 -77c-52 0 -86 36 -86 77zM113 -5c-29 10 -55 43 -55 76c0 48 32 75 86 75s84 -39 84 -93c0 -107 -75 -177 -154 -192l-34 85c27 3 67 17 73 49z" />
    <glyph glyph-name="less" unicode="&#x3c;" horiz-adv-x="540" 
d="M480 35l-470 296v61l470 292v-156l-269 -168l269 -168v-157z" />
    <glyph glyph-name="equal" unicode="=" horiz-adv-x="575" 
d="M60 391v126h455v-126h-455zM60 200v126h455v-126h-455z" />
    <glyph glyph-name="greater" unicode="&#x3e;" horiz-adv-x="540" 
d="M530 331l-470 -296v157l271 168l-271 168v156l470 -292v-61z" />
    <glyph glyph-name="question" unicode="?" horiz-adv-x="625" 
d="M435 490c0 36 -41 68 -109 68c-85 0 -129 -32 -155 -93l-141 49c42 135 182 194 302 194c171 0 263 -88 263 -193c0 -225 -237 -185 -237 -283c0 -17 3 -23 4 -35l-141 -2c-5 14 -9 39 -9 52c0 164 223 140 223 243zM202 75c0 36 34 75 86 75c47 0 83 -39 83 -75
c0 -40 -36 -77 -83 -77c-52 0 -86 37 -86 77z" />
    <glyph glyph-name="at" unicode="@" horiz-adv-x="948" 
d="M554 0v24c-21 -16 -57 -32 -106 -32c-129 0 -227 98 -227 243s115 254 270 254c70 0 146 -18 208 -66v-287c43 16 69 52 69 151c0 167 -121 249 -286 249c-169 0 -302 -119 -302 -295c0 -168 121 -296 302 -296c51 0 96 6 144 23l10 -131c-41 -13 -102 -22 -154 -22
c-278 0 -442 187 -442 426c0 253 185 425 442 425c265 0 426 -149 426 -377c0 -139 -84 -289 -252 -289h-102zM475 122c30 0 63 21 79 51v169c-14 11 -40 17 -64 17c-68 0 -119 -52 -119 -129c0 -65 42 -108 104 -108z" />
    <glyph glyph-name="A" unicode="A" horiz-adv-x="721" 
d="M-4 0l307 700h115l307 -700h-162l-57 130h-293l-57 -130h-160zM359 470l-92 -209h182z" />
    <glyph glyph-name="B" unicode="B" horiz-adv-x="678" 
d="M65 0v700h313c183 0 242 -74 242 -179c0 -69 -29 -116 -68 -150c57 -27 91 -76 91 -163c0 -147 -115 -208 -273 -208h-305zM362 287h-142v-142h134c93 0 127 21 127 72c0 49 -31 70 -119 70zM352 555h-132v-128h145c62 0 94 23 94 59c0 46 -22 69 -107 69z" />
    <glyph glyph-name="C" unicode="C" horiz-adv-x="696" 
d="M594 231l92 -99c-63 -92 -174 -144 -298 -144c-218 0 -358 145 -358 362c0 200 145 362 362 362c128 0 233 -54 283 -133l-105 -96c-42 52 -110 79 -167 79c-125 0 -212 -82 -212 -212c0 -126 89 -212 210 -212c78 0 145 33 193 93z" />
    <glyph glyph-name="D" unicode="D" horiz-adv-x="720" 
d="M65 0v700h222c300 0 403 -158 403 -341c0 -200 -124 -359 -418 -359h-207zM285 555h-65v-410h65c175 0 245 84 245 214c0 118 -63 196 -245 196z" />
    <glyph glyph-name="E" unicode="E" horiz-adv-x="649" 
d="M65 0v700h535v-145h-380v-130h355v-140h-355v-140h389v-145h-544z" />
    <glyph glyph-name="F" unicode="F" horiz-adv-x="620" 
d="M65 0v700h530v-145h-375v-153h350v-145h-350v-257h-155z" />
    <glyph glyph-name="G" unicode="G" horiz-adv-x="731" 
d="M365 252v140h326v-283c-68 -75 -170 -121 -282 -121c-220 0 -379 145 -379 362c0 200 146 362 362 362c120 0 234 -50 283 -126l-107 -96c-40 45 -98 72 -170 72c-127 0 -207 -80 -207 -212c0 -137 92 -212 219 -212c46 0 95 13 132 40v74h-177z" />
    <glyph glyph-name="H" unicode="H" horiz-adv-x="751" 
d="M531 0v280h-311v-280h-155v700h155v-275h311v275h155v-700h-155z" />
    <glyph glyph-name="I" unicode="I" horiz-adv-x="295" 
d="M70 0v700h155v-700h-155z" />
    <glyph glyph-name="J" unicode="J" horiz-adv-x="486" 
d="M426 700v-481c0 -150 -84 -231 -212 -231c-122 0 -190 64 -224 134l113 87c24 -49 56 -76 97 -76c52 0 71 39 71 116v451h155z" />
    <glyph glyph-name="K" unicode="K" horiz-adv-x="701" 
d="M65 0v700h155v-273l269 273h202l-304 -310l324 -390h-204l-237 286l-50 -51v-235h-155z" />
    <glyph glyph-name="L" unicode="L" horiz-adv-x="608" 
d="M65 0v700h155v-555h378v-145h-533z" />
    <glyph glyph-name="M" unicode="M" horiz-adv-x="851" 
d="M65 0v700h144l224 -335l213 335h140v-700h-155v420l-182 -279h-41l-188 282v-423h-155z" />
    <glyph glyph-name="N" unicode="N" horiz-adv-x="740" 
d="M675 0h-120l-339 415v-415h-151v700h119l340 -416v416h151v-700z" />
    <glyph glyph-name="O" unicode="O" horiz-adv-x="781" 
d="M30 350c0 202 158 362 361 362c200 0 360 -154 360 -362c0 -206 -160 -362 -360 -362s-361 154 -361 362zM191 350c0 -130 94 -212 200 -212c110 0 199 82 199 212s-97 212 -199 212c-106 0 -200 -82 -200 -212z" />
    <glyph glyph-name="P" unicode="P" horiz-adv-x="677" 
d="M220 0h-155v700h290c238 0 297 -126 297 -241c0 -118 -76 -239 -297 -239h-135v-220zM359 555h-139v-190h133c97 0 138 36 138 95c0 55 -34 95 -132 95z" />
    <glyph glyph-name="Q" unicode="Q" horiz-adv-x="781" 
d="M30 350c0 202 153 362 361 362c213 0 360 -154 360 -362c0 -92 -29 -175 -92 -242l60 -74l-108 -87l-64 78c-47 -22 -99 -37 -156 -37c-213 0 -361 143 -361 362zM191 350c0 -130 85 -212 200 -212c36 0 50 5 70 13l-56 64l98 83l56 -68c21 30 31 72 31 120
c0 130 -85 212 -199 212c-115 0 -200 -82 -200 -212z" />
    <glyph glyph-name="R" unicode="R" horiz-adv-x="689" 
d="M220 0h-155v700h283c223 0 283 -112 283 -228c0 -90 -53 -172 -137 -205l195 -267h-187l-171 239h-111v-239zM345 555h-125v-171h131c76 0 119 32 119 88c0 50 -26 83 -125 83z" />
    <glyph glyph-name="S" unicode="S" horiz-adv-x="619" 
d="M429 194c0 122 -390 55 -390 309c0 111 105 213 271 213c119 0 214 -49 274 -129l-104 -100c-40 44 -98 84 -176 84c-72 0 -105 -26 -105 -66c0 -107 390 -46 390 -299c0 -127 -114 -222 -265 -222c-169 0 -276 80 -324 171l113 94c46 -74 121 -120 207 -120
c78 0 109 30 109 65z" />
    <glyph glyph-name="T" unicode="T" horiz-adv-x="604" 
d="M0 555v145h604v-145h-225v-555h-155v555h-224z" />
    <glyph glyph-name="U" unicode="U" horiz-adv-x="720" 
d="M665 700v-400c0 -219 -149 -307 -297 -307c-167 0 -313 105 -313 313v394h155v-376c0 -110 54 -186 158 -186c101 0 142 71 142 182v380h155z" />
    <glyph glyph-name="V" unicode="V" horiz-adv-x="730" 
d="M740 700l-313 -700h-108l-329 700h171l213 -464l199 464h167z" />
    <glyph glyph-name="W" unicode="W" horiz-adv-x="971" 
d="M971 700l-207 -700h-126l-149 424l-145 -424h-126l-218 700h160l128 -422l140 422h124l143 -419l122 419h154z" />
    <glyph glyph-name="X" unicode="X" horiz-adv-x="707" 
d="M699 700l-253 -345l261 -355h-189l-164 229l-165 -229h-189l262 355l-251 345h187l157 -217l156 217h188z" />
    <glyph glyph-name="Y" unicode="Y" horiz-adv-x="700" 
d="M710 700l-284 -449v-251h-155v251l-281 449h185l176 -280l180 280h179z" />
    <glyph glyph-name="Z" unicode="Z" horiz-adv-x="635" 
d="M27 555v145h579v-103l-373 -452h382v-145h-605v103l371 452h-354z" />
    <glyph glyph-name="bracketleft" unicode="[" horiz-adv-x="374" 
d="M60 -175v884h304v-145h-149v-594h149v-145h-304z" />
    <glyph glyph-name="backslash" unicode="\" horiz-adv-x="377" 
d="M92 721l325 -871l-132 -50l-325 879z" />
    <glyph glyph-name="bracketright" unicode="]" horiz-adv-x="374" 
d="M314 709v-884h-304v145h149v594h-149v145h304z" />
    <glyph glyph-name="asciicircum" unicode="^" horiz-adv-x="533" 
d="M10 394l212 313h90l211 -313h-169l-87 134l-89 -134h-168z" />
    <glyph glyph-name="underscore" unicode="_" horiz-adv-x="355" 
d="M0 -175v130h355v-130h-355z" />
    <glyph glyph-name="grave" unicode="`" horiz-adv-x="364" 
d="M278 587l-147 160l114 86l119 -177z" />
    <glyph glyph-name="a" unicode="a" horiz-adv-x="532" 
d="M117 346l-69 105c49 51 134 80 229 80c134 0 213 -79 213 -216v-315h-145v47c-22 -26 -77 -53 -140 -53c-115 0 -190 67 -190 170c0 120 112 171 236 171c36 0 72 -5 94 -13c1 53 -28 74 -84 74s-90 -12 -144 -50zM235 119c49 0 93 26 110 59v24c-16 6 -49 13 -79 13
c-58 0 -101 -13 -101 -51c0 -28 26 -45 70 -45z" />
    <glyph glyph-name="b" unicode="b" horiz-adv-x="593" 
d="M45 0v730h145v-245c24 31 88 46 142 46c146 0 241 -98 241 -263c0 -171 -104 -276 -257 -276c-53 0 -91 9 -126 29v-21h-145zM302 396c-53 0 -93 -19 -112 -68v-137c24 -42 60 -64 112 -64c73 0 121 44 121 136c0 89 -46 133 -121 133z" />
    <glyph glyph-name="c" unicode="c" horiz-adv-x="540" 
d="M431 195l106 -63c-47 -92 -137 -140 -235 -140c-168 0 -282 105 -282 269c0 154 112 270 275 270c123 0 205 -55 238 -130l-108 -70c-33 45 -68 65 -121 65c-79 0 -134 -53 -134 -135c0 -72 57 -134 148 -134c54 0 88 27 113 68z" />
    <glyph glyph-name="d" unicode="d" horiz-adv-x="586" 
d="M396 0v41c-18 -20 -63 -49 -131 -49c-142 0 -245 93 -245 267c0 161 116 272 254 272c73 0 105 -14 122 -25v224h145v-730h-145zM296 127c38 0 83 24 100 61v168c-17 21 -43 40 -91 40c-74 0 -135 -47 -135 -135c0 -84 53 -134 126 -134z" />
    <glyph glyph-name="e" unicode="e" horiz-adv-x="558" 
d="M438 184l87 -88c-56 -70 -137 -104 -224 -104c-168 0 -281 105 -281 269c0 152 94 270 270 270c142 0 248 -94 248 -239c0 -16 -2 -45 -8 -84h-358c14 -57 67 -81 131 -81c49 0 104 19 135 57zM285 401c-55 0 -92 -22 -110 -68h213c-13 49 -50 68 -103 68z" />
    <glyph glyph-name="f" unicode="f" horiz-adv-x="348" 
d="M5 385v135h72v10c0 151 88 208 189 208c58 0 111 -21 141 -61l-80 -94c-9 10 -22 20 -52 20c-37 0 -54 -26 -54 -73v-10h131v-135h-130v-385h-145v385h-72z" />
    <glyph glyph-name="g" unicode="g" horiz-adv-x="579" 
d="M534 520v-475c0 -173 -93 -254 -247 -254c-122 0 -208 53 -242 143l127 53c17 -32 51 -61 101 -61c84 0 116 35 116 90v23c-17 -25 -53 -47 -117 -47c-146 0 -252 92 -252 269c0 169 123 266 252 266c64 0 93 -11 117 -28v21h145zM297 127c46 0 80 27 92 58v173
c-17 21 -45 34 -93 34c-69 0 -126 -44 -126 -133c0 -86 48 -132 127 -132z" />
    <glyph glyph-name="h" unicode="h" horiz-adv-x="574" 
d="M45 0v730h145v-243c28 25 73 43 138 43c139 0 206 -73 206 -239v-291h-145v284c0 83 -30 111 -99 111c-37 0 -75 -20 -100 -62v-333h-145z" />
    <glyph glyph-name="i" unicode="i" horiz-adv-x="253" 
d="M54 0v520h145v-520h-145zM45 658c0 41 34 72 82 72c47 0 81 -31 81 -72c0 -43 -34 -74 -81 -74c-51 0 -82 31 -82 74z" />
    <glyph glyph-name="j" unicode="j" horiz-adv-x="252" 
d="M200 520v-518c0 -132 -58 -211 -183 -211c-82 0 -150 29 -187 120l127 49c10 -20 23 -34 47 -34c33 0 51 22 51 79v515h145zM45 659c0 41 32 72 83 72c46 0 79 -31 79 -72c0 -43 -30 -74 -79 -74c-51 0 -83 31 -83 74z" />
    <glyph glyph-name="k" unicode="k" horiz-adv-x="532" 
d="M45 0v730h145v-386l164 176h186l-223 -227l230 -293h-184l-155 196l-18 -12v-184h-145z" />
    <glyph glyph-name="l" unicode="l" horiz-adv-x="235" 
d="M45 0v730h145v-730h-145z" />
    <glyph glyph-name="m" unicode="m" horiz-adv-x="826" 
d="M786 346v-346h-145v305c0 50 -13 90 -67 90c-34 0 -67 -20 -86 -63v-332h-145v329c0 39 -22 66 -61 66c-46 0 -78 -28 -92 -64v-331h-145v520h145v-35c28 31 76 45 125 45c59 0 98 -18 134 -56c39 40 76 56 136 56c129 0 201 -64 201 -184z" />
    <glyph glyph-name="n" unicode="n" horiz-adv-x="577" 
d="M45 0v520h145v-37c23 28 72 47 142 47c133 0 205 -71 205 -238v-292h-145v283c0 84 -33 112 -102 112c-47 0 -82 -25 -100 -69v-326h-145z" />
    <glyph glyph-name="o" unicode="o" horiz-adv-x="604" 
d="M20 261c0 157 115 270 281 270s283 -113 283 -270c0 -156 -117 -269 -283 -269c-161 0 -281 113 -281 269zM170 261c0 -76 53 -134 131 -134c79 0 133 50 133 134c0 86 -60 135 -133 135s-131 -49 -131 -135z" />
    <glyph glyph-name="p" unicode="p" horiz-adv-x="582" 
d="M45 -200v720h145v-27c27 25 76 38 116 38c158 0 256 -109 256 -263c0 -158 -102 -276 -260 -276c-50 0 -96 8 -112 26v-218h-145zM290 396c-48 0 -81 -24 -100 -59v-166c16 -24 51 -44 92 -44c81 0 130 51 130 130c0 92 -46 139 -122 139z" />
    <glyph glyph-name="q" unicode="q" horiz-adv-x="579" 
d="M389 -200v225c-19 -17 -57 -33 -116 -33c-147 0 -253 105 -253 269c0 163 123 266 274 266c40 0 67 -3 95 -20v13h145v-720h-145zM297 127c35 0 75 18 92 48v185c-22 23 -53 32 -92 32c-70 0 -127 -50 -127 -133c0 -86 57 -132 127 -132z" />
    <glyph glyph-name="r" unicode="r" horiz-adv-x="362" 
d="M45 0v520h145v-21c11 15 46 31 80 31c55 0 79 -16 102 -45l-74 -116c-7 13 -28 21 -47 21c-23 0 -49 -10 -61 -54v-336h-145z" />
    <glyph glyph-name="s" unicode="s" horiz-adv-x="496" 
d="M331 155c0 51 -295 38 -295 215c0 100 83 161 224 161c99 0 183 -46 216 -94l-99 -95c-34 35 -81 54 -146 54c-27 0 -45 -6 -45 -25c0 -45 295 -31 295 -215c0 -114 -102 -164 -220 -164c-127 0 -212 58 -249 126l115 78c28 -36 86 -69 150 -69c35 0 54 9 54 28z" />
    <glyph glyph-name="t" unicode="t" horiz-adv-x="446" 
d="M5 385v135h99v121h145v-121h159v-135h-159v-169c0 -63 14 -87 53 -87c34 0 61 12 89 34l60 -103c-36 -38 -92 -66 -163 -66c-109 0 -184 59 -184 179v212h-99z" />
    <glyph glyph-name="u" unicode="u" horiz-adv-x="570" 
d="M525 523v-523h-145v34c-27 -21 -67 -42 -122 -42c-146 0 -218 73 -218 234v297h145v-286c0 -62 18 -110 88 -110c49 0 81 20 107 64v332h145z" />
    <glyph glyph-name="v" unicode="v" horiz-adv-x="527" 
d="M552 520l-228 -520h-110l-239 520h163l133 -300l127 300h154z" />
    <glyph glyph-name="w" unicode="w" horiz-adv-x="747" 
d="M762 520l-167 -520h-115l-104 282l-105 -282h-114l-172 520h150l88 -273l100 273h108l101 -273l83 273h147z" />
    <glyph glyph-name="x" unicode="x" horiz-adv-x="576" 
d="M577 520l-199 -252l208 -268h-180l-119 159l-123 -159h-174l208 267l-198 253h179l111 -141l112 141h175z" />
    <glyph glyph-name="y" unicode="y" horiz-adv-x="557" 
d="M572 520l-293 -720h-157l107 244l-249 476h169l151 -302l117 302h155z" />
    <glyph glyph-name="z" unicode="z" horiz-adv-x="514" 
d="M35 385v135h459v-93l-259 -292h254v-135h-469v94l258 291h-243z" />
    <glyph glyph-name="braceleft" unicode="{" horiz-adv-x="362" 
d="M89 -21v144c0 68 -29 79 -79 79v128c61 0 79 9 79 64v151c0 122 50 164 176 164h87v-128h-58c-46 0 -57 -16 -57 -69v-145c0 -39 -12 -77 -50 -97c39 -17 50 -56 50 -102v-153c0 -45 10 -62 55 -62h60v-128h-105c-103 0 -158 45 -158 154z" />
    <glyph glyph-name="bar" unicode="|" horiz-adv-x="315" 
d="M80 0v700h155v-700h-155z" />
    <glyph glyph-name="braceright" unicode="}" horiz-adv-x="362" 
d="M273 123v-144c0 -109 -55 -154 -158 -154h-105v128h60c45 0 55 17 55 62v153c0 46 11 85 50 102c-38 20 -50 58 -50 97v145c0 53 -11 69 -57 69h-58v128h87c126 0 176 -42 176 -164v-151c0 -55 18 -64 79 -64v-128c-50 0 -79 -11 -79 -79z" />
    <glyph glyph-name="asciitilde" unicode="~" horiz-adv-x="561" 
d="M85 258l-75 100c46 45 94 96 176 96s135 -64 194 -64c38 0 79 24 107 64l64 -102c-44 -54 -109 -88 -161 -88c-100 0 -138 64 -203 64c-35 0 -71 -28 -102 -70z" />
    <glyph glyph-name="uni00A0" unicode="&#xa0;" horiz-adv-x="236" 
 />
    <glyph glyph-name="exclamdown" unicode="&#xa1;" horiz-adv-x="309" 
d="M80 -182v503h151v-503h-151zM70 443c0 40 34 77 86 77c47 0 83 -37 83 -77c0 -36 -36 -75 -83 -75c-52 0 -86 39 -86 75z" />
    <glyph glyph-name="cent" unicode="&#xa2;" horiz-adv-x="545" 
d="M436 195l106 -63c-35 -69 -94 -113 -162 -131v-201h-155v201c-122 29 -200 124 -200 260c0 129 78 231 200 261v178h155v-178c79 -19 133 -64 158 -121l-108 -70c-21 29 -43 47 -70 57v-256c33 9 57 32 76 63zM175 261c0 -48 25 -92 70 -116v237
c-44 -20 -70 -64 -70 -121z" />
    <glyph glyph-name="sterling" unicode="&#xa3;" horiz-adv-x="598" 
d="M55 248v124h47c-14 32 -27 69 -27 121c0 111 89 214 234 214c86 0 168 -32 227 -98l-82 -116c-57 56 -106 69 -147 69c-42 0 -77 -26 -77 -80c0 -35 18 -68 34 -110h166v-124h-141v-12c0 -25 -8 -55 -23 -74c48 -2 103 -35 151 -35c41 0 61 14 94 57l77 -98
c-42 -55 -98 -86 -168 -86c-87 0 -145 42 -221 42c-38 0 -76 -10 -120 -53l-69 107c37 36 74 57 106 66c17 23 22 47 22 71v15h-83z" />
    <glyph glyph-name="currency" unicode="&#xa4;" horiz-adv-x="650" 
d="M77 347c0 44 9 84 31 123l-83 84l94 94l87 -85c32 15 75 27 119 27c47 0 85 -9 119 -27l91 89l95 -94l-89 -89c19 -36 33 -82 33 -122c0 -41 -13 -84 -33 -120l85 -86l-94 -95l-87 87c-33 -18 -74 -28 -120 -28c-48 0 -86 9 -121 28l-91 -91l-93 94l89 91
c-20 36 -32 79 -32 120zM222 347c0 -61 47 -106 103 -106c57 0 104 43 104 106c0 66 -49 108 -104 108c-58 0 -103 -45 -103 -108z" />
    <glyph glyph-name="yen" unicode="&#xa5;" horiz-adv-x="700" 
d="M122 301v126h60l-192 273h192l169 -247l171 247h188l-195 -273h62v-126h-151v-65h151v-126h-151v-110h-155v110h-149v126h149v65h-149z" />
    <glyph glyph-name="brokenbar" unicode="&#xa6;" horiz-adv-x="315" 
d="M235 385h-155v315h155v-315zM80 315h155v-315h-155v315z" />
    <glyph glyph-name="section" unicode="&#xa7;" horiz-adv-x="498" 
d="M30 262c0 74 27 129 88 164c-26 28 -44 64 -44 109c0 100 85 165 186 165c86 0 141 -54 175 -98l-93 -86c-22 28 -47 39 -72 39c-23 0 -41 -16 -41 -37c0 -33 17 -43 45 -55c117 -12 194 -94 194 -201c0 -70 -33 -130 -88 -166c25 -28 42 -63 42 -106
c0 -100 -84 -165 -185 -165c-87 0 -141 54 -175 98l87 102c21 -33 54 -55 88 -55c22 0 38 15 38 40c0 19 -21 41 -52 50c-117 12 -193 93 -193 202zM178 262c0 -44 33 -77 71 -77c40 0 71 33 71 77c0 43 -31 77 -71 77c-39 0 -71 -34 -71 -77z" />
    <glyph glyph-name="dieresis" unicode="&#xa8;" horiz-adv-x="479" 
d="M115 660c0 41 37 70 78 70c38 0 79 -29 79 -70c0 -45 -41 -72 -79 -72c-41 0 -78 27 -78 72zM319 660c0 41 38 70 81 70c41 0 79 -29 79 -70c0 -45 -36 -72 -79 -72s-81 27 -81 72z" />
    <glyph glyph-name="copyright" unicode="&#xa9;" horiz-adv-x="941" 
d="M40 237c0 235 184 422 430 422s431 -170 431 -422c0 -245 -185 -422 -431 -422s-430 162 -430 422zM173 237c0 -180 132 -296 297 -296c173 0 298 119 298 296c0 182 -119 296 -298 296c-165 0 -297 -124 -297 -296zM604 185l80 -88c-40 -61 -128 -105 -202 -105
c-165 0 -261 98 -261 249c0 139 107 248 249 248c97 0 163 -36 204 -100l-94 -82c-27 32 -58 49 -97 49c-60 0 -116 -39 -116 -115c0 -75 55 -116 122 -116c50 0 87 24 115 60z" />
    <glyph glyph-name="ordfeminine" unicode="&#xaa;" horiz-adv-x="464" 
d="M109 529l-44 90c43 26 94 41 178 42c101 1 161 -54 161 -147v-215h-130v27c-16 -18 -38 -31 -90 -31c-85 0 -139 46 -139 116c0 82 85 110 178 110c16 0 35 -2 51 -7c0 21 -8 37 -54 37c-31 0 -68 -6 -111 -22zM221 400c27 0 40 6 53 16v16c-12 4 -23 9 -52 9
c-24 0 -42 -6 -42 -21c0 -16 10 -20 41 -20z" />
    <glyph glyph-name="guillemotleft" unicode="&#xab;" horiz-adv-x="578" 
d="M217 38l-187 222v7l187 214l100 -89l-112 -130l113 -132zM447 38l-187 222v7l187 214l100 -89l-112 -130l113 -132z" />
    <glyph glyph-name="logicalnot" unicode="&#xac;" horiz-adv-x="524" 
d="M20 296v126h484v-241h-122v115h-362z" />
    <glyph glyph-name="uni00AD" unicode="&#xad;" horiz-adv-x="424" 
d="M60 217v130h304v-130h-304z" />
    <glyph glyph-name="registered" unicode="&#xae;" horiz-adv-x="576" 
d="M30 479c0 137 115 248 259 248c141 0 257 -111 257 -248c0 -140 -116 -251 -257 -251c-144 0 -259 111 -259 251zM75 478c0 -119 96 -205 213 -205s213 102 213 205c0 116 -104 204 -213 204c-120 0 -213 -97 -213 -204zM262 332h-106v295h124c109 0 142 -49 142 -103
c0 -42 -19 -72 -44 -86l55 -106h-118l-29 65h-24v-65zM307 513c0 9 -5 16 -21 16h-24v-32h24c18 0 21 8 21 16z" />
    <glyph glyph-name="macron" unicode="&#xaf;" horiz-adv-x="454" 
d="M160 610v120h294v-120h-294z" />
    <glyph glyph-name="degree" unicode="&#xb0;" horiz-adv-x="417" 
d="M30 542c0 96 80 170 178 170c99 0 179 -72 179 -169c0 -94 -80 -170 -179 -170c-98 0 -178 74 -178 169zM170 542c0 -24 19 -34 38 -34s39 10 39 34c0 25 -20 35 -39 35s-38 -10 -38 -35z" />
    <glyph glyph-name="plusminus" unicode="&#xb1;" horiz-adv-x="535" 
d="M40 365v125h164v175h125v-175h166v-125h-166v-94h-125v94h-164zM40 122v125h455v-125h-455z" />
    <glyph glyph-name="twosuperior" unicode="&#xb2;" horiz-adv-x="425" 
d="M125 549l-95 61c35 78 104 114 194 114c99 0 159 -54 159 -126c0 -76 -44 -124 -90 -153l-39 -25h141v-120h-351v101l78 45c68 39 126 82 126 119c0 24 -10 39 -38 39c-42 0 -70 -21 -85 -55z" />
    <glyph glyph-name="threesuperior" unicode="&#xb3;" horiz-adv-x="432" 
d="M114 557l-87 70c34 57 96 98 185 98c106 0 171 -41 171 -105c0 -47 -19 -72 -58 -94c30 -11 67 -35 67 -96c0 -80 -75 -135 -184 -135c-80 0 -147 28 -188 112l99 57c9 -29 39 -49 89 -49c35 0 49 5 49 23c0 15 -19 22 -54 22h-39v100h33c37 0 51 8 51 24
c0 12 -11 21 -38 21c-50 0 -73 -17 -96 -48z" />
    <glyph glyph-name="acute" unicode="&#xb4;" horiz-adv-x="454" 
d="M437 751l-132 -164l-100 70l123 176z" />
    <glyph glyph-name="mu" unicode="&#xb5;" horiz-adv-x="577" 
d="M532 520v-520h-145v27c-24 -18 -61 -35 -122 -35c-29 0 -57 8 -75 19v-210h-145v719h145v-283c0 -80 27 -110 91 -110c38 0 81 15 106 40v353h145z" />
    <glyph glyph-name="mu" unicode="&#x3bc;" horiz-adv-x="577" 
d="M532 520v-520h-145v27c-24 -18 -61 -35 -122 -35c-29 0 -57 8 -75 19v-210h-145v719h145v-283c0 -80 27 -110 91 -110c38 0 81 15 106 40v353h145z" />
    <glyph glyph-name="paragraph" unicode="&#xb6;" horiz-adv-x="451" 
d="M22 465c0 146 90 235 234 235h175v-128h-82v-555c0 -122 -46 -199 -179 -199c-52 0 -113 22 -150 65l65 112c31 -24 54 -32 81 -32c24 0 35 19 35 55v217c-105 20 -179 101 -179 230z" />
    <glyph glyph-name="periodcentered" unicode="&#xb7;" horiz-adv-x="236" 
d="M18 303c0 36 34 74 86 74c47 0 83 -38 83 -74c0 -41 -36 -77 -83 -77c-52 0 -86 36 -86 77z" />
    <glyph glyph-name="cedilla" unicode="&#xb8;" horiz-adv-x="468" 
d="M184 -161l44 69c14 -14 42 -28 81 -28c18 0 29 4 29 13c0 12 -16 17 -45 17h-6v90h75v-26c67 -6 106 -36 106 -90c0 -55 -50 -94 -151 -94c-76 0 -112 30 -133 49z" />
    <glyph glyph-name="onesuperior" unicode="&#xb9;" horiz-adv-x="330" 
d="M10 653l161 67h99v-420h-135v270l-77 -31z" />
    <glyph glyph-name="ordmasculine" unicode="&#xba;" horiz-adv-x="463" 
d="M40 478c0 110 76 183 191 183c116 0 192 -73 192 -183c0 -109 -76 -183 -192 -183c-115 0 -191 74 -191 183zM175 478c0 -38 25 -58 56 -58c37 0 57 20 57 58c0 37 -25 58 -57 58c-34 0 -56 -21 -56 -58z" />
    <glyph glyph-name="guillemotright" unicode="&#xbb;" horiz-adv-x="578" 
d="M548 260l-187 -222l-101 92l113 132l-112 130l100 89l187 -214v-7zM318 260l-187 -222l-101 92l113 132l-112 130l100 89l187 -214v-7z" />
    <glyph glyph-name="onequarter" unicode="&#xbc;" horiz-adv-x="899" 
d="M120 59l551 671l107 -86l-549 -675zM20 653l161 67h99v-420h-135v270l-77 -31zM686 0v64h-226v94l244 262h107v-241h68v-115h-68v-64h-125zM608 179h78v81z" />
    <glyph glyph-name="onehalf" unicode="&#xbd;" horiz-adv-x="965" 
d="M120 59l551 671l107 -86l-549 -675zM20 653l161 67h99v-420h-135v270l-77 -31zM655 249l-95 61c35 78 104 114 194 114c99 0 159 -54 159 -126c0 -76 -44 -124 -90 -153l-39 -25h141v-120h-351v101l78 45c68 39 126 82 126 119c0 24 -10 39 -38 39c-42 0 -70 -21 -85 -55
z" />
    <glyph glyph-name="threequarters" unicode="&#xbe;" horiz-adv-x="939" 
d="M160 59l551 671l107 -86l-549 -675zM726 0v64h-226v94l244 262h107v-241h68v-115h-68v-64h-125zM648 179h78v81zM114 557l-87 70c34 57 96 98 185 98c106 0 171 -41 171 -105c0 -47 -19 -72 -58 -94c30 -11 67 -35 67 -96c0 -80 -75 -135 -184 -135
c-80 0 -147 28 -188 112l99 57c9 -29 39 -49 89 -49c35 0 49 5 49 23c0 15 -19 22 -54 22h-39v100h33c37 0 51 8 51 24c0 12 -11 21 -38 21c-50 0 -73 -17 -96 -48z" />
    <glyph glyph-name="questiondown" unicode="&#xbf;" horiz-adv-x="625" 
d="M190 28c0 -36 41 -68 109 -68c85 0 129 32 155 93l141 -49c-42 -135 -182 -194 -302 -194c-171 0 -263 88 -263 193c0 225 237 185 237 283c0 17 -3 23 -4 35l141 2c5 -14 9 -39 9 -52c0 -164 -223 -140 -223 -243zM423 443c0 -36 -34 -75 -86 -75c-47 0 -83 39 -83 75
c0 40 36 77 83 77c52 0 86 -37 86 -77z" />
    <glyph glyph-name="Agrave" unicode="&#xc0;" horiz-adv-x="721" 
d="M-4 0l307 700h115l307 -700h-162l-57 130h-293l-57 -130h-160zM359 470l-92 -209h182zM410 733l-240 113l69 128l228 -142z" />
    <glyph glyph-name="Aacute" unicode="&#xc1;" horiz-adv-x="721" 
d="M-4 0l307 700h115l307 -700h-162l-57 130h-293l-57 -130h-160zM359 470l-92 -209h182zM577 846l-240 -113l-57 99l228 142z" />
    <glyph glyph-name="Acircumflex" unicode="&#xc2;" horiz-adv-x="721" 
d="M-4 0l307 700h115l307 -700h-162l-57 130h-293l-57 -130h-160zM359 470l-92 -209h182zM359 945l184 -117l-58 -85l-128 66l-128 -66l-52 83l178 119h4z" />
    <glyph glyph-name="Atilde" unicode="&#xc3;" horiz-adv-x="721" 
d="M-4 0l307 700h115l307 -700h-162l-57 130h-293l-57 -130h-160zM359 470l-92 -209h182zM218 766l-46 94c30 37 80 63 125 63c60 0 81 -30 135 -30c23 0 53 3 78 30l38 -94c-28 -45 -71 -66 -126 -66c-50 0 -81 30 -138 30c-21 0 -43 -8 -66 -27z" />
    <glyph glyph-name="Adieresis" unicode="&#xc4;" horiz-adv-x="721" 
d="M-4 0l307 700h115l307 -700h-162l-57 130h-293l-57 -130h-160zM359 470l-92 -209h182zM152 831c0 44 37 76 85 76c41 0 83 -32 83 -76c0 -46 -42 -77 -83 -77c-48 0 -85 31 -85 77zM401 831c0 44 40 76 85 76c41 0 82 -30 82 -76s-41 -77 -82 -77c-45 0 -85 31 -85 77z
" />
    <glyph glyph-name="Aring" unicode="&#xc5;" horiz-adv-x="721" 
d="M-4 0l307 700h115l307 -700h-162l-57 130h-293l-57 -130h-160zM359 470l-92 -209h182zM203 849c0 83 70 118 155 118c89 0 160 -35 160 -118c0 -81 -71 -121 -160 -121c-85 0 -155 40 -155 121zM313 849c0 -28 20 -41 47 -41s48 13 48 41c0 27 -21 38 -48 38
s-47 -11 -47 -38z" />
    <glyph glyph-name="AE" unicode="&#xc6;" horiz-adv-x="1154" 
d="M570 0v130h-299l-102 -130h-169l527 700h578v-145h-380v-130h355v-140h-355v-140h389v-145h-544zM365 261h205v271z" />
    <glyph glyph-name="Ccedilla" unicode="&#xc7;" horiz-adv-x="696" 
d="M233 -157l54 65c14 -14 42 -28 81 -28c18 0 29 4 29 13c0 12 -16 17 -45 17h-6v84c-194 17 -316 153 -316 356c0 200 145 358 362 358c128 0 233 -50 283 -129l-105 -96c-42 52 -110 75 -167 75c-125 0 -212 -78 -212 -208c0 -126 89 -208 210 -208c78 0 145 29 193 89
l92 -99c-58 -84 -155 -131 -265 -138v-20c81 -5 116 -36 116 -90c0 -55 -38 -94 -139 -94c-98 0 -140 29 -165 53z" />
    <glyph glyph-name="Egrave" unicode="&#xc8;" horiz-adv-x="649" 
d="M65 0v700h535v-145h-380v-130h355v-140h-355v-140h389v-145h-544zM400 733l-240 113l69 128l228 -142z" />
    <glyph glyph-name="Eacute" unicode="&#xc9;" horiz-adv-x="649" 
d="M65 0v700h535v-145h-380v-130h355v-140h-355v-140h389v-145h-544zM537 846l-240 -113l-57 99l228 142z" />
    <glyph glyph-name="Ecircumflex" unicode="&#xca;" horiz-adv-x="649" 
d="M65 0v700h535v-145h-380v-130h355v-140h-355v-140h389v-145h-544zM338 945l184 -117l-58 -85l-128 66l-128 -66l-52 83l178 119h4z" />
    <glyph glyph-name="Edieresis" unicode="&#xcb;" horiz-adv-x="649" 
d="M65 0v700h535v-145h-380v-130h355v-140h-355v-140h389v-145h-544zM127 831c0 44 37 76 85 76c41 0 83 -32 83 -76c0 -46 -42 -77 -83 -77c-48 0 -85 31 -85 77zM376 831c0 44 40 76 85 76c41 0 82 -30 82 -76s-41 -77 -82 -77c-45 0 -85 31 -85 77z" />
    <glyph glyph-name="Igrave" unicode="&#xcc;" horiz-adv-x="295" 
d="M70 0v700h155v-700h-155zM190 733l-240 113l69 128l228 -142z" />
    <glyph glyph-name="Iacute" unicode="&#xcd;" horiz-adv-x="295" 
d="M70 0v700h155v-700h-155zM357 846l-240 -113l-57 99l228 142z" />
    <glyph glyph-name="Icircumflex" unicode="&#xce;" horiz-adv-x="295" 
d="M70 0v700h155v-700h-155zM147 945l184 -117l-58 -85l-128 66l-128 -66l-52 83l178 119h4z" />
    <glyph glyph-name="Idieresis" unicode="&#xcf;" horiz-adv-x="295" 
d="M70 0v700h155v-700h-155zM-60 831c0 44 37 76 85 76c41 0 83 -32 83 -76c0 -46 -42 -77 -83 -77c-48 0 -85 31 -85 77zM189 831c0 44 40 76 85 76c41 0 82 -30 82 -76s-41 -77 -82 -77c-45 0 -85 31 -85 77z" />
    <glyph glyph-name="Eth" unicode="&#xd0;" horiz-adv-x="786" 
d="M20 285v129h111v286h222c300 0 403 -158 403 -341c0 -200 -124 -359 -418 -359h-207v285h-111zM351 555h-65v-141h158v-129h-158v-140h65c175 0 244 84 244 214c0 118 -62 196 -244 196z" />
    <glyph glyph-name="Ntilde" unicode="&#xd1;" horiz-adv-x="740" 
d="M675 0h-120l-339 415v-415h-151v700h119l340 -416v416h151v-700zM228 766l-46 94c30 37 80 63 125 63c60 0 81 -30 135 -30c23 0 53 3 78 30l38 -94c-28 -45 -71 -66 -126 -66c-50 0 -81 30 -138 30c-21 0 -43 -8 -66 -27z" />
    <glyph glyph-name="Ograve" unicode="&#xd2;" horiz-adv-x="781" 
d="M30 350c0 202 158 362 361 362c200 0 360 -154 360 -362c0 -206 -160 -362 -360 -362s-361 154 -361 362zM191 350c0 -130 94 -212 200 -212c110 0 199 82 199 212s-97 212 -199 212c-106 0 -200 -82 -200 -212zM445 733l-240 113l69 128l228 -142z" />
    <glyph glyph-name="Oacute" unicode="&#xd3;" horiz-adv-x="781" 
d="M30 350c0 202 158 362 361 362c200 0 360 -154 360 -362c0 -206 -160 -362 -360 -362s-361 154 -361 362zM191 350c0 -130 94 -212 200 -212c110 0 199 82 199 212s-97 212 -199 212c-106 0 -200 -82 -200 -212zM602 846l-240 -113l-57 99l228 142z" />
    <glyph glyph-name="Ocircumflex" unicode="&#xd4;" horiz-adv-x="781" 
d="M30 350c0 202 158 362 361 362c200 0 360 -154 360 -362c0 -206 -160 -362 -360 -362s-361 154 -361 362zM191 350c0 -130 94 -212 200 -212c110 0 199 82 199 212s-97 212 -199 212c-106 0 -200 -82 -200 -212zM389 945l184 -117l-58 -85l-128 66l-128 -66l-52 83
l178 119h4z" />
    <glyph glyph-name="Otilde" unicode="&#xd5;" horiz-adv-x="781" 
d="M30 350c0 202 158 362 361 362c200 0 360 -154 360 -362c0 -206 -160 -362 -360 -362s-361 154 -361 362zM191 350c0 -130 94 -212 200 -212c110 0 199 82 199 212s-97 212 -199 212c-106 0 -200 -82 -200 -212zM248 766l-46 94c30 37 80 63 125 63c60 0 81 -30 135 -30
c23 0 53 3 78 30l38 -94c-28 -45 -71 -66 -126 -66c-50 0 -81 30 -138 30c-21 0 -43 -8 -66 -27z" />
    <glyph glyph-name="Odieresis" unicode="&#xd6;" horiz-adv-x="781" 
d="M30 350c0 202 158 362 361 362c200 0 360 -154 360 -362c0 -206 -160 -362 -360 -362s-361 154 -361 362zM191 350c0 -130 94 -212 200 -212c110 0 199 82 199 212s-97 212 -199 212c-106 0 -200 -82 -200 -212zM182 831c0 44 37 76 85 76c41 0 83 -32 83 -76
c0 -46 -42 -77 -83 -77c-48 0 -85 31 -85 77zM431 831c0 44 40 76 85 76c41 0 82 -30 82 -76s-41 -77 -82 -77c-45 0 -85 31 -85 77z" />
    <glyph glyph-name="multiply" unicode="&#xd7;" horiz-adv-x="605" 
d="M80 482l92 92l123 -124l124 124l92 -92l-124 -124l124 -123l-92 -92l-124 124l-123 -124l-92 92l124 123z" />
    <glyph glyph-name="Oslash" unicode="&#xd8;" horiz-adv-x="781" 
d="M59 58l51 62c-50 61 -80 140 -80 230c0 202 158 358 361 358c61 0 118 -14 169 -40l50 61l107 -86l-49 -60c52 -61 83 -142 83 -233c0 -206 -160 -358 -360 -358c-62 0 -120 14 -171 40l-52 -64zM590 350c0 40 -10 76 -26 106l-245 -302c23 -8 47 -12 72 -12
c110 0 199 78 199 208zM191 350c0 -40 8 -74 23 -103l245 299c-22 8 -45 12 -68 12c-106 0 -200 -78 -200 -208z" />
    <glyph glyph-name="Ugrave" unicode="&#xd9;" horiz-adv-x="720" 
d="M665 700v-400c0 -219 -149 -307 -297 -307c-167 0 -313 105 -313 313v394h155v-376c0 -110 54 -186 158 -186c101 0 142 71 142 182v380h155zM415 733l-240 113l69 128l228 -142z" />
    <glyph glyph-name="Uacute" unicode="&#xda;" horiz-adv-x="720" 
d="M665 700v-400c0 -219 -149 -307 -297 -307c-167 0 -313 105 -313 313v394h155v-376c0 -110 54 -186 158 -186c101 0 142 71 142 182v380h155zM572 846l-240 -113l-57 99l228 142z" />
    <glyph glyph-name="Ucircumflex" unicode="&#xdb;" horiz-adv-x="720" 
d="M665 700v-400c0 -219 -149 -307 -297 -307c-167 0 -313 105 -313 313v394h155v-376c0 -110 54 -186 158 -186c101 0 142 71 142 182v380h155zM359 945l184 -117l-58 -85l-128 66l-128 -66l-52 83l178 119h4z" />
    <glyph glyph-name="Udieresis" unicode="&#xdc;" horiz-adv-x="720" 
d="M665 700v-400c0 -219 -149 -307 -297 -307c-167 0 -313 105 -313 313v394h155v-376c0 -110 54 -186 158 -186c101 0 142 71 142 182v380h155zM152 831c0 44 37 76 85 76c41 0 83 -32 83 -76c0 -46 -42 -77 -83 -77c-48 0 -85 31 -85 77zM401 831c0 44 40 76 85 76
c41 0 82 -30 82 -76s-41 -77 -82 -77c-45 0 -85 31 -85 77z" />
    <glyph glyph-name="Yacute" unicode="&#xdd;" horiz-adv-x="700" 
d="M710 700l-284 -449v-251h-155v251l-281 449h185l176 -280l180 280h179zM567 846l-240 -113l-57 99l228 142z" />
    <glyph glyph-name="Thorn" unicode="&#xde;" horiz-adv-x="662" 
d="M220 0h-155v700h155v-100h115c238 0 297 -126 297 -241c0 -118 -76 -239 -297 -239h-115v-120zM339 455h-119v-190h113c97 0 138 36 138 95c0 55 -34 95 -132 95z" />
    <glyph glyph-name="germandbls" unicode="&#xdf;" horiz-adv-x="567" 
d="M291 738c145 0 218 -83 218 -210c0 -58 -22 -114 -75 -140c82 -27 108 -83 108 -172c0 -132 -68 -227 -216 -227c-37 0 -73 6 -102 20l33 131c23 -11 36 -16 60 -16c49 0 80 36 80 89c0 59 -40 86 -97 86h-49v135h14c83 0 99 41 99 80c0 58 -40 89 -87 89
c-52 0 -87 -30 -87 -166v-437h-145v436c0 215 92 302 246 302z" />
    <glyph glyph-name="agrave" unicode="&#xe0;" horiz-adv-x="532" 
d="M117 346l-69 105c49 51 134 80 229 80c134 0 213 -79 213 -216v-315h-145v47c-22 -26 -77 -53 -140 -53c-115 0 -190 67 -190 170c0 120 112 171 236 171c36 0 72 -5 94 -13c1 53 -28 74 -84 74s-90 -12 -144 -50zM235 119c49 0 93 26 110 59v24c-16 6 -49 13 -79 13
c-58 0 -101 -13 -101 -51c0 -28 26 -45 70 -45zM268 587l-147 160l114 86l119 -177z" />
    <glyph glyph-name="aacute" unicode="&#xe1;" horiz-adv-x="532" 
d="M117 346l-69 105c49 51 134 80 229 80c134 0 213 -79 213 -216v-315h-145v47c-22 -26 -77 -53 -140 -53c-115 0 -190 67 -190 170c0 120 112 171 236 171c36 0 72 -5 94 -13c1 53 -28 74 -84 74s-90 -12 -144 -50zM235 119c49 0 93 26 110 59v24c-16 6 -49 13 -79 13
c-58 0 -101 -13 -101 -51c0 -28 26 -45 70 -45zM414 751l-132 -164l-100 70l123 176z" />
    <glyph glyph-name="acircumflex" unicode="&#xe2;" horiz-adv-x="532" 
d="M117 346l-69 105c49 51 134 80 229 80c134 0 213 -79 213 -216v-315h-145v47c-22 -26 -77 -53 -140 -53c-115 0 -190 67 -190 170c0 120 112 171 236 171c36 0 72 -5 94 -13c1 53 -28 74 -84 74s-90 -12 -144 -50zM235 119c49 0 93 26 110 59v24c-16 6 -49 13 -79 13
c-58 0 -101 -13 -101 -51c0 -28 26 -45 70 -45zM270 796l165 -136l-70 -88l-98 81l-100 -79l-67 87l166 135h4z" />
    <glyph glyph-name="atilde" unicode="&#xe3;" horiz-adv-x="532" 
d="M117 346l-69 105c49 51 134 80 229 80c134 0 213 -79 213 -216v-315h-145v47c-22 -26 -77 -53 -140 -53c-115 0 -190 67 -190 170c0 120 112 171 236 171c36 0 72 -5 94 -13c1 53 -28 74 -84 74s-90 -12 -144 -50zM235 119c49 0 93 26 110 59v24c-16 6 -49 13 -79 13
c-58 0 -101 -13 -101 -51c0 -28 26 -45 70 -45zM145 599l-60 67c38 54 88 78 132 78c47 0 77 -39 118 -39c33 0 47 10 66 27l49 -75c-36 -43 -83 -72 -127 -72s-74 39 -119 39c-20 0 -44 -13 -59 -25z" />
    <glyph glyph-name="adieresis" unicode="&#xe4;" horiz-adv-x="532" 
d="M117 346l-69 105c49 51 134 80 229 80c134 0 213 -79 213 -216v-315h-145v47c-22 -26 -77 -53 -140 -53c-115 0 -190 67 -190 170c0 120 112 171 236 171c36 0 72 -5 94 -13c1 53 -28 74 -84 74s-90 -12 -144 -50zM235 119c49 0 93 26 110 59v24c-16 6 -49 13 -79 13
c-58 0 -101 -13 -101 -51c0 -28 26 -45 70 -45zM86 660c0 41 37 70 78 70c38 0 79 -29 79 -70c0 -45 -41 -72 -79 -72c-41 0 -78 27 -78 72zM290 660c0 41 38 70 81 70c41 0 79 -29 79 -70c0 -45 -36 -72 -79 -72s-81 27 -81 72z" />
    <glyph glyph-name="aring" unicode="&#xe5;" horiz-adv-x="532" 
d="M117 346l-69 105c49 51 134 80 229 80c134 0 213 -79 213 -216v-315h-145v47c-22 -26 -77 -53 -140 -53c-115 0 -190 67 -190 170c0 120 112 171 236 171c36 0 72 -5 94 -13c1 53 -28 74 -84 74s-90 -12 -144 -50zM235 119c49 0 93 26 110 59v24c-16 6 -49 13 -79 13
c-58 0 -101 -13 -101 -51c0 -28 26 -45 70 -45zM130 701c0 71 57 129 137 129c81 0 139 -58 139 -129c0 -70 -58 -127 -139 -127c-80 0 -137 57 -137 127zM225 703c0 -27 17 -44 44 -44c26 0 42 17 42 44c0 26 -16 42 -42 42c-27 0 -44 -16 -44 -42z" />
    <glyph glyph-name="ae" unicode="&#xe6;" horiz-adv-x="878" 
d="M748 184l87 -88c-56 -70 -127 -104 -214 -104s-160 28 -209 78c-53 -55 -115 -76 -188 -76c-134 0 -209 67 -209 170c0 120 112 171 236 171c36 0 72 -5 94 -13c1 53 -28 74 -84 74s-90 -12 -144 -50l-69 105c49 51 134 80 229 80c66 0 119 -20 156 -56
c44 35 103 56 177 56c142 0 248 -94 248 -239c0 -16 -2 -45 -8 -84h-358c14 -57 67 -81 131 -81c49 0 94 19 125 57zM235 119c49 0 93 26 110 59v24c-16 6 -49 13 -79 13c-58 0 -101 -13 -101 -51c0 -28 26 -45 70 -45zM605 401c-55 0 -92 -22 -110 -68h213
c-13 49 -50 68 -103 68z" />
    <glyph glyph-name="ccedilla" unicode="&#xe7;" horiz-adv-x="540" 
d="M146 -161l44 69c14 -14 42 -28 81 -28c18 0 29 4 29 13c0 12 -16 17 -45 17h-6v86c-139 19 -229 119 -229 265c0 154 112 270 275 270c123 0 205 -55 238 -130l-108 -70c-33 45 -68 65 -121 65c-79 0 -134 -53 -134 -135c0 -72 57 -134 148 -134c54 0 88 27 113 68
l106 -63c-44 -85 -124 -132 -213 -139v-19c67 -6 106 -36 106 -90c0 -55 -50 -94 -151 -94c-76 0 -112 30 -133 49z" />
    <glyph glyph-name="egrave" unicode="&#xe8;" horiz-adv-x="558" 
d="M438 184l87 -88c-56 -70 -137 -104 -224 -104c-168 0 -281 105 -281 269c0 152 94 270 270 270c142 0 248 -94 248 -239c0 -16 -2 -45 -8 -84h-358c14 -57 67 -81 131 -81c49 0 104 19 135 57zM285 401c-55 0 -92 -22 -110 -68h213c-13 49 -50 68 -103 68zM289 587
l-147 160l114 86l119 -177z" />
    <glyph glyph-name="eacute" unicode="&#xe9;" horiz-adv-x="558" 
d="M438 184l87 -88c-56 -70 -137 -104 -224 -104c-168 0 -281 105 -281 269c0 152 94 270 270 270c142 0 248 -94 248 -239c0 -16 -2 -45 -8 -84h-358c14 -57 67 -81 131 -81c49 0 104 19 135 57zM285 401c-55 0 -92 -22 -110 -68h213c-13 49 -50 68 -103 68zM425 751
l-132 -164l-100 70l123 176z" />
    <glyph glyph-name="ecircumflex" unicode="&#xea;" horiz-adv-x="558" 
d="M438 184l87 -88c-56 -70 -137 -104 -224 -104c-168 0 -281 105 -281 269c0 152 94 270 270 270c142 0 248 -94 248 -239c0 -16 -2 -45 -8 -84h-358c14 -57 67 -81 131 -81c49 0 104 19 135 57zM285 401c-55 0 -92 -22 -110 -68h213c-13 49 -50 68 -103 68zM292 796
l165 -136l-70 -88l-98 81l-100 -79l-67 87l166 135h4z" />
    <glyph glyph-name="edieresis" unicode="&#xeb;" horiz-adv-x="558" 
d="M438 184l87 -88c-56 -70 -137 -104 -224 -104c-168 0 -281 105 -281 269c0 152 94 270 270 270c142 0 248 -94 248 -239c0 -16 -2 -45 -8 -84h-358c14 -57 67 -81 131 -81c49 0 104 19 135 57zM285 401c-55 0 -92 -22 -110 -68h213c-13 49 -50 68 -103 68zM97 660
c0 41 37 70 78 70c38 0 79 -29 79 -70c0 -45 -41 -72 -79 -72c-41 0 -78 27 -78 72zM301 660c0 41 38 70 81 70c41 0 79 -29 79 -70c0 -45 -36 -72 -79 -72s-81 27 -81 72z" />
    <glyph glyph-name="igrave" unicode="&#xec;" horiz-adv-x="263" 
d="M59 0v520h145v-520h-145zM142 587l-147 160l114 86l119 -177z" />
    <glyph glyph-name="iacute" unicode="&#xed;" horiz-adv-x="263" 
d="M59 0v520h145v-520h-145zM268 751l-132 -164l-100 70l123 176z" />
    <glyph glyph-name="icircumflex" unicode="&#xee;" horiz-adv-x="263" 
d="M59 0v520h145v-520h-145zM134 796l165 -136l-70 -88l-98 81l-100 -79l-67 87l166 135h4z" />
    <glyph glyph-name="idieresis" unicode="&#xef;" horiz-adv-x="263" 
d="M59 0v520h145v-520h-145zM-50 660c0 41 37 70 78 70c38 0 79 -29 79 -70c0 -45 -41 -72 -79 -72c-41 0 -78 27 -78 72zM154 660c0 41 38 70 81 70c41 0 79 -29 79 -70c0 -45 -36 -72 -79 -72s-81 27 -81 72z" />
    <glyph glyph-name="eth" unicode="&#xf0;" horiz-adv-x="614" 
d="M274 780l100 -39l-20 -44c149 -71 235 -202 235 -385c0 -207 -117 -320 -283 -320c-161 0 -281 113 -281 269c0 157 115 260 281 260c37 0 69 -10 91 -22c-20 33 -54 63 -95 85l-21 -46l-99 39l19 43c-20 4 -40 6 -61 8l35 120c27 -4 53 -9 77 -15zM175 261
c0 -76 53 -134 131 -134c79 0 133 50 133 151c0 23 -1 56 -10 78c-24 26 -63 40 -100 40c-96 0 -154 -49 -154 -135z" />
    <glyph glyph-name="ntilde" unicode="&#xf1;" horiz-adv-x="577" 
d="M45 0v520h145v-37c23 28 72 47 142 47c133 0 205 -71 205 -238v-292h-145v283c0 84 -33 112 -102 112c-47 0 -82 -25 -100 -69v-326h-145zM168 599l-60 67c38 54 88 78 132 78c47 0 77 -39 118 -39c33 0 47 10 66 27l49 -75c-36 -43 -83 -72 -127 -72s-74 39 -119 39
c-20 0 -44 -13 -59 -25z" />
    <glyph glyph-name="ograve" unicode="&#xf2;" horiz-adv-x="604" 
d="M20 261c0 157 115 270 281 270s283 -113 283 -270c0 -156 -117 -269 -283 -269c-161 0 -281 113 -281 269zM170 261c0 -76 53 -134 131 -134c79 0 133 50 133 134c0 86 -60 135 -133 135s-131 -49 -131 -135zM292 587l-147 160l114 86l119 -177z" />
    <glyph glyph-name="oacute" unicode="&#xf3;" horiz-adv-x="604" 
d="M20 261c0 157 115 270 281 270s283 -113 283 -270c0 -156 -117 -269 -283 -269c-161 0 -281 113 -281 269zM170 261c0 -76 53 -134 131 -134c79 0 133 50 133 134c0 86 -60 135 -133 135s-131 -49 -131 -135zM448 751l-132 -164l-100 70l123 176z" />
    <glyph glyph-name="ocircumflex" unicode="&#xf4;" horiz-adv-x="604" 
d="M20 261c0 157 115 270 281 270s283 -113 283 -270c0 -156 -117 -269 -283 -269c-161 0 -281 113 -281 269zM170 261c0 -76 53 -134 131 -134c79 0 133 50 133 134c0 86 -60 135 -133 135s-131 -49 -131 -135zM304 796l165 -136l-70 -88l-98 81l-100 -79l-67 87l166 135h4
z" />
    <glyph glyph-name="otilde" unicode="&#xf5;" horiz-adv-x="604" 
d="M20 261c0 157 115 270 281 270s283 -113 283 -270c0 -156 -117 -269 -283 -269c-161 0 -281 113 -281 269zM170 261c0 -76 53 -134 131 -134c79 0 133 50 133 134c0 86 -60 135 -133 135s-131 -49 -131 -135zM179 599l-60 67c38 54 88 78 132 78c47 0 77 -39 118 -39
c33 0 47 10 66 27l49 -75c-36 -43 -83 -72 -127 -72s-74 39 -119 39c-20 0 -44 -13 -59 -25z" />
    <glyph glyph-name="odieresis" unicode="&#xf6;" horiz-adv-x="604" 
d="M20 261c0 157 115 270 281 270s283 -113 283 -270c0 -156 -117 -269 -283 -269c-161 0 -281 113 -281 269zM170 261c0 -76 53 -134 131 -134c79 0 133 50 133 134c0 86 -60 135 -133 135s-131 -49 -131 -135zM120 660c0 41 37 70 78 70c38 0 79 -29 79 -70
c0 -45 -41 -72 -79 -72c-41 0 -78 27 -78 72zM324 660c0 41 38 70 81 70c41 0 79 -29 79 -70c0 -45 -36 -72 -79 -72s-81 27 -81 72z" />
    <glyph glyph-name="divide" unicode="&#xf7;" horiz-adv-x="555" 
d="M196 543c0 34 31 72 82 72c48 0 81 -38 81 -72c0 -38 -33 -73 -81 -73c-51 0 -82 35 -82 73zM196 175c0 36 31 72 82 72c48 0 81 -36 81 -72c0 -39 -33 -74 -81 -74c-51 0 -82 35 -82 74zM30 296v126h495v-126h-495z" />
    <glyph glyph-name="oslash" unicode="&#xf8;" horiz-adv-x="604" 
d="M20 261c0 157 115 270 281 270c43 0 83 -8 118 -22l45 54l107 -86l-41 -50c34 -45 54 -102 54 -166c0 -156 -117 -269 -283 -269c-41 0 -78 7 -112 20l-51 -62l-109 90l46 55c-35 45 -55 102 -55 166zM170 261c0 -16 2 -31 6 -44l148 177c-8 1 -15 2 -23 2
c-73 0 -131 -49 -131 -135zM434 261c0 15 -2 29 -6 42l-144 -175c6 -1 11 -1 17 -1c79 0 133 50 133 134z" />
    <glyph glyph-name="ugrave" unicode="&#xf9;" horiz-adv-x="570" 
d="M525 523v-523h-145v34c-27 -21 -67 -42 -122 -42c-146 0 -218 73 -218 234v297h145v-286c0 -62 18 -110 88 -110c49 0 81 20 107 64v332h145zM293 587l-147 160l114 86l119 -177z" />
    <glyph glyph-name="uacute" unicode="&#xfa;" horiz-adv-x="570" 
d="M525 523v-523h-145v34c-27 -21 -67 -42 -122 -42c-146 0 -218 73 -218 234v297h145v-286c0 -62 18 -110 88 -110c49 0 81 20 107 64v332h145zM419 751l-132 -164l-100 70l123 176z" />
    <glyph glyph-name="ucircumflex" unicode="&#xfb;" horiz-adv-x="570" 
d="M525 523v-523h-145v34c-27 -21 -67 -42 -122 -42c-146 0 -218 73 -218 234v297h145v-286c0 -62 18 -110 88 -110c49 0 81 20 107 64v332h145zM285 796l165 -136l-70 -88l-98 81l-100 -79l-67 87l166 135h4z" />
    <glyph glyph-name="udieresis" unicode="&#xfc;" horiz-adv-x="570" 
d="M525 523v-523h-145v34c-27 -21 -67 -42 -122 -42c-146 0 -218 73 -218 234v297h145v-286c0 -62 18 -110 88 -110c49 0 81 20 107 64v332h145zM101 660c0 41 37 70 78 70c38 0 79 -29 79 -70c0 -45 -41 -72 -79 -72c-41 0 -78 27 -78 72zM305 660c0 41 38 70 81 70
c41 0 79 -29 79 -70c0 -45 -36 -72 -79 -72s-81 27 -81 72z" />
    <glyph glyph-name="yacute" unicode="&#xfd;" horiz-adv-x="557" 
d="M572 520l-293 -720h-157l107 244l-249 476h169l151 -302l117 302h155zM425 751l-132 -164l-100 70l123 176z" />
    <glyph glyph-name="thorn" unicode="&#xfe;" horiz-adv-x="587" 
d="M45 -200v930h145v-237c27 25 76 38 116 38c158 0 256 -109 256 -263c0 -158 -102 -276 -260 -276c-50 0 -96 8 -112 26v-218h-145zM290 396c-48 0 -81 -24 -100 -59v-166c16 -24 51 -44 92 -44c81 0 130 51 130 130c0 92 -46 139 -122 139z" />
    <glyph glyph-name="ydieresis" unicode="&#xff;" horiz-adv-x="557" 
d="M572 520l-293 -720h-157l107 244l-249 476h169l151 -302l117 302h155zM97 660c0 41 37 70 78 70c38 0 79 -29 79 -70c0 -45 -41 -72 -79 -72c-41 0 -78 27 -78 72zM301 660c0 41 38 70 81 70c41 0 79 -29 79 -70c0 -45 -36 -72 -79 -72s-81 27 -81 72z" />
    <glyph glyph-name="Amacron" unicode="&#x100;" horiz-adv-x="721" 
d="M-4 0l307 700h115l307 -700h-162l-57 130h-293l-57 -130h-160zM359 470l-92 -209h182zM203 770v120h314v-120h-314z" />
    <glyph glyph-name="amacron" unicode="&#x101;" horiz-adv-x="532" 
d="M117 346l-69 105c49 51 134 80 229 80c134 0 213 -79 213 -216v-315h-145v47c-22 -26 -77 -53 -140 -53c-115 0 -190 67 -190 170c0 120 112 171 236 171c36 0 72 -5 94 -13c1 53 -28 74 -84 74s-90 -12 -144 -50zM235 119c49 0 93 26 110 59v24c-16 6 -49 13 -79 13
c-58 0 -101 -13 -101 -51c0 -28 26 -45 70 -45zM121 610v120h294v-120h-294z" />
    <glyph glyph-name="Abreve" unicode="&#x102;" horiz-adv-x="721" 
d="M-4 0l307 700h115l307 -700h-162l-57 130h-293l-57 -130h-160zM359 470l-92 -209h182zM159 863l64 77c26 -27 67 -60 143 -60c66 0 113 30 140 60l55 -78c-35 -59 -111 -112 -195 -112c-95 0 -174 59 -207 113z" />
    <glyph glyph-name="abreve" unicode="&#x103;" horiz-adv-x="532" 
d="M117 346l-69 105c49 51 134 80 229 80c134 0 213 -79 213 -216v-315h-145v47c-22 -26 -77 -53 -140 -53c-115 0 -190 67 -190 170c0 120 112 171 236 171c36 0 72 -5 94 -13c1 53 -28 74 -84 74s-90 -12 -144 -50zM235 119c49 0 93 26 110 59v24c-16 6 -49 13 -79 13
c-58 0 -101 -13 -101 -51c0 -28 26 -45 70 -45zM92 707l66 75c21 -23 52 -52 105 -52c49 0 90 26 110 50l51 -72c-28 -42 -73 -98 -167 -98c-92 0 -146 64 -165 97z" />
    <glyph glyph-name="Aogonek" unicode="&#x104;" horiz-adv-x="721" 
d="M680 -70l45 -90c-17 -21 -67 -40 -120 -40c-78 0 -145 29 -145 95c0 53 44 87 102 106l-56 129h-293l-57 -130h-160l307 700h115l307 -700h-25c-53 -3 -90 -31 -90 -54c0 -18 13 -26 30 -26s23 2 40 10zM359 470l-92 -209h182z" />
    <glyph glyph-name="aogonek" unicode="&#x105;" horiz-adv-x="535" 
d="M459 -70l45 -90c-17 -21 -67 -40 -120 -40c-78 0 -145 29 -145 95c0 54 45 89 106 108v44c-22 -26 -77 -53 -140 -53c-115 0 -190 67 -190 170c0 120 112 171 236 171c36 0 72 -5 94 -13c1 53 -28 74 -84 74s-90 -12 -144 -50l-69 105c49 51 134 80 229 80
c134 0 213 -79 213 -216v-315h-11c-53 -3 -90 -31 -90 -54c0 -18 13 -26 30 -26s23 2 40 10zM235 119c49 0 93 26 110 59v24c-16 6 -49 13 -79 13c-58 0 -101 -13 -101 -51c0 -28 26 -45 70 -45z" />
    <glyph glyph-name="Cacute" unicode="&#x106;" horiz-adv-x="696" 
d="M594 231l92 -99c-63 -92 -174 -144 -298 -144c-218 0 -358 145 -358 362c0 200 145 362 362 362c128 0 233 -54 283 -133l-105 -96c-42 52 -110 79 -167 79c-125 0 -212 -82 -212 -212c0 -126 89 -212 210 -212c78 0 145 33 193 93zM587 846l-240 -113l-57 99l228 142z
" />
    <glyph glyph-name="cacute" unicode="&#x107;" horiz-adv-x="540" 
d="M431 195l106 -63c-47 -92 -137 -140 -235 -140c-168 0 -282 105 -282 269c0 154 112 270 275 270c123 0 205 -55 238 -130l-108 -70c-33 45 -68 65 -121 65c-79 0 -134 -53 -134 -135c0 -72 57 -134 148 -134c54 0 88 27 113 68zM454 751l-132 -164l-100 70l123 176z" />
    <glyph glyph-name="Ccircumflex" unicode="&#x108;" horiz-adv-x="696" 
d="M594 231l92 -99c-63 -92 -174 -144 -298 -144c-218 0 -358 145 -358 362c0 200 145 362 362 362c128 0 233 -54 283 -133l-105 -96c-42 52 -110 79 -167 79c-125 0 -212 -82 -212 -212c0 -126 89 -212 210 -212c78 0 145 33 193 93zM375 945l184 -117l-58 -85l-128 66
l-128 -66l-52 83l178 119h4z" />
    <glyph glyph-name="ccircumflex" unicode="&#x109;" horiz-adv-x="540" 
d="M431 195l106 -63c-47 -92 -137 -140 -235 -140c-168 0 -282 105 -282 269c0 154 112 270 275 270c123 0 205 -55 238 -130l-108 -70c-33 45 -68 65 -121 65c-79 0 -134 -53 -134 -135c0 -72 57 -134 148 -134c54 0 88 27 113 68zM300 796l165 -136l-70 -88l-98 81
l-100 -79l-67 87l166 135h4z" />
    <glyph glyph-name="Cdotaccent" unicode="&#x10a;" horiz-adv-x="696" 
d="M594 231l92 -99c-63 -92 -174 -144 -298 -144c-218 0 -358 145 -358 362c0 200 145 362 362 362c128 0 233 -54 283 -133l-105 -96c-42 52 -110 79 -167 79c-125 0 -212 -82 -212 -212c0 -126 89 -212 210 -212c78 0 145 33 193 93zM300 828c0 41 34 72 82 72
c47 0 81 -31 81 -72c0 -43 -34 -74 -81 -74c-51 0 -82 31 -82 74z" />
    <glyph glyph-name="cdotaccent" unicode="&#x10b;" horiz-adv-x="540" 
d="M431 195l106 -63c-47 -92 -137 -140 -235 -140c-168 0 -282 105 -282 269c0 154 112 270 275 270c123 0 205 -55 238 -130l-108 -70c-33 45 -68 65 -121 65c-79 0 -134 -53 -134 -135c0 -72 57 -134 148 -134c54 0 88 27 113 68zM216 658c0 41 34 72 82 72
c47 0 81 -31 81 -72c0 -43 -34 -74 -81 -74c-51 0 -82 31 -82 74z" />
    <glyph glyph-name="Ccaron" unicode="&#x10c;" horiz-adv-x="696" 
d="M594 231l92 -99c-63 -92 -174 -144 -298 -144c-218 0 -358 145 -358 362c0 200 145 362 362 362c128 0 233 -54 283 -133l-105 -96c-42 52 -110 79 -167 79c-125 0 -212 -82 -212 -212c0 -126 89 -212 210 -212c78 0 145 33 193 93zM375 743l-184 117l58 85l128 -76
l128 76l52 -83l-178 -119h-4z" />
    <glyph glyph-name="ccaron" unicode="&#x10d;" horiz-adv-x="540" 
d="M431 195l106 -63c-47 -92 -137 -140 -235 -140c-168 0 -282 105 -282 269c0 154 112 270 275 270c123 0 205 -55 238 -130l-108 -70c-33 45 -68 65 -121 65c-79 0 -134 -53 -134 -135c0 -72 57 -134 148 -134c54 0 88 27 113 68zM295 598l-165 136l70 88l98 -81l100 79
l67 -87l-166 -135h-4z" />
    <glyph glyph-name="Dcaron" unicode="&#x10e;" horiz-adv-x="720" 
d="M65 0v700h222c300 0 403 -158 403 -341c0 -200 -124 -359 -418 -359h-207zM285 555h-65v-410h65c175 0 245 84 245 214c0 118 -63 196 -245 196zM305 743l-184 117l58 85l128 -76l128 76l52 -83l-178 -119h-4z" />
    <glyph glyph-name="dcaron" unicode="&#x10f;" horiz-adv-x="586" 
d="M396 0v41c-18 -20 -63 -49 -131 -49c-142 0 -245 93 -245 267c0 161 116 272 254 272c73 0 105 -14 122 -25v224h145v-730h-145zM296 127c38 0 83 24 100 61v168c-17 21 -43 40 -91 40c-74 0 -135 -47 -135 -135c0 -84 53 -134 126 -134zM593 731h154
c10 -16 14 -44 14 -70c0 -82 -64 -149 -123 -185l-63 55c35 35 44 79 44 106c0 38 -11 74 -26 94z" />
    <glyph glyph-name="Dcroat" unicode="&#x110;" horiz-adv-x="786" 
d="M20 285v129h111v286h222c300 0 403 -158 403 -341c0 -200 -124 -359 -418 -359h-207v285h-111zM351 555h-65v-141h158v-129h-158v-140h65c175 0 244 84 244 214c0 118 -62 196 -244 196z" />
    <glyph glyph-name="dcroat" unicode="&#x111;" horiz-adv-x="586" 
d="M282 550v130h114v50h145v-50h45v-130h-45v-550h-145v41c-18 -20 -63 -49 -131 -49c-142 0 -245 93 -245 267c0 161 116 272 254 272c73 0 105 -14 122 -25v44h-114zM296 127c38 0 83 24 100 61v168c-17 21 -43 40 -91 40c-74 0 -135 -47 -135 -135
c0 -84 53 -134 126 -134z" />
    <glyph glyph-name="Emacron" unicode="&#x112;" horiz-adv-x="649" 
d="M65 0v700h535v-145h-380v-130h355v-140h-355v-140h389v-145h-544zM170 770v120h314v-120h-314z" />
    <glyph glyph-name="emacron" unicode="&#x113;" horiz-adv-x="558" 
d="M438 184l87 -88c-56 -70 -137 -104 -224 -104c-168 0 -281 105 -281 269c0 152 94 270 270 270c142 0 248 -94 248 -239c0 -16 -2 -45 -8 -84h-358c14 -57 67 -81 131 -81c49 0 104 19 135 57zM285 401c-55 0 -92 -22 -110 -68h213c-13 49 -50 68 -103 68zM132 610v120
h294v-120h-294z" />
    <glyph glyph-name="Edotaccent" unicode="&#x116;" horiz-adv-x="649" 
d="M65 0v700h535v-145h-380v-130h355v-140h-355v-140h389v-145h-544zM250 828c0 41 34 72 82 72c47 0 81 -31 81 -72c0 -43 -34 -74 -81 -74c-51 0 -82 31 -82 74z" />
    <glyph glyph-name="edotaccent" unicode="&#x117;" horiz-adv-x="558" 
d="M438 184l87 -88c-56 -70 -137 -104 -224 -104c-168 0 -281 105 -281 269c0 152 94 270 270 270c142 0 248 -94 248 -239c0 -16 -2 -45 -8 -84h-358c14 -57 67 -81 131 -81c49 0 104 19 135 57zM285 401c-55 0 -92 -22 -110 -68h213c-13 49 -50 68 -103 68zM207 658
c0 41 34 72 82 72c47 0 81 -31 81 -72c0 -43 -34 -74 -81 -74c-51 0 -82 31 -82 74z" />
    <glyph glyph-name="Eogonek" unicode="&#x118;" horiz-adv-x="649" 
d="M65 0v700h535v-145h-380v-130h355v-140h-355v-140h389v-145h-13c-53 -3 -90 -31 -90 -54c0 -18 13 -26 30 -26s23 2 40 10l45 -90c-17 -21 -67 -40 -120 -40c-78 0 -145 29 -145 95c0 51 41 85 97 105h-388z" />
    <glyph glyph-name="eogonek" unicode="&#x119;" horiz-adv-x="558" 
d="M428 184l87 -88c-24 -30 -51 -53 -80 -70c-36 -33 -62 -62 -62 -80s13 -26 30 -26s23 2 40 10l45 -90c-17 -21 -67 -40 -120 -40c-78 0 -145 29 -145 95c0 45 36 72 85 97h-7c-168 0 -281 105 -281 269c0 152 94 270 270 270c142 0 248 -94 248 -239c0 -16 -2 -45 -8 -84
h-358c14 -57 67 -81 131 -81c49 0 94 19 125 57zM285 401c-55 0 -92 -22 -110 -68h213c-13 49 -50 68 -103 68z" />
    <glyph glyph-name="Ecaron" unicode="&#x11a;" horiz-adv-x="649" 
d="M65 0v700h535v-145h-380v-130h355v-140h-355v-140h389v-145h-544zM335 743l-184 117l58 85l128 -76l128 76l52 -83l-178 -119h-4z" />
    <glyph glyph-name="ecaron" unicode="&#x11b;" horiz-adv-x="558" 
d="M438 184l87 -88c-56 -70 -137 -104 -224 -104c-168 0 -281 105 -281 269c0 152 94 270 270 270c142 0 248 -94 248 -239c0 -16 -2 -45 -8 -84h-358c14 -57 67 -81 131 -81c49 0 104 19 135 57zM285 401c-55 0 -92 -22 -110 -68h213c-13 49 -50 68 -103 68zM277 598
l-165 136l70 88l98 -81l100 79l67 -87l-166 -135h-4z" />
    <glyph glyph-name="Gcircumflex" unicode="&#x11c;" horiz-adv-x="731" 
d="M365 252v140h326v-283c-68 -75 -170 -121 -282 -121c-220 0 -379 145 -379 362c0 200 146 362 362 362c120 0 234 -50 283 -126l-107 -96c-40 45 -98 72 -170 72c-127 0 -207 -80 -207 -212c0 -137 92 -212 219 -212c46 0 95 13 132 40v74h-177zM375 945l184 -117
l-58 -85l-128 66l-128 -66l-52 83l178 119h4z" />
    <glyph glyph-name="gcircumflex" unicode="&#x11d;" horiz-adv-x="579" 
d="M534 520v-475c0 -173 -93 -254 -247 -254c-122 0 -208 53 -242 143l127 53c17 -32 51 -61 101 -61c84 0 116 35 116 90v23c-17 -25 -53 -47 -117 -47c-146 0 -252 92 -252 269c0 169 123 266 252 266c64 0 93 -11 117 -28v21h145zM297 127c46 0 80 27 92 58v173
c-17 21 -45 34 -93 34c-69 0 -126 -44 -126 -133c0 -86 48 -132 127 -132zM300 796l165 -136l-70 -88l-98 81l-100 -79l-67 87l166 135h4z" />
    <glyph glyph-name="Gbreve" unicode="&#x11e;" horiz-adv-x="731" 
d="M365 252v140h326v-283c-68 -75 -170 -121 -282 -121c-220 0 -379 145 -379 362c0 200 146 362 362 362c120 0 234 -50 283 -126l-107 -96c-40 45 -98 72 -170 72c-127 0 -207 -80 -207 -212c0 -137 92 -212 219 -212c46 0 95 13 132 40v74h-177zM193 863l64 77
c26 -27 67 -60 143 -60c66 0 113 30 140 60l55 -78c-35 -59 -111 -112 -195 -112c-95 0 -174 59 -207 113z" />
    <glyph glyph-name="gbreve" unicode="&#x11f;" horiz-adv-x="579" 
d="M534 520v-475c0 -173 -93 -254 -247 -254c-122 0 -208 53 -242 143l127 53c17 -32 51 -61 101 -61c84 0 116 35 116 90v23c-17 -25 -53 -47 -117 -47c-146 0 -252 92 -252 269c0 169 123 266 252 266c64 0 93 -11 117 -28v21h145zM297 127c46 0 80 27 92 58v173
c-17 21 -45 34 -93 34c-69 0 -126 -44 -126 -133c0 -86 48 -132 127 -132zM121 707l66 75c21 -23 52 -52 105 -52c49 0 90 26 110 50l51 -72c-28 -42 -73 -98 -167 -98c-92 0 -146 64 -165 97z" />
    <glyph glyph-name="Gdotaccent" unicode="&#x120;" horiz-adv-x="731" 
d="M365 252v140h326v-283c-68 -75 -170 -121 -282 -121c-220 0 -379 145 -379 362c0 200 146 362 362 362c120 0 234 -50 283 -126l-107 -96c-40 45 -98 72 -170 72c-127 0 -207 -80 -207 -212c0 -137 92 -212 219 -212c46 0 95 13 132 40v74h-177zM300 828
c0 41 34 72 82 72c47 0 81 -31 81 -72c0 -43 -34 -74 -81 -74c-51 0 -82 31 -82 74z" />
    <glyph glyph-name="gdotaccent" unicode="&#x121;" horiz-adv-x="579" 
d="M534 520v-475c0 -173 -93 -254 -247 -254c-122 0 -208 53 -242 143l127 53c17 -32 51 -61 101 -61c84 0 116 35 116 90v23c-17 -25 -53 -47 -117 -47c-146 0 -252 92 -252 269c0 169 123 266 252 266c64 0 93 -11 117 -28v21h145zM297 127c46 0 80 27 92 58v173
c-17 21 -45 34 -93 34c-69 0 -126 -44 -126 -133c0 -86 48 -132 127 -132zM215 658c0 41 34 72 82 72c47 0 81 -31 81 -72c0 -43 -34 -74 -81 -74c-51 0 -82 31 -82 74z" />
    <glyph glyph-name="Gcommaaccent" unicode="&#x122;" horiz-adv-x="731" 
d="M365 252v140h326v-283c-68 -75 -170 -121 -282 -121c-220 0 -379 145 -379 362c0 200 146 362 362 362c120 0 234 -50 283 -126l-107 -96c-40 45 -98 72 -170 72c-127 0 -207 -80 -207 -212c0 -137 92 -212 219 -212c46 0 95 13 132 40v74h-177zM317 -109l121 78
c30 -22 52 -54 52 -94c0 -87 -58 -144 -104 -171l-69 50c21 22 32 48 32 75c0 25 -16 44 -32 62z" />
    <glyph glyph-name="gcommaaccent" unicode="&#x123;" horiz-adv-x="579" 
d="M395 632l-121 -78c-30 22 -52 54 -52 94c0 87 58 144 104 171l69 -50c-21 -22 -32 -48 -32 -75c0 -25 16 -44 32 -62zM534 520v-475c0 -173 -93 -254 -247 -254c-122 0 -208 53 -242 143l127 53c17 -32 51 -61 101 -61c84 0 116 35 116 90v23c-17 -25 -53 -47 -117 -47
c-146 0 -252 92 -252 269c0 169 123 266 252 266c64 0 93 -11 117 -28v21h145zM297 127c46 0 80 27 92 58v173c-17 21 -45 34 -93 34c-69 0 -126 -44 -126 -133c0 -86 48 -132 127 -132z" />
    <glyph glyph-name="Hcircumflex" unicode="&#x124;" horiz-adv-x="751" 
d="M531 0v280h-311v-280h-155v700h155v-275h311v275h155v-700h-155zM374 945l184 -117l-58 -85l-128 66l-128 -66l-52 83l178 119h4z" />
    <glyph glyph-name="hcircumflex" unicode="&#x125;" horiz-adv-x="574" 
d="M45 0v730h145v-243c28 25 73 43 138 43c139 0 206 -73 206 -239v-291h-145v284c0 83 -30 111 -99 111c-37 0 -75 -20 -100 -62v-333h-145zM125 945l184 -117l-58 -85l-128 66l-128 -66l-52 83l178 119h4z" />
    <glyph glyph-name="Hbar" unicode="&#x126;" horiz-adv-x="751" 
d="M0 502v120h65v78h155v-78h311v78h155v-78h65v-120h-65v-502h-155v280h-311v-280h-155v502h-65zM220 425h311v77h-311v-77z" />
    <glyph glyph-name="hbar" unicode="&#x127;" horiz-adv-x="574" 
d="M0 550v130h45v50h145v-50h114v-130h-114v-63c28 25 73 43 121 43c144 0 223 -73 223 -239v-291h-145v284c0 83 -30 111 -99 111c-37 0 -75 -20 -100 -62v-333h-145v550h-45z" />
    <glyph glyph-name="Imacron" unicode="&#x12a;" horiz-adv-x="295" 
d="M70 0v700h155v-700h-155zM-9 770v120h314v-120h-314z" />
    <glyph glyph-name="imacron" unicode="&#x12b;" horiz-adv-x="263" 
d="M59 0v520h145v-520h-145zM-15 610v120h294v-120h-294z" />
    <glyph glyph-name="Iogonek" unicode="&#x12e;" horiz-adv-x="295" 
d="M70 0v700h155v-700h-2c-58 0 -99 -30 -99 -54c0 -18 13 -26 30 -26s23 2 40 10l45 -90c-17 -21 -67 -40 -120 -40c-78 0 -145 29 -145 95c0 51 41 85 97 105h-1z" />
    <glyph glyph-name="iogonek" unicode="&#x12f;" horiz-adv-x="263" 
d="M172 -70l45 -90c-17 -21 -67 -40 -120 -40c-78 0 -145 29 -145 95c0 54 47 89 107 108v517h145v-520h-3c-58 0 -99 -30 -99 -54c0 -18 13 -26 30 -26s23 2 40 10zM50 658c0 41 34 72 82 72c47 0 81 -31 81 -72c0 -43 -34 -74 -81 -74c-51 0 -82 31 -82 74z" />
    <glyph glyph-name="Idotaccent" unicode="&#x130;" horiz-adv-x="295" 
d="M70 0v700h155v-700h-155zM67 828c0 41 34 72 82 72c47 0 81 -31 81 -72c0 -43 -34 -74 -81 -74c-51 0 -82 31 -82 74z" />
    <glyph glyph-name="dotlessi" unicode="&#x131;" horiz-adv-x="263" 
d="M59 0v520h145v-520h-145z" />
    <glyph glyph-name="Jcircumflex" unicode="&#x134;" horiz-adv-x="486" 
d="M426 700v-481c0 -150 -84 -231 -212 -231c-122 0 -190 64 -224 134l113 87c24 -49 56 -76 97 -76c52 0 71 39 71 116v451h155zM338 945l184 -117l-58 -85l-128 66l-128 -66l-52 83l178 119h4z" />
    <glyph glyph-name="jcircumflex" unicode="&#x135;" horiz-adv-x="263" 
d="M206 520v-518c0 -132 -58 -211 -183 -211c-82 0 -150 29 -187 120l127 49c10 -20 23 -34 47 -34c33 0 51 22 51 79v515h145zM134 796l165 -136l-70 -88l-98 81l-100 -79l-67 87l166 135h4z" />
    <glyph glyph-name="Kcommaaccent" unicode="&#x136;" horiz-adv-x="701" 
d="M65 0v700h155v-273l269 273h202l-304 -310l324 -390h-204l-237 286l-50 -51v-235h-155zM237 -109l121 78c30 -22 52 -54 52 -94c0 -87 -58 -144 -104 -171l-69 50c21 22 32 48 32 75c0 25 -16 44 -32 62z" />
    <glyph glyph-name="kcommaaccent" unicode="&#x137;" horiz-adv-x="532" 
d="M45 0v730h145v-386l164 176h186l-223 -227l230 -293h-184l-155 196l-18 -12v-184h-145zM160 -109l121 78c30 -22 52 -54 52 -94c0 -87 -58 -144 -104 -171l-69 50c21 22 32 48 32 75c0 25 -16 44 -32 62z" />
    <glyph glyph-name="Lacute" unicode="&#x139;" horiz-adv-x="608" 
d="M65 0v700h155v-555h378v-145h-533zM507 846l-240 -113l-57 99l228 142z" />
    <glyph glyph-name="lacute" unicode="&#x13a;" horiz-adv-x="235" 
d="M45 0v730h145v-730h-145zM342 866l-240 -113l-57 99l228 142z" />
    <glyph glyph-name="Lcommaaccent" unicode="&#x13b;" horiz-adv-x="608" 
d="M65 0v700h155v-555h378v-145h-533zM247 -109l121 78c30 -22 52 -54 52 -94c0 -87 -58 -144 -104 -171l-69 50c21 22 32 48 32 75c0 25 -16 44 -32 62z" />
    <glyph glyph-name="lcommaaccent" unicode="&#x13c;" horiz-adv-x="235" 
d="M45 0v730h145v-730h-145zM31 -109l121 78c30 -22 52 -54 52 -94c0 -87 -58 -144 -104 -171l-69 50c21 22 32 48 32 75c0 25 -16 44 -32 62z" />
    <glyph glyph-name="Lcaron" unicode="&#x13d;" horiz-adv-x="608" 
d="M65 0v700h155v-555h378v-145h-533zM368 701h154c10 -16 14 -44 14 -70c0 -82 -64 -149 -123 -185l-63 55c35 35 44 79 44 106c0 38 -11 74 -26 94z" />
    <glyph glyph-name="lcaron" unicode="&#x13e;" horiz-adv-x="282" 
d="M45 0v730h145v-730h-145zM233 731h154c10 -16 14 -44 14 -70c0 -82 -64 -149 -123 -185l-63 55c35 35 44 79 44 106c0 38 -11 74 -26 94z" />
    <glyph glyph-name="Ldot" unicode="&#x13f;" horiz-adv-x="608" 
d="M65 0v700h155v-555h378v-145h-533zM350 398c0 36 34 74 86 74c47 0 83 -38 83 -74c0 -41 -36 -77 -83 -77c-52 0 -86 36 -86 77z" />
    <glyph glyph-name="ldot" unicode="&#x140;" horiz-adv-x="352" 
d="M45 0v730h145v-730h-145zM210 345c0 36 34 74 86 74c47 0 83 -38 83 -74c0 -41 -36 -77 -83 -77c-52 0 -86 36 -86 77z" />
    <glyph glyph-name="Lslash" unicode="&#x141;" 
d="M0 109v156l79 57v378h155v-266l182 131v-156l-182 -131v-133h378v-145h-533v166z" />
    <glyph glyph-name="lslash" unicode="&#x142;" horiz-adv-x="336" 
d="M0 142v156l93 67v365h145v-260l98 71v-156l-98 -71v-314h-145v209z" />
    <glyph glyph-name="Nacute" unicode="&#x143;" horiz-adv-x="740" 
d="M675 0h-120l-339 415v-415h-151v700h119l340 -416v416h151v-700zM577 846l-240 -113l-57 99l228 142z" />
    <glyph glyph-name="nacute" unicode="&#x144;" horiz-adv-x="577" 
d="M45 0v520h145v-37c23 28 72 47 142 47c133 0 205 -71 205 -238v-292h-145v283c0 84 -33 112 -102 112c-47 0 -82 -25 -100 -69v-326h-145zM427 751l-132 -164l-100 70l123 176z" />
    <glyph glyph-name="Ncommaaccent" unicode="&#x145;" horiz-adv-x="740" 
d="M675 0h-120l-339 415v-415h-151v700h119l340 -416v416h151v-700zM297 -109l121 78c30 -22 52 -54 52 -94c0 -87 -58 -144 -104 -171l-69 50c21 22 32 48 32 75c0 25 -16 44 -32 62z" />
    <glyph glyph-name="ncommaaccent" unicode="&#x146;" horiz-adv-x="577" 
d="M45 0v520h145v-37c23 28 72 47 142 47c133 0 205 -71 205 -238v-292h-145v283c0 84 -33 112 -102 112c-47 0 -82 -25 -100 -69v-326h-145zM195 -109l121 78c30 -22 52 -54 52 -94c0 -87 -58 -144 -104 -171l-69 50c21 22 32 48 32 75c0 25 -16 44 -32 62z" />
    <glyph glyph-name="Ncaron" unicode="&#x147;" horiz-adv-x="740" 
d="M675 0h-120l-339 415v-415h-151v700h119l340 -416v416h151v-700zM371 743l-184 117l58 85l128 -76l128 76l52 -83l-178 -119h-4z" />
    <glyph glyph-name="ncaron" unicode="&#x148;" horiz-adv-x="577" 
d="M45 0v520h145v-37c23 28 72 47 142 47c133 0 205 -71 205 -238v-292h-145v283c0 84 -33 112 -102 112c-47 0 -82 -25 -100 -69v-326h-145zM289 598l-165 136l70 88l98 -81l100 79l67 -87l-166 -135h-4z" />
    <glyph glyph-name="Omacron" unicode="&#x14c;" horiz-adv-x="781" 
d="M30 350c0 202 158 362 361 362c200 0 360 -154 360 -362c0 -206 -160 -362 -360 -362s-361 154 -361 362zM191 350c0 -130 94 -212 200 -212c110 0 199 82 199 212s-97 212 -199 212c-106 0 -200 -82 -200 -212zM233 770v120h314v-120h-314z" />
    <glyph glyph-name="omacron" unicode="&#x14d;" horiz-adv-x="604" 
d="M20 261c0 157 115 270 281 270s283 -113 283 -270c0 -156 -117 -269 -283 -269c-161 0 -281 113 -281 269zM170 261c0 -76 53 -134 131 -134c79 0 133 50 133 134c0 86 -60 135 -133 135s-131 -49 -131 -135zM155 610v120h294v-120h-294z" />
    <glyph glyph-name="Ohungarumlaut" unicode="&#x150;" horiz-adv-x="781" 
d="M30 350c0 202 158 362 361 362c200 0 360 -154 360 -362c0 -206 -160 -362 -360 -362s-361 154 -361 362zM191 350c0 -130 94 -212 200 -212c110 0 199 82 199 212s-97 212 -199 212c-106 0 -200 -82 -200 -212zM680 841l-204 -113l-61 63l159 144zM460 870l-167 -142
l-64 58l101 149z" />
    <glyph glyph-name="ohungarumlaut" unicode="&#x151;" horiz-adv-x="604" 
d="M20 261c0 157 115 270 281 270s283 -113 283 -270c0 -156 -117 -269 -283 -269c-161 0 -281 113 -281 269zM170 261c0 -76 53 -134 131 -134c79 0 133 50 133 134c0 86 -60 135 -133 135s-131 -49 -131 -135zM541 741l-142 -154l-76 57l125 169zM365 757l-125 -170
l-77 58l109 178z" />
    <glyph glyph-name="OE" unicode="&#x152;" horiz-adv-x="1130" 
d="M546 0v33c-46 -26 -99 -41 -155 -41c-200 0 -361 150 -361 358c0 202 158 358 361 358c57 0 109 -13 155 -39v31h535v-145h-380v-130h355v-140h-355v-140h389v-145h-544zM391 142c62 0 118 25 155 70v272c-38 48 -96 74 -155 74c-106 0 -200 -78 -200 -208
s94 -208 200 -208z" />
    <glyph glyph-name="oe" unicode="&#x153;" horiz-adv-x="932" 
d="M802 184l87 -88c-56 -70 -127 -104 -214 -104c-76 0 -141 21 -189 60c-48 -38 -112 -60 -185 -60c-161 0 -281 113 -281 269c0 157 115 270 281 270c72 0 135 -21 183 -58c45 36 105 58 180 58c142 0 248 -94 248 -239c0 -16 -2 -45 -8 -84h-358c14 -57 67 -81 131 -81
c49 0 94 19 125 57zM312 127c37 0 73 13 97 36c-10 29 -15 62 -15 98c0 33 4 65 13 94c-25 28 -64 41 -106 41c-73 0 -131 -49 -131 -135c0 -76 53 -134 142 -134zM659 401c-55 0 -92 -22 -110 -68h213c-13 49 -50 68 -103 68z" />
    <glyph glyph-name="Racute" unicode="&#x154;" horiz-adv-x="689" 
d="M220 0h-155v700h283c223 0 283 -112 283 -228c0 -90 -53 -172 -137 -205l195 -267h-187l-171 239h-111v-239zM345 555h-125v-171h131c76 0 119 32 119 88c0 50 -26 83 -125 83zM517 846l-240 -113l-57 99l228 142z" />
    <glyph glyph-name="racute" unicode="&#x155;" horiz-adv-x="362" 
d="M45 0v520h145v-21c11 15 46 31 80 31c55 0 79 -16 102 -45l-74 -116c-7 13 -28 21 -47 21c-23 0 -49 -10 -61 -54v-336h-145zM322 751l-132 -164l-100 70l123 176z" />
    <glyph glyph-name="Rcommaaccent" unicode="&#x156;" horiz-adv-x="689" 
d="M220 0h-155v700h283c223 0 283 -112 283 -228c0 -90 -53 -172 -137 -205l195 -267h-187l-171 239h-111v-239zM345 555h-125v-171h131c76 0 119 32 119 88c0 50 -26 83 -125 83zM247 -109l121 78c30 -22 52 -54 52 -94c0 -87 -58 -144 -104 -171l-69 50c21 22 32 48 32 75
c0 25 -16 44 -32 62z" />
    <glyph glyph-name="rcommaaccent" unicode="&#x157;" horiz-adv-x="362" 
d="M45 0v520h145v-21c11 15 46 31 80 31c55 0 79 -16 102 -45l-74 -116c-7 13 -28 21 -47 21c-23 0 -49 -10 -61 -54v-336h-145zM60 -109l121 78c30 -22 52 -54 52 -94c0 -87 -58 -144 -104 -171l-69 50c21 22 32 48 32 75c0 25 -16 44 -32 62z" />
    <glyph glyph-name="Rcaron" unicode="&#x158;" horiz-adv-x="689" 
d="M220 0h-155v700h283c223 0 283 -112 283 -228c0 -90 -53 -172 -137 -205l195 -267h-187l-171 239h-111v-239zM345 555h-125v-171h131c76 0 119 32 119 88c0 50 -26 83 -125 83zM315 743l-184 117l58 85l128 -76l128 76l52 -83l-178 -119h-4z" />
    <glyph glyph-name="rcaron" unicode="&#x159;" horiz-adv-x="362" 
d="M45 0v520h145v-21c11 15 46 31 80 31c55 0 79 -16 102 -45l-74 -116c-7 13 -28 21 -47 21c-23 0 -49 -10 -61 -54v-336h-145zM184 598l-165 136l70 88l98 -81l100 79l67 -87l-166 -135h-4z" />
    <glyph glyph-name="Sacute" unicode="&#x15a;" horiz-adv-x="619" 
d="M429 194c0 122 -390 55 -390 309c0 111 105 213 271 213c119 0 214 -49 274 -129l-104 -100c-40 44 -98 84 -176 84c-72 0 -105 -26 -105 -66c0 -107 390 -46 390 -299c0 -127 -114 -222 -265 -222c-169 0 -276 80 -324 171l113 94c46 -74 121 -120 207 -120
c78 0 109 30 109 65zM543 846l-240 -113l-57 99l228 142z" />
    <glyph glyph-name="sacute" unicode="&#x15b;" horiz-adv-x="496" 
d="M331 155c0 51 -295 38 -295 215c0 100 83 161 224 161c99 0 183 -46 216 -94l-99 -95c-34 35 -81 54 -146 54c-27 0 -45 -6 -45 -25c0 -45 295 -31 295 -215c0 -114 -102 -164 -220 -164c-127 0 -212 58 -249 126l115 78c28 -36 86 -69 150 -69c35 0 54 9 54 28zM394 751
l-132 -164l-100 70l123 176z" />
    <glyph glyph-name="Scircumflex" unicode="&#x15c;" horiz-adv-x="619" 
d="M429 194c0 122 -390 55 -390 309c0 111 105 213 271 213c119 0 214 -49 274 -129l-104 -100c-40 44 -98 84 -176 84c-72 0 -105 -26 -105 -66c0 -107 390 -46 390 -299c0 -127 -114 -222 -265 -222c-169 0 -276 80 -324 171l113 94c46 -74 121 -120 207 -120
c78 0 109 30 109 65zM333 945l184 -117l-58 -85l-128 66l-128 -66l-52 83l178 119h4z" />
    <glyph glyph-name="scircumflex" unicode="&#x15d;" horiz-adv-x="496" 
d="M331 155c0 51 -295 38 -295 215c0 100 83 161 224 161c99 0 183 -46 216 -94l-99 -95c-34 35 -81 54 -146 54c-27 0 -45 -6 -45 -25c0 -45 295 -31 295 -215c0 -114 -102 -164 -220 -164c-127 0 -212 58 -249 126l115 78c28 -36 86 -69 150 -69c35 0 54 9 54 28zM261 796
l165 -136l-70 -88l-98 81l-100 -79l-67 87l166 135h4z" />
    <glyph glyph-name="Scedilla" unicode="&#x15e;" horiz-adv-x="599" 
d="M140 -157l54 65c14 -14 42 -28 81 -28c18 0 29 4 29 13c0 12 -16 17 -45 17h-6v86c-109 14 -212 75 -253 141l93 112c58 -71 139 -112 225 -112c60 0 91 22 91 57c0 116 -390 55 -390 309c0 111 105 205 271 205c119 0 214 -41 274 -121l-104 -100c-40 44 -98 76 -176 76
c-56 0 -105 -18 -105 -58c0 -107 390 -59 390 -299c0 -120 -102 -205 -241 -213v-19c81 -5 116 -36 116 -90c0 -55 -38 -94 -139 -94c-98 0 -140 29 -165 53z" />
    <glyph glyph-name="scedilla" unicode="&#x15f;" horiz-adv-x="496" 
d="M116 -161l44 69c14 -14 42 -28 81 -28c18 0 29 4 29 13c0 12 -16 17 -45 17h-6v84c-104 11 -174 64 -207 124l115 78c28 -36 86 -69 150 -69c35 0 54 9 54 28c0 51 -295 38 -295 215c0 100 83 161 224 161c99 0 183 -46 216 -94l-99 -95c-34 35 -81 54 -146 54
c-27 0 -45 -6 -45 -25c0 -45 295 -31 295 -215c0 -104 -84 -154 -187 -162v-20c67 -6 106 -36 106 -90c0 -55 -50 -94 -151 -94c-76 0 -112 30 -133 49z" />
    <glyph glyph-name="Scaron" unicode="&#x160;" horiz-adv-x="619" 
d="M429 194c0 122 -390 55 -390 309c0 111 105 213 271 213c119 0 214 -49 274 -129l-104 -100c-40 44 -98 84 -176 84c-72 0 -105 -26 -105 -66c0 -107 390 -46 390 -299c0 -127 -114 -222 -265 -222c-169 0 -276 80 -324 171l113 94c46 -74 121 -120 207 -120
c78 0 109 30 109 65zM325 743l-184 117l58 85l128 -76l128 76l52 -83l-178 -119h-4z" />
    <glyph glyph-name="scaron" unicode="&#x161;" horiz-adv-x="496" 
d="M331 155c0 51 -295 38 -295 215c0 100 83 161 224 161c99 0 183 -46 216 -94l-99 -95c-34 35 -81 54 -146 54c-27 0 -45 -6 -45 -25c0 -45 295 -31 295 -215c0 -114 -102 -164 -220 -164c-127 0 -212 58 -249 126l115 78c28 -36 86 -69 150 -69c35 0 54 9 54 28zM246 598
l-165 136l70 88l98 -81l100 79l67 -87l-166 -135h-4z" />
    <glyph glyph-name="Tcedilla" unicode="&#x162;" horiz-adv-x="604" 
d="M0 555v145h604v-145h-225v-555h-40v-26c81 -5 116 -36 116 -90c0 -55 -38 -94 -139 -94c-98 0 -140 29 -165 53l54 65c14 -14 42 -28 81 -28c18 0 29 4 29 13c0 12 -16 17 -45 17h-6v90h-40v555h-224z" />
    <glyph glyph-name="tcedilla" unicode="&#x163;" horiz-adv-x="426" 
d="M111 -161l44 69c14 -14 42 -28 81 -28c18 0 29 4 29 13c0 12 -16 17 -45 17h-6v88c-76 15 -130 73 -130 175v212h-79v135h79v101h145v-101h159v-135h-159v-169c0 -63 14 -87 46 -87c27 0 46 20 65 44l88 -80c-26 -49 -77 -87 -139 -96v-23c67 -6 106 -36 106 -90
c0 -55 -50 -94 -151 -94c-76 0 -112 30 -133 49z" />
    <glyph glyph-name="Tcaron" unicode="&#x164;" horiz-adv-x="604" 
d="M0 555v145h604v-145h-225v-555h-155v555h-224zM303 743l-184 117l58 85l128 -76l128 76l52 -83l-178 -119h-4z" />
    <glyph glyph-name="tcaron" unicode="&#x165;" horiz-adv-x="426" 
d="M5 385v135h81v101h143v-405c0 -63 14 -87 46 -87c27 0 46 20 65 44l88 -80c-30 -57 -95 -99 -173 -99c-96 0 -169 59 -169 179v212h-81zM288 701h154c10 -16 14 -44 14 -70c0 -82 -64 -149 -123 -185l-63 55c35 35 44 79 44 106c0 38 -11 74 -26 94z" />
    <glyph glyph-name="Umacron" unicode="&#x16a;" horiz-adv-x="720" 
d="M665 700v-400c0 -219 -149 -307 -297 -307c-167 0 -313 105 -313 313v394h155v-376c0 -110 54 -186 158 -186c101 0 142 71 142 182v380h155zM203 770v120h314v-120h-314z" />
    <glyph glyph-name="umacron" unicode="&#x16b;" horiz-adv-x="570" 
d="M525 523v-523h-145v34c-27 -21 -67 -42 -122 -42c-146 0 -218 73 -218 234v297h145v-286c0 -62 18 -110 88 -110c49 0 81 20 107 64v332h145zM136 610v120h294v-120h-294z" />
    <glyph glyph-name="Ubreve" unicode="&#x16c;" horiz-adv-x="720" 
d="M665 700v-400c0 -219 -149 -307 -297 -307c-167 0 -313 105 -313 313v394h155v-376c0 -110 54 -186 158 -186c101 0 142 71 142 182v380h155zM159 863l64 77c26 -27 67 -60 143 -60c66 0 113 30 140 60l55 -78c-35 -59 -111 -112 -195 -112c-95 0 -174 59 -207 113z" />
    <glyph glyph-name="ubreve" unicode="&#x16d;" horiz-adv-x="570" 
d="M525 523v-523h-145v34c-27 -21 -67 -42 -122 -42c-146 0 -218 73 -218 234v297h145v-286c0 -62 18 -110 88 -110c49 0 81 20 107 64v332h145zM117 707l66 75c21 -23 52 -52 105 -52c49 0 90 26 110 50l51 -72c-28 -42 -73 -98 -167 -98c-92 0 -146 64 -165 97z" />
    <glyph glyph-name="Uring" unicode="&#x16e;" horiz-adv-x="720" 
d="M665 700v-400c0 -219 -149 -307 -297 -307c-167 0 -313 105 -313 313v394h155v-376c0 -110 54 -186 158 -186c101 0 142 71 142 182v380h155zM203 849c0 83 70 118 155 118c89 0 160 -35 160 -118c0 -81 -71 -121 -160 -121c-85 0 -155 40 -155 121zM313 849
c0 -28 20 -41 47 -41s48 13 48 41c0 27 -21 38 -48 38s-47 -11 -47 -38z" />
    <glyph glyph-name="uring" unicode="&#x16f;" horiz-adv-x="570" 
d="M525 523v-523h-145v34c-27 -21 -67 -42 -122 -42c-146 0 -218 73 -218 234v297h145v-286c0 -62 18 -110 88 -110c49 0 81 20 107 64v332h145zM145 701c0 71 57 129 137 129c81 0 139 -58 139 -129c0 -70 -58 -127 -139 -127c-80 0 -137 57 -137 127zM240 703
c0 -27 17 -44 44 -44c26 0 42 17 42 44c0 26 -16 42 -42 42c-27 0 -44 -16 -44 -42z" />
    <glyph glyph-name="Uhungarumlaut" unicode="&#x170;" horiz-adv-x="720" 
d="M665 700v-400c0 -219 -149 -307 -297 -307c-167 0 -313 105 -313 313v394h155v-376c0 -110 54 -186 158 -186c101 0 142 71 142 182v380h155zM640 841l-204 -113l-61 63l159 144zM420 870l-167 -142l-64 58l101 149z" />
    <glyph glyph-name="uhungarumlaut" unicode="&#x171;" horiz-adv-x="570" 
d="M525 523v-523h-145v34c-27 -21 -67 -42 -122 -42c-146 0 -218 73 -218 234v297h145v-286c0 -62 18 -110 88 -110c49 0 81 20 107 64v332h145zM512 741l-142 -154l-76 57l125 169zM336 757l-125 -170l-77 58l109 178z" />
    <glyph glyph-name="Uogonek" unicode="&#x172;" horiz-adv-x="720" 
d="M665 700v-400c0 -171 -91 -263 -202 -294c-12 -14 -18 -29 -18 -46c0 -32 13 -40 30 -40s23 2 40 10l45 -90c-17 -21 -67 -40 -120 -40c-78 0 -145 29 -145 95c0 41 30 72 72 98c-167 1 -312 105 -312 313v394h155v-376c0 -100 54 -186 158 -186c101 0 142 83 142 182
v380h155z" />
    <glyph glyph-name="uogonek" unicode="&#x173;" horiz-adv-x="570" 
d="M494 -70l45 -90c-17 -21 -67 -40 -120 -40c-78 0 -145 29 -145 95c0 54 45 89 106 108v31c-27 -21 -67 -42 -122 -42c-146 0 -218 73 -218 234v297h145v-286c0 -62 18 -110 88 -110c49 0 81 20 107 64v332h145v-523h-11c-53 -3 -90 -31 -90 -54c0 -18 13 -26 30 -26
s23 2 40 10z" />
    <glyph glyph-name="Ydieresis" unicode="&#x178;" horiz-adv-x="700" 
d="M710 700l-284 -449v-251h-155v251l-281 449h185l176 -280l180 280h179zM142 831c0 44 37 76 85 76c41 0 83 -32 83 -76c0 -46 -42 -77 -83 -77c-48 0 -85 31 -85 77zM391 831c0 44 40 76 85 76c41 0 82 -30 82 -76s-41 -77 -82 -77c-45 0 -85 31 -85 77z" />
    <glyph glyph-name="Zacute" unicode="&#x179;" horiz-adv-x="635" 
d="M27 555v145h579v-103l-373 -452h382v-145h-605v103l371 452h-354zM507 846l-240 -113l-57 99l228 142z" />
    <glyph glyph-name="zacute" unicode="&#x17a;" horiz-adv-x="514" 
d="M35 385v135h459v-93l-259 -292h254v-135h-469v94l258 291h-243zM403 751l-132 -164l-100 70l123 176z" />
    <glyph glyph-name="Zdotaccent" unicode="&#x17b;" horiz-adv-x="635" 
d="M27 555v145h579v-103l-373 -452h382v-145h-605v103l371 452h-354zM236 828c0 41 34 72 82 72c47 0 81 -31 81 -72c0 -43 -34 -74 -81 -74c-51 0 -82 31 -82 74z" />
    <glyph glyph-name="zdotaccent" unicode="&#x17c;" horiz-adv-x="514" 
d="M35 385v135h459v-93l-259 -292h254v-135h-469v94l258 291h-243zM175 658c0 41 34 72 82 72c47 0 81 -31 81 -72c0 -43 -34 -74 -81 -74c-51 0 -82 31 -82 74z" />
    <glyph glyph-name="Zcaron" unicode="&#x17d;" horiz-adv-x="635" 
d="M27 555v145h579v-103l-373 -452h382v-145h-605v103l371 452h-354zM318 743l-184 117l58 85l128 -76l128 76l52 -83l-178 -119h-4z" />
    <glyph glyph-name="zcaron" unicode="&#x17e;" horiz-adv-x="514" 
d="M35 385v135h459v-93l-259 -292h254v-135h-469v94l258 291h-243zM255 598l-165 136l70 88l98 -81l100 79l67 -87l-166 -135h-4z" />
    <glyph glyph-name="uni018F" unicode="&#x18f;" horiz-adv-x="766" 
d="M25 306c0 46 11 93 23 124h526c-22 81 -94 133 -201 133c-62 0 -148 -21 -203 -89l-102 100c70 93 191 134 311 134c220 0 357 -138 357 -355c0 -208 -133 -361 -365 -361c-239 0 -345 169 -346 314zM576 285h-393c13 -87 72 -148 192 -148c109 0 186 58 201 148z" />
    <glyph glyph-name="florin" unicode="&#x192;" horiz-adv-x="539" 
d="M325 465c0 -1 -1 -2 -1 -4h132v-135h-156l-57 -319c-20 -116 -64 -215 -192 -215c-52 0 -101 21 -135 58l50 112c23 -24 49 -35 75 -35c27 0 46 20 55 68l61 331h-123v135h147l4 26c19 123 75 222 221 222c68 0 104 -17 133 -41l-53 -116c-22 14 -43 22 -72 22
c-53 0 -72 -32 -89 -109z" />
    <glyph glyph-name="uni01DD" unicode="&#x1dd;" horiz-adv-x="558" 
d="M130 339l-87 88c56 70 127 104 237 104c145 0 258 -105 258 -269c0 -152 -94 -270 -270 -270c-142 0 -248 94 -248 239c0 16 2 45 8 84h358c-14 57 -67 81 -110 81c-70 0 -115 -19 -146 -57zM273 122c55 0 92 22 110 68h-213c13 -49 50 -68 103 -68z" />
    <glyph glyph-name="Scommaaccent" unicode="&#x218;" horiz-adv-x="619" 
d="M429 194c0 122 -390 55 -390 309c0 111 105 213 271 213c119 0 214 -49 274 -129l-104 -100c-40 44 -98 84 -176 84c-72 0 -105 -26 -105 -66c0 -107 390 -46 390 -299c0 -127 -114 -222 -265 -222c-169 0 -276 80 -324 171l113 94c46 -74 121 -120 207 -120
c78 0 109 30 109 65zM238 -109l121 78c30 -22 52 -54 52 -94c0 -87 -58 -144 -104 -171l-69 50c21 22 32 48 32 75c0 25 -16 44 -32 62z" />
    <glyph glyph-name="scommaaccent" unicode="&#x219;" horiz-adv-x="496" 
d="M331 155c0 51 -295 38 -295 215c0 100 83 161 224 161c99 0 183 -46 216 -94l-99 -95c-34 35 -81 54 -146 54c-27 0 -45 -6 -45 -25c0 -45 295 -31 295 -215c0 -114 -102 -164 -220 -164c-127 0 -212 58 -249 126l115 78c28 -36 86 -69 150 -69c35 0 54 9 54 28z
M162 -109l121 78c30 -22 52 -54 52 -94c0 -87 -58 -144 -104 -171l-69 50c21 22 32 48 32 75c0 25 -16 44 -32 62z" />
    <glyph glyph-name="Tcommaaccent" unicode="&#x21a;" horiz-adv-x="604" 
d="M0 555v145h604v-145h-225v-555h-155v555h-224zM216 -109l121 78c30 -22 52 -54 52 -94c0 -87 -58 -144 -104 -171l-69 50c21 22 32 48 32 75c0 25 -16 44 -32 62z" />
    <glyph glyph-name="tcommaaccent" unicode="&#x21b;" horiz-adv-x="446" 
d="M5 385v135h99v121h145v-121h159v-135h-159v-169c0 -63 14 -87 53 -87c34 0 61 12 89 34l60 -103c-36 -38 -92 -66 -163 -66c-109 0 -184 59 -184 179v212h-99zM167 -109l121 78c30 -22 52 -54 52 -94c0 -87 -58 -144 -104 -171l-69 50c21 22 32 48 32 75
c0 25 -16 44 -32 62z" />
    <glyph glyph-name="uni0237" unicode="&#x237;" horiz-adv-x="263" 
d="M206 520v-518c0 -132 -58 -211 -183 -211c-82 0 -150 29 -187 120l127 49c10 -20 23 -34 47 -34c33 0 51 22 51 79v515h145z" />
    <glyph glyph-name="uni0259" unicode="&#x259;" horiz-adv-x="558" 
d="M130 339l-87 88c56 70 127 104 237 104c145 0 258 -105 258 -269c0 -152 -94 -270 -270 -270c-142 0 -248 94 -248 239c0 16 2 45 8 84h358c-14 57 -67 81 -110 81c-70 0 -115 -19 -146 -57zM273 122c55 0 92 22 110 68h-213c13 -49 50 -68 103 -68z" />
    <glyph glyph-name="afii57929" unicode="&#x2bc;" horiz-adv-x="216" 
d="M42 665l122 76c38 -31 52 -69 52 -110c0 -82 -64 -149 -123 -185l-63 55c29 27 44 59 44 86c0 30 -17 58 -32 78z" />
    <glyph glyph-name="circumflex" unicode="&#x2c6;" horiz-adv-x="467" 
d="M302 796l165 -136l-70 -88l-98 81l-100 -79l-67 87l166 135h4z" />
    <glyph glyph-name="caron" unicode="&#x2c7;" horiz-adv-x="464" 
d="M294 598l-165 136l70 88l98 -81l100 79l67 -87l-166 -135h-4z" />
    <glyph glyph-name="breve" unicode="&#x2d8;" horiz-adv-x="471" 
d="M139 707l66 75c21 -23 52 -52 105 -52c49 0 90 26 110 50l51 -72c-28 -42 -73 -98 -167 -98c-92 0 -146 64 -165 97z" />
    <glyph glyph-name="dotaccent" unicode="&#x2d9;" horiz-adv-x="250" 
d="M50 658c0 41 34 72 82 72c47 0 81 -31 81 -72c0 -43 -34 -74 -81 -74c-51 0 -82 31 -82 74z" />
    <glyph glyph-name="ring" unicode="&#x2da;" horiz-adv-x="443" 
d="M167 701c0 71 57 129 137 129c81 0 139 -58 139 -129c0 -70 -58 -127 -139 -127c-80 0 -137 57 -137 127zM262 703c0 -27 17 -44 44 -44c26 0 42 17 42 44c0 26 -16 42 -42 42c-27 0 -44 -16 -44 -42z" />
    <glyph glyph-name="ogonek" unicode="&#x2db;" horiz-adv-x="395" 
d="M350 -70l45 -90c-17 -21 -67 -40 -120 -40c-78 0 -145 29 -145 95c0 93 137 129 249 128v-23c-58 0 -99 -30 -99 -54c0 -18 13 -26 30 -26s23 2 40 10z" />
    <glyph glyph-name="tilde" unicode="&#x2dc;" horiz-adv-x="470" 
d="M165 599l-60 67c38 54 88 78 132 78c47 0 77 -39 118 -39c33 0 47 10 66 27l49 -75c-36 -43 -83 -72 -127 -72s-74 39 -119 39c-20 0 -44 -13 -59 -25z" />
    <glyph glyph-name="hungarumlaut" unicode="&#x2dd;" horiz-adv-x="544" 
d="M544 741l-142 -154l-76 57l125 169zM368 757l-125 -170l-77 58l109 178z" />
    <glyph glyph-name="gravecomb" unicode="&#x300;" horiz-adv-x="0" 
d="M-269 587l-147 160l114 86l119 -177z" />
    <glyph glyph-name="acutecomb" unicode="&#x301;" horiz-adv-x="0" 
d="M-134 751l-132 -164l-100 70l123 176z" />
    <glyph glyph-name="uni0394" unicode="&#x394;" horiz-adv-x="733" 
d="M10 0l303 707h101l309 -707h-713zM364 455l-139 -325h281c-53 121 -80 181 -142 325z" />
    <glyph glyph-name="uni0394" unicode="&#x2206;" horiz-adv-x="733" 
d="M10 0l303 707h101l309 -707h-713zM364 455l-139 -325h281c-53 121 -80 181 -142 325z" />
    <glyph glyph-name="uni03A9" unicode="&#x3a9;" horiz-adv-x="829" 
d="M40 0v150h120c-32 14 -97 111 -97 240c0 203 151 322 352 322c207 0 352 -119 352 -322c0 -141 -72 -221 -105 -240h127v-150h-341v150c91 31 159 127 159 225c0 87 -65 187 -192 187c-135 0 -192 -90 -192 -190c0 -98 69 -195 158 -222v-150h-341z" />
    <glyph glyph-name="uni03A9" unicode="&#x2126;" horiz-adv-x="829" 
d="M40 0v150h120c-32 14 -97 111 -97 240c0 203 151 322 352 322c207 0 352 -119 352 -322c0 -141 -72 -221 -105 -240h127v-150h-341v150c91 31 159 127 159 225c0 87 -65 187 -192 187c-135 0 -192 -90 -192 -190c0 -98 69 -195 158 -222v-150h-341z" />
    <glyph glyph-name="pi" unicode="&#x3c0;" horiz-adv-x="645" 
d="M38 385v135h563v-135h-75v-221c0 -32 11 -43 29 -43c17 0 29 9 45 19l35 -105c-34 -28 -83 -49 -137 -49c-78 0 -117 50 -117 164v235h-112v-60c0 -273 -62 -339 -236 -339l-13 139c60 2 99 16 102 177l1 83h-85z" />
    <glyph glyph-name="afii10023" unicode="&#x401;" horiz-adv-x="649" 
d="M65 0v700h535v-145h-380v-130h355v-140h-355v-140h389v-145h-544zM114 831c0 44 37 76 85 76c41 0 83 -32 83 -76c0 -46 -42 -77 -83 -77c-48 0 -85 31 -85 77zM363 831c0 44 40 76 85 76c41 0 82 -30 82 -76s-41 -77 -82 -77c-45 0 -85 31 -85 77z" />
    <glyph glyph-name="afii10051" unicode="&#x402;" horiz-adv-x="767" 
d="M581 203c0 76 -45 110 -98 110c-50 0 -88 -22 -109 -55v-258h-155v555h-219v145h599v-145h-225v-134c27 20 76 37 137 37c111 0 226 -59 226 -230c0 -169 -109 -237 -206 -237c-64 0 -108 25 -134 63l83 104c13 -13 21 -22 51 -22c32 0 50 28 50 67z" />
    <glyph glyph-name="afii10052" unicode="&#x403;" horiz-adv-x="590" 
d="M65 0v700h525v-145h-370v-555h-155zM517 846l-240 -113l-57 99l228 142z" />
    <glyph glyph-name="afii10053" unicode="&#x404;" horiz-adv-x="690" 
d="M487 429v-145h-299c21 -106 110 -147 202 -147c91 0 139 50 169 96l121 -61c-46 -124 -184 -180 -275 -180c-225 0 -375 141 -375 358c0 207 145 358 368 358c86 0 213 -38 266 -131l-113 -83c-34 44 -88 69 -163 69c-91 0 -169 -44 -197 -134h296z" />
    <glyph glyph-name="afii10054" unicode="&#x405;" horiz-adv-x="619" 
d="M429 194c0 122 -390 55 -390 309c0 111 105 213 271 213c119 0 214 -49 274 -129l-104 -100c-40 44 -98 84 -176 84c-72 0 -105 -26 -105 -66c0 -107 390 -46 390 -299c0 -127 -114 -222 -265 -222c-169 0 -276 80 -324 171l113 94c46 -74 121 -120 207 -120
c78 0 109 30 109 65z" />
    <glyph glyph-name="afii10055" unicode="&#x406;" horiz-adv-x="295" 
d="M70 0v700h155v-700h-155z" />
    <glyph glyph-name="afii10056" unicode="&#x407;" horiz-adv-x="295" 
d="M-25 806c0 41 35 71 81 71c41 0 80 -30 80 -71c0 -43 -39 -72 -80 -72c-46 0 -81 29 -81 72zM159 806c0 41 37 71 82 71c42 0 79 -30 79 -71c0 -43 -37 -72 -79 -72c-45 0 -82 29 -82 72zM70 0v700h155v-700h-155z" />
    <glyph glyph-name="afii10057" unicode="&#x408;" horiz-adv-x="486" 
d="M426 700v-481c0 -150 -84 -231 -212 -231c-122 0 -190 64 -224 134l113 87c24 -49 56 -76 97 -76c52 0 71 39 71 116v451h155z" />
    <glyph glyph-name="afii10058" unicode="&#x409;" horiz-adv-x="1042" 
d="M747 316h-99v-171h95c84 0 128 20 128 91c0 60 -42 80 -124 80zM648 700v-239h101c205 0 283 -87 283 -225c0 -156 -116 -236 -294 -236h-245v550h-205l-4 -81c-21 -434 -111 -472 -252 -472c-12 0 -27 1 -40 3v144c107 -13 138 32 144 477l1 79h511z" />
    <glyph glyph-name="afii10059" unicode="&#x40a;" horiz-adv-x="1038" 
d="M651 444h101c188 0 276 -77 276 -217c0 -157 -109 -227 -286 -227h-246v299h-276v-299h-155v700h155v-256h276v256h155v-256zM751 299h-100v-154h96c83 0 120 18 120 79c0 58 -35 75 -116 75z" />
    <glyph glyph-name="afii10060" unicode="&#x40b;" horiz-adv-x="739" 
d="M0 555v145h599v-145h-225v-130c29 17 67 33 114 33c134 0 221 -69 221 -240v-218h-155v198c0 55 -21 115 -88 115c-33 0 -69 -16 -92 -45v-268h-155v555h-219z" />
    <glyph glyph-name="afii10061" unicode="&#x40c;" horiz-adv-x="701" 
d="M65 0v700h155v-273l269 273h202l-304 -310l324 -390h-204l-237 286l-50 -51v-235h-155zM514 846l-240 -113l-57 99l228 142z" />
    <glyph glyph-name="afii10062" unicode="&#x40e;" horiz-adv-x="728" 
d="M566 700h162l-254 -536c-50 -105 -102 -164 -200 -164c-45 0 -99 18 -141 80l100 91c11 -17 25 -26 43 -26c16 0 34 8 50 42l-326 513h192l213 -348zM188 893h130c9 -38 31 -51 60 -51c28 0 57 15 62 51h130c-5 -93 -101 -164 -186 -164c-122 0 -182 70 -196 164z" />
    <glyph glyph-name="afii10145" unicode="&#x40f;" horiz-adv-x="745" 
d="M65 0v700h155v-555h305v555h155v-700h-233v-137h-150v137h-232z" />
    <glyph glyph-name="afii10017" unicode="&#x410;" horiz-adv-x="721" 
d="M-4 0l307 700h115l307 -700h-162l-57 130h-293l-57 -130h-160zM359 470l-92 -209h182z" />
    <glyph glyph-name="afii10018" unicode="&#x411;" horiz-adv-x="665" 
d="M592 700v-145h-372v-114h176c165 0 244 -80 244 -216c0 -156 -104 -225 -291 -225h-284v700h527zM361 296h-141v-151h135c85 0 124 22 124 79c0 52 -33 72 -118 72z" />
    <glyph glyph-name="afii10019" unicode="&#x412;" horiz-adv-x="678" 
d="M65 0v700h313c183 0 242 -74 242 -179c0 -69 -29 -116 -68 -150c57 -27 91 -76 91 -163c0 -147 -115 -208 -273 -208h-305zM362 287h-142v-142h134c93 0 127 21 127 72c0 49 -31 70 -119 70zM352 555h-132v-128h145c62 0 94 23 94 59c0 46 -22 69 -107 69z" />
    <glyph glyph-name="afii10020" unicode="&#x413;" horiz-adv-x="590" 
d="M65 0v700h525v-145h-370v-555h-155z" />
    <glyph glyph-name="afii10021" unicode="&#x414;" horiz-adv-x="751" 
d="M2 -117v262h76c26 55 73 192 73 471v84h509v-555h81v-262h-145v117h-449v-117h-145zM299 555l-1 -39c-4 -167 -30 -301 -60 -371h267v410h-206z" />
    <glyph glyph-name="afii10022" unicode="&#x415;" horiz-adv-x="649" 
d="M65 0v700h535v-145h-380v-130h355v-140h-355v-140h389v-145h-544z" />
    <glyph glyph-name="afii10024" unicode="&#x416;" horiz-adv-x="990" 
d="M276 360l-280 340h190l232 -277v277h155v-279l229 279h192l-280 -325l278 -375h-184l-215 286l-20 -30v-256h-155l1 255l-19 27l-225 -282h-176z" />
    <glyph glyph-name="afii10025" unicode="&#x417;" horiz-adv-x="655" 
d="M338 -12c-145 0 -261 43 -338 157l123 83c48 -64 114 -95 211 -95c103 0 135 32 135 76c0 53 -50 75 -146 75h-110v145h104c83 0 129 26 129 65c0 58 -70 73 -123 73c-81 0 -132 -25 -178 -77l-120 81c63 86 155 141 307 141c176 0 270 -77 270 -204
c0 -58 -19 -102 -72 -133c82 -33 95 -100 95 -157c0 -144 -117 -230 -287 -230z" />
    <glyph glyph-name="afii10026" unicode="&#x418;" horiz-adv-x="753" 
d="M192 0h-127v700h155v-429l339 429h129v-700h-155v427z" />
    <glyph glyph-name="afii10027" unicode="&#x419;" horiz-adv-x="753" 
d="M192 0h-127v700h155v-429l339 429h129v-700h-155v427zM193 893h130c9 -38 31 -51 60 -51c28 0 57 15 62 51h130c-5 -93 -101 -164 -186 -164c-122 0 -182 70 -196 164z" />
    <glyph glyph-name="afii10028" unicode="&#x41a;" horiz-adv-x="701" 
d="M65 0v700h155v-273l269 273h202l-304 -310l324 -390h-204l-237 286l-50 -51v-235h-155z" />
    <glyph glyph-name="afii10029" unicode="&#x41b;" horiz-adv-x="727" 
d="M507 0v550h-219l-4 -81c-21 -434 -111 -472 -252 -472c-12 0 -27 1 -40 3v144c107 -13 138 32 144 477l1 79h525v-700h-155z" />
    <glyph glyph-name="afii10030" unicode="&#x41c;" horiz-adv-x="851" 
d="M65 0v700h144l224 -335l213 335h140v-700h-155v420l-182 -279h-41l-188 282v-423h-155z" />
    <glyph glyph-name="afii10031" unicode="&#x41d;" horiz-adv-x="751" 
d="M531 0v280h-311v-280h-155v700h155v-275h311v275h155v-700h-155z" />
    <glyph glyph-name="afii10032" unicode="&#x41e;" horiz-adv-x="781" 
d="M30 350c0 202 158 362 361 362c200 0 360 -154 360 -362c0 -206 -160 -362 -360 -362s-361 154 -361 362zM191 350c0 -130 94 -212 200 -212c110 0 199 82 199 212s-97 212 -199 212c-106 0 -200 -82 -200 -212z" />
    <glyph glyph-name="afii10033" unicode="&#x41f;" horiz-adv-x="750" 
d="M530 0v555h-310v-555h-155v700h620v-700h-155z" />
    <glyph glyph-name="afii10034" unicode="&#x420;" horiz-adv-x="677" 
d="M220 0h-155v700h290c238 0 297 -126 297 -241c0 -118 -76 -239 -297 -239h-135v-220zM359 555h-139v-190h133c97 0 138 36 138 95c0 55 -34 95 -132 95z" />
    <glyph glyph-name="afii10035" unicode="&#x421;" horiz-adv-x="696" 
d="M594 231l92 -99c-63 -92 -174 -144 -298 -144c-218 0 -358 145 -358 362c0 200 145 362 362 362c128 0 233 -54 283 -133l-105 -96c-42 52 -110 79 -167 79c-125 0 -212 -82 -212 -212c0 -126 89 -212 210 -212c78 0 145 33 193 93z" />
    <glyph glyph-name="afii10036" unicode="&#x422;" horiz-adv-x="604" 
d="M0 555v145h604v-145h-225v-555h-155v555h-224z" />
    <glyph glyph-name="afii10037" unicode="&#x423;" horiz-adv-x="728" 
d="M566 700h162l-254 -536c-50 -105 -102 -164 -200 -164c-45 0 -99 18 -141 80l100 91c11 -17 25 -26 43 -26c16 0 34 8 50 42l-326 513h192l213 -348z" />
    <glyph glyph-name="afii10038" unicode="&#x424;" horiz-adv-x="899" 
d="M372 -15v81h-4c-209 0 -343 117 -343 294c0 189 130 294 347 294v61h155v-61c200 0 347 -96 347 -294c0 -176 -131 -294 -341 -294h-6v-81h-155zM529 509h-2v-298h6c118 0 181 48 181 149c0 96 -49 149 -185 149zM185 360c0 -77 55 -149 184 -149h3v298
c-136 0 -187 -47 -187 -149z" />
    <glyph glyph-name="afii10039" unicode="&#x425;" horiz-adv-x="707" 
d="M699 700l-253 -345l261 -355h-189l-164 229l-165 -229h-189l262 355l-251 345h187l157 -217l156 217h188z" />
    <glyph glyph-name="afii10040" unicode="&#x426;" horiz-adv-x="749" 
d="M65 0v700h155v-555h283v555h155v-555h81v-262h-144v117h-530z" />
    <glyph glyph-name="afii10041" unicode="&#x427;" horiz-adv-x="709" 
d="M644 700v-700h-155v263c-38 -20 -105 -39 -171 -39c-156 0 -278 68 -278 240v236h156v-138c0 -144 43 -193 143 -193c50 0 110 16 150 42v289h155z" />
    <glyph glyph-name="afii10042" unicode="&#x428;" horiz-adv-x="949" 
d="M65 0v700h155v-555h177v555h155v-555h177v555h155v-700h-819z" />
    <glyph glyph-name="afii10043" unicode="&#x429;" horiz-adv-x="977" 
d="M65 0v700h155v-555h178v555h155v-555h178v555h155v-555h81v-262h-145v117h-757z" />
    <glyph glyph-name="afii10044" unicode="&#x42a;" horiz-adv-x="741" 
d="M0 555v145h308v-232h129c197 0 294 -77 294 -232c0 -163 -113 -236 -303 -236h-275v555h-153zM435 323h-127v-178h124c92 0 138 20 138 91c0 60 -45 87 -135 87z" />
    <glyph glyph-name="afii10045" unicode="&#x42b;" horiz-adv-x="900" 
d="M680 0v700h155v-700h-155zM321 323h-101v-178h99c92 0 138 20 138 91c0 60 -45 87 -136 87zM220 700v-232h104c197 0 294 -93 294 -232c0 -156 -113 -236 -303 -236h-250v700h155z" />
    <glyph glyph-name="afii10046" unicode="&#x42c;" horiz-adv-x="657" 
d="M351 323h-130v-178h127c92 0 138 30 138 91c0 60 -45 87 -135 87zM221 700v-232h132c197 0 294 -80 294 -232c0 -156 -113 -236 -302 -236h-280v700h156z" />
    <glyph glyph-name="afii10047" unicode="&#x42d;" horiz-adv-x="707" 
d="M207 285v145h308c-22 81 -94 133 -201 133c-62 0 -148 -21 -203 -89l-102 100c70 93 191 134 311 134c220 0 357 -138 357 -355c0 -208 -133 -361 -365 -361c-100 0 -229 30 -312 150l103 88c52 -72 139 -93 213 -93c109 0 186 58 201 148h-310z" />
    <glyph glyph-name="afii10048" unicode="&#x42e;" horiz-adv-x="1014" 
d="M65 0v700h155v-278h71c29 166 165 286 344 286c213 0 349 -150 349 -358c0 -206 -149 -358 -349 -358c-183 0 -321 108 -345 298h-70v-290h-155zM443 350c0 -130 83 -213 192 -213c115 0 188 83 188 213s-76 213 -188 213c-110 0 -192 -83 -192 -213z" />
    <glyph glyph-name="afii10049" unicode="&#x42f;" horiz-adv-x="701" 
d="M481 0v231h-119l-179 -231h-183l206 260c-100 31 -156 101 -156 204c0 133 97 236 293 236h293v-700h-155zM328 376h153v179h-147c-89 0 -123 -32 -123 -90c0 -49 46 -89 117 -89z" />
    <glyph glyph-name="afii10065" unicode="&#x430;" horiz-adv-x="532" 
d="M117 346l-69 105c49 51 134 80 229 80c134 0 213 -79 213 -216v-315h-145v47c-22 -26 -77 -53 -140 -53c-115 0 -190 67 -190 170c0 120 112 171 236 171c36 0 72 -5 94 -13c1 53 -28 74 -84 74s-90 -12 -144 -50zM235 119c49 0 93 26 110 59v24c-16 6 -49 13 -79 13
c-58 0 -101 -13 -101 -51c0 -28 26 -45 70 -45z" />
    <glyph glyph-name="afii10066" unicode="&#x431;" horiz-adv-x="593" 
d="M506 743l25 -131c-89 -42 -187 -28 -265 -58c-63 -24 -104 -64 -112 -139c38 50 110 75 183 75c124 0 236 -76 236 -234c0 -155 -100 -266 -264 -266c-169 0 -284 110 -284 312c0 189 52 302 175 364c107 54 223 33 306 77zM175 278v-16c0 -66 52 -137 133 -137
c80 0 115 50 115 122c0 63 -37 108 -112 108c-66 0 -110 -31 -136 -77z" />
    <glyph glyph-name="afii10067" unicode="&#x432;" horiz-adv-x="531" 
d="M45 0v520h227c148 0 226 -40 226 -144c0 -43 -21 -72 -48 -99c41 -20 61 -66 61 -116c0 -106 -80 -161 -204 -161h-262zM287 201h-97v-71h103c46 0 68 9 68 34c0 27 -22 37 -74 37zM269 390h-79v-64h109c32 0 49 8 49 32c0 27 -21 32 -79 32z" />
    <glyph glyph-name="afii10068" unicode="&#x433;" horiz-adv-x="456" 
d="M45 0v520h406v-135h-261v-385h-145z" />
    <glyph glyph-name="afii10069" unicode="&#x434;" horiz-adv-x="603" 
d="M5 -112v247h59c38 80 52 177 52 322v63h412v-385h70v-247h-135v112h-323v-112h-135zM249 385v-32c0 -49 -13 -172 -37 -218h171v250h-134z" />
    <glyph glyph-name="afii10070" unicode="&#x435;" horiz-adv-x="558" 
d="M438 184l87 -88c-56 -70 -137 -104 -224 -104c-168 0 -281 105 -281 269c0 152 94 270 270 270c142 0 248 -94 248 -239c0 -16 -2 -45 -8 -84h-358c14 -57 67 -81 131 -81c49 0 104 19 135 57zM285 401c-55 0 -92 -22 -110 -68h213c-13 49 -50 68 -103 68z" />
    <glyph glyph-name="afii10072" unicode="&#x436;" horiz-adv-x="765" 
d="M187 286l-197 234h182l138 -177v177h145v-178l145 178h175l-198 -234l198 -286h-177l-123 198l-20 -24v-174h-145v173l-20 24l-125 -197h-172z" />
    <glyph glyph-name="afii10073" unicode="&#x437;" horiz-adv-x="507" 
d="M249 -12c-129 0 -198 48 -247 132l109 75c29 -49 73 -77 140 -77c54 0 86 18 86 51c0 22 -21 33 -60 33h-108v125h103c34 0 48 14 48 33c0 33 -36 45 -69 45c-74 0 -106 -25 -138 -65l-102 68c36 64 110 127 244 127c143 0 215 -66 215 -156c0 -31 -6 -63 -39 -96
c40 -31 56 -65 56 -114c0 -113 -100 -181 -238 -181z" />
    <glyph glyph-name="afii10074" unicode="&#x438;" horiz-adv-x="591" 
d="M168 0h-123v520h145v-283l233 283h123v-520h-145v283z" />
    <glyph glyph-name="afii10075" unicode="&#x439;" horiz-adv-x="591" 
d="M168 0h-123v520h145v-283l233 283h123v-520h-145v283zM123 738h133c1 -32 16 -53 52 -53c35 0 49 20 49 53h132c-2 -114 -90 -163 -181 -163c-97 0 -183 47 -185 163z" />
    <glyph glyph-name="afii10076" unicode="&#x43a;" horiz-adv-x="557" 
d="M45 0v520h145v-186l184 186h188l-236 -231l241 -289h-184l-161 197l-32 -33v-164h-145z" />
    <glyph glyph-name="afii10077" unicode="&#x43b;" horiz-adv-x="581" 
d="M391 0v385h-141v-14c0 -278 -71 -405 -248 -371v130c73 -9 111 26 111 277v113h423v-520h-145z" />
    <glyph glyph-name="afii10078" unicode="&#x43c;" horiz-adv-x="663" 
d="M45 0v520h128l162 -208l164 208h119v-520h-145v266l-137 -172l-146 175v-269h-145z" />
    <glyph glyph-name="afii10079" unicode="&#x43d;" horiz-adv-x="579" 
d="M389 0v195h-199v-195h-145v520h145v-190h199v190h145v-520h-145z" />
    <glyph glyph-name="afii10080" unicode="&#x43e;" horiz-adv-x="604" 
d="M20 261c0 157 115 270 281 270s283 -113 283 -270c0 -156 -117 -269 -283 -269c-161 0 -281 113 -281 269zM170 261c0 -76 53 -134 131 -134c79 0 133 50 133 134c0 86 -60 135 -133 135s-131 -49 -131 -135z" />
    <glyph glyph-name="afii10081" unicode="&#x43f;" horiz-adv-x="573" 
d="M383 0v385h-193v-385h-145v520h483v-520h-145z" />
    <glyph glyph-name="afii10082" unicode="&#x440;" horiz-adv-x="582" 
d="M45 -200v720h145v-27c27 25 76 38 116 38c158 0 256 -109 256 -263c0 -158 -102 -276 -260 -276c-50 0 -96 8 -112 26v-218h-145zM290 396c-48 0 -81 -24 -100 -59v-166c16 -24 51 -44 92 -44c81 0 130 51 130 130c0 92 -46 139 -122 139z" />
    <glyph glyph-name="afii10083" unicode="&#x441;" horiz-adv-x="540" 
d="M431 195l106 -63c-47 -92 -137 -140 -235 -140c-168 0 -282 105 -282 269c0 154 112 270 275 270c123 0 205 -55 238 -130l-108 -70c-33 45 -68 65 -121 65c-79 0 -134 -53 -134 -135c0 -72 57 -134 148 -134c54 0 88 27 113 68z" />
    <glyph glyph-name="afii10084" unicode="&#x442;" horiz-adv-x="509" 
d="M4 385v135h501v-135h-179v-385h-145v385h-177z" />
    <glyph glyph-name="afii10085" unicode="&#x443;" horiz-adv-x="557" 
d="M572 520l-293 -720h-157l107 244l-249 476h169l151 -302l117 302h155z" />
    <glyph glyph-name="afii10086" unicode="&#x444;" horiz-adv-x="749" 
d="M302 -200v190h-6c-177 0 -278 114 -278 269c0 142 100 270 277 270h7v201h145v-201h8c170 0 276 -116 276 -270c0 -155 -100 -269 -278 -269h-6v-190h-145zM168 259c0 -88 46 -134 128 -134h6v269h-7c-93 0 -127 -53 -127 -135zM453 394h-6v-269h6c94 0 128 44 128 134
c0 85 -33 135 -128 135z" />
    <glyph glyph-name="afii10087" unicode="&#x445;" horiz-adv-x="576" 
d="M577 520l-199 -252l208 -268h-180l-119 159l-123 -159h-174l208 267l-198 253h179l111 -141l112 141h175z" />
    <glyph glyph-name="afii10088" unicode="&#x446;" horiz-adv-x="595" 
d="M45 0v520h145v-385h190v385h145v-385h65v-247h-135v112h-410z" />
    <glyph glyph-name="afii10089" unicode="&#x447;" horiz-adv-x="550" 
d="M505 520v-520h-145v185c-30 -23 -72 -35 -120 -35c-140 0 -215 63 -215 207v163h145v-107c0 -99 27 -128 104 -128c31 0 65 15 86 42v193h145z" />
    <glyph glyph-name="afii10090" unicode="&#x448;" horiz-adv-x="749" 
d="M45 0v520h145v-385h112v385h145v-385h112v385h145v-520h-659z" />
    <glyph glyph-name="afii10091" unicode="&#x449;" horiz-adv-x="774" 
d="M45 0v520h145v-385h112v385h145v-385h112v385h145v-385h65v-247h-135v112h-589z" />
    <glyph glyph-name="afii10092" unicode="&#x44a;" horiz-adv-x="595" 
d="M5 385v135h264v-136h84c173 0 227 -91 227 -192c0 -98 -60 -192 -233 -192h-223v385h-119zM344 249h-75v-114h75c63 0 86 18 86 56c0 39 -24 58 -86 58z" />
    <glyph glyph-name="afii10093" unicode="&#x44b;" horiz-adv-x="703" 
d="M45 0v520h145v-138h66c173 0 228 -89 228 -190c0 -98 -62 -192 -235 -192h-204zM248 247h-58v-112h57c64 0 87 18 87 56c0 39 -24 56 -86 56zM513 0v520h145v-520h-145z" />
    <glyph glyph-name="afii10094" unicode="&#x44c;" horiz-adv-x="517" 
d="M45 0v520h145v-138h85c172 0 227 -89 227 -190c0 -98 -61 -192 -234 -192h-223zM265 247h-75v-112h75c64 0 87 18 87 56c0 39 -24 56 -87 56z" />
    <glyph glyph-name="afii10095" unicode="&#x44d;" horiz-adv-x="552" 
d="M183 203v125h195c-19 54 -65 68 -130 68c-39 0 -100 -15 -137 -68l-104 78c64 88 150 125 258 125c161 0 267 -104 267 -270c0 -153 -100 -269 -278 -269c-94 0 -205 31 -249 122l105 75c37 -51 89 -62 129 -62c78 0 124 26 142 76h-198z" />
    <glyph glyph-name="afii10096" unicode="&#x44e;" horiz-adv-x="803" 
d="M45 0v520h145v-190h65c28 120 120 201 256 201c161 0 272 -113 272 -270c0 -156 -112 -269 -272 -269c-140 0 -234 84 -259 210h-62v-202h-145zM397 261c0 -85 48 -134 115 -134c72 0 121 49 121 134s-48 135 -121 135c-63 0 -115 -50 -115 -135z" />
    <glyph glyph-name="afii10097" unicode="&#x44f;" horiz-adv-x="533" 
d="M268 520h220v-520h-145v157h-67l-107 -157h-167l133 182c-70 21 -105 81 -105 161c0 95 64 177 238 177zM180 337c0 -27 23 -45 74 -45h89v93h-84c-57 0 -79 -18 -79 -48z" />
    <glyph glyph-name="afii10071" unicode="&#x451;" horiz-adv-x="558" 
d="M438 184l87 -88c-56 -70 -137 -104 -224 -104c-168 0 -281 105 -281 269c0 152 94 270 270 270c142 0 248 -94 248 -239c0 -16 -2 -45 -8 -84h-358c14 -57 67 -81 131 -81c49 0 104 19 135 57zM285 401c-55 0 -92 -22 -110 -68h213c-13 49 -50 68 -103 68zM110 660
c0 41 37 70 78 70c38 0 79 -29 79 -70c0 -45 -41 -72 -79 -72c-41 0 -78 27 -78 72zM314 660c0 41 38 70 81 70c41 0 79 -29 79 -70c0 -45 -36 -72 -79 -72s-81 27 -81 72z" />
    <glyph glyph-name="afii10099" unicode="&#x452;" horiz-adv-x="649" 
d="M0 520v130h120v80h145v-80h197v-130h-197v-128c34 26 75 39 128 39c137 0 226 -82 226 -248c0 -154 -68 -301 -227 -392l-86 98c134 89 163 172 163 281c0 68 -20 126 -102 126c-39 0 -80 -25 -102 -67v-229h-145v520h-120z" />
    <glyph glyph-name="afii10100" unicode="&#x453;" horiz-adv-x="456" 
d="M45 0v520h406v-135h-261v-385h-145zM406 751l-132 -164l-100 70l123 176z" />
    <glyph glyph-name="afii10101" unicode="&#x454;" horiz-adv-x="541" 
d="M373 328v-125h-197c19 -59 70 -76 132 -76c58 0 91 20 119 58l108 -58c-44 -97 -144 -135 -235 -135c-162 0 -275 111 -275 269c0 166 114 270 282 270c94 0 180 -32 227 -113l-111 -72c-34 41 -68 50 -117 50c-56 0 -106 -18 -128 -68h195z" />
    <glyph glyph-name="afii10102" unicode="&#x455;" horiz-adv-x="496" 
d="M331 155c0 51 -295 38 -295 215c0 100 83 161 224 161c99 0 183 -46 216 -94l-99 -95c-34 35 -81 54 -146 54c-27 0 -45 -6 -45 -25c0 -45 295 -31 295 -215c0 -114 -102 -164 -220 -164c-127 0 -212 58 -249 126l115 78c28 -36 86 -69 150 -69c35 0 54 9 54 28z" />
    <glyph glyph-name="afii10103" unicode="&#x456;" horiz-adv-x="253" 
d="M54 0v520h145v-520h-145zM45 658c0 41 34 72 82 72c47 0 81 -31 81 -72c0 -43 -34 -74 -81 -74c-51 0 -82 31 -82 74z" />
    <glyph glyph-name="afii10104" unicode="&#x457;" horiz-adv-x="235" 
d="M45 0v520h145v-520h-145zM-40 657c0 39 32 73 76 73c35 0 73 -34 73 -73c0 -42 -38 -75 -73 -75c-44 0 -76 33 -76 75zM126 657c0 39 36 73 76 73c39 0 75 -34 75 -73c0 -42 -36 -75 -75 -75c-40 0 -76 33 -76 75z" />
    <glyph glyph-name="afii10105" unicode="&#x458;" horiz-adv-x="252" 
d="M200 520v-518c0 -132 -58 -211 -183 -211c-82 0 -150 29 -187 120l127 49c10 -20 23 -34 47 -34c33 0 51 22 51 79v515h145zM45 659c0 41 32 72 83 72c46 0 79 -31 79 -72c0 -43 -30 -74 -79 -74c-51 0 -83 31 -83 74z" />
    <glyph glyph-name="afii10106" unicode="&#x459;" horiz-adv-x="823" 
d="M388 385h-138v-14c0 -278 -71 -405 -248 -371v130c73 -9 111 26 111 277v113h420v-148h48c173 0 227 -84 227 -185c0 -98 -61 -187 -233 -187h-187v385zM573 237h-40v-102h52c61 0 73 20 73 51c0 39 -23 51 -85 51z" />
    <glyph glyph-name="afii10107" unicode="&#x45a;" horiz-adv-x="821" 
d="M45 0v520h145v-169h197v169h145v-169h47c174 0 227 -72 227 -174c0 -101 -61 -177 -233 -177h-186v216h-197v-216h-145zM572 216h-40v-81h39c64 0 85 11 85 41c0 29 -23 40 -84 40z" />
    <glyph glyph-name="afii10108" unicode="&#x45b;" horiz-adv-x="646" 
d="M0 520v130h120v80h145v-80h197v-130h-197v-141c34 29 75 42 133 42c132 0 213 -72 213 -239v-182h-145v174c0 67 -21 112 -99 112c-39 0 -83 -22 -102 -64v-222h-145v520h-120z" />
    <glyph glyph-name="afii10109" unicode="&#x45c;" horiz-adv-x="557" 
d="M45 0v520h145v-186l184 186h188l-236 -231l241 -289h-184l-161 197l-32 -33v-164h-145zM423 751l-132 -164l-100 70l123 176z" />
    <glyph glyph-name="afii10110" unicode="&#x45e;" horiz-adv-x="557" 
d="M572 521l-293 -720h-157l107 244l-249 476h169l151 -302l117 302h155zM103 738h133c1 -32 16 -53 52 -53c35 0 49 20 49 53h132c-2 -114 -90 -163 -181 -163c-97 0 -183 47 -185 163z" />
    <glyph glyph-name="afii10193" unicode="&#x45f;" horiz-adv-x="583" 
d="M45 0v520h145v-385h203v385h145v-520h-179v-130h-135v130h-179z" />
    <glyph glyph-name="afii10146" unicode="&#x462;" horiz-adv-x="707" 
d="M0 485v145h115v70h155v-70h215v-145h-215v-57h133c197 0 294 -60 294 -212c0 -156 -113 -216 -302 -216h-280v485h-115zM401 283h-131v-138h128c92 0 138 10 138 71c0 60 -45 67 -135 67z" />
    <glyph glyph-name="afii10194" unicode="&#x463;" horiz-adv-x="587" 
d="M417 390h-157v-48h85c172 0 227 -80 227 -170c0 -91 -61 -172 -234 -172h-223v390h-110v130h110v210h145v-210h157v-130zM335 207h-75v-72h75c64 0 87 8 87 36c0 31 -24 36 -87 36z" />
    <glyph glyph-name="afii10147" unicode="&#x472;" horiz-adv-x="781" 
d="M30 350c0 202 158 358 361 358c200 0 360 -150 360 -358c0 -206 -160 -358 -360 -358s-361 150 -361 358zM391 142c88 0 163 50 189 137h-379c28 -87 105 -137 190 -137zM391 558c-84 0 -161 -49 -189 -134h376c-29 85 -106 134 -187 134z" />
    <glyph glyph-name="afii10195" unicode="&#x473;" horiz-adv-x="604" 
d="M20 261c0 157 115 270 281 270s283 -113 283 -270c0 -156 -117 -269 -283 -269c-161 0 -281 113 -281 269zM301 127c56 0 100 25 120 71h-237c20 -43 62 -71 117 -71zM301 396c-51 0 -95 -24 -117 -68h235c-22 44 -67 68 -118 68z" />
    <glyph glyph-name="afii10148" unicode="&#x474;" horiz-adv-x="769" 
d="M649 495l-222 -495h-108l-329 700h168l216 -474l141 333c43 101 114 150 185 150c34 0 68 -11 99 -33l-58 -129c-8 6 -17 9 -28 9c-20 -1 -44 -16 -64 -61z" />
    <glyph glyph-name="afii10196" unicode="&#x475;" horiz-adv-x="570" 
d="M458 306l-134 -306h-110l-239 520h163l133 -300l82 194c36 85 84 115 150 114c42 -1 78 -15 107 -43l-61 -110c-7 7 -16 10 -26 10c-20 0 -40 -22 -65 -79z" />
    <glyph glyph-name="afii10050" unicode="&#x490;" horiz-adv-x="590" 
d="M65 0v700h380v115h145v-260h-370v-555h-155z" />
    <glyph glyph-name="afii10098" unicode="&#x491;" horiz-adv-x="456" 
d="M45 0v520h271v94h135v-229h-261v-385h-145z" />
    <glyph glyph-name="uni1E9E" unicode="&#x1e9e;" horiz-adv-x="657" 
d="M356 708c145 0 222 -80 244 -159l-120 -146c107 -19 147 -98 147 -187c0 -132 -98 -227 -246 -227c-57 0 -93 16 -122 30l47 134c23 -11 42 -19 66 -19c49 0 100 26 100 79c0 59 -50 76 -107 76h-49v117l112 128c-18 19 -39 29 -86 29c-84 0 -127 -45 -127 -147v-416
h-155v436c0 201 121 272 296 272z" />
    <glyph glyph-name="uni2010" unicode="&#x2010;" horiz-adv-x="424" 
d="M60 217v130h304v-130h-304z" />
    <glyph glyph-name="uni2011" unicode="&#x2011;" horiz-adv-x="424" 
d="M60 217v130h304v-130h-304z" />
    <glyph glyph-name="figuredash" unicode="&#x2012;" horiz-adv-x="616" 
d="M80 301v126h456v-126h-456z" />
    <glyph glyph-name="endash" unicode="&#x2013;" horiz-adv-x="616" 
d="M80 217v126h456v-126h-456z" />
    <glyph glyph-name="emdash" unicode="&#x2014;" horiz-adv-x="796" 
d="M80 217v126h636v-126h-636z" />
    <glyph glyph-name="quoteleft" unicode="&#x2018;" horiz-adv-x="251" 
d="M209 519l-122 -76c-28 32 -57 73 -57 113c0 89 69 146 128 182l63 -55c-29 -27 -44 -59 -44 -90c0 -29 17 -54 32 -74z" />
    <glyph glyph-name="quoteright" unicode="&#x2019;" horiz-adv-x="251" 
d="M42 662l122 76c28 -32 57 -73 57 -113c0 -89 -69 -146 -128 -182l-63 55c29 27 44 59 44 90c0 29 -17 54 -32 74z" />
    <glyph glyph-name="quotesinglbase" unicode="&#x201a;" horiz-adv-x="251" 
d="M42 88l122 76c28 -32 57 -73 57 -113c0 -89 -69 -146 -128 -182l-63 55c29 27 44 59 44 90c0 29 -17 54 -32 74z" />
    <glyph glyph-name="quotedblleft" unicode="&#x201c;" horiz-adv-x="451" 
d="M209 519l-122 -76c-28 32 -57 73 -57 113c0 89 69 146 128 182l63 -55c-29 -27 -44 -59 -44 -90c0 -29 17 -54 32 -74zM409 519l-122 -76c-28 32 -57 73 -57 113c0 89 69 146 128 182l63 -55c-29 -27 -44 -59 -44 -90c0 -29 17 -54 32 -74z" />
    <glyph glyph-name="quotedblright" unicode="&#x201d;" horiz-adv-x="451" 
d="M242 662l122 76c28 -32 57 -73 57 -113c0 -89 -69 -146 -128 -182l-63 55c29 27 44 59 44 90c0 29 -17 54 -32 74zM42 662l122 76c28 -32 57 -73 57 -113c0 -89 -69 -146 -128 -182l-63 55c29 27 44 59 44 90c0 29 -17 54 -32 74z" />
    <glyph glyph-name="quotedblbase" unicode="&#x201e;" horiz-adv-x="451" 
d="M242 88l122 76c28 -32 57 -73 57 -113c0 -89 -69 -146 -128 -182l-63 55c29 27 44 59 44 90c0 29 -17 54 -32 74zM42 88l122 76c28 -32 57 -73 57 -113c0 -89 -69 -146 -128 -182l-63 55c29 27 44 59 44 90c0 29 -17 54 -32 74z" />
    <glyph glyph-name="dagger" unicode="&#x2020;" horiz-adv-x="461" 
d="M20 375v145h133v180h155v-180h133v-145h-133v-463h-155v463h-133z" />
    <glyph glyph-name="daggerdbl" unicode="&#x2021;" horiz-adv-x="472" 
d="M30 376v145h133v179h146v-179h133v-145h-133v-114h133v-145h-133v-205h-146v205h-133v145h133v114h-133z" />
    <glyph glyph-name="bullet" unicode="&#x2022;" horiz-adv-x="324" 
d="M60 360c0 52 47 93 103 93c54 0 101 -41 101 -93c0 -50 -47 -93 -101 -93c-56 0 -103 43 -103 93z" />
    <glyph glyph-name="ellipsis" unicode="&#x2026;" horiz-adv-x="774" 
d="M565 75c0 36 34 75 86 75c47 0 83 -39 83 -75c0 -40 -36 -77 -83 -77c-52 0 -86 37 -86 77zM303 75c0 36 34 75 85 75c48 0 83 -39 83 -75c0 -40 -35 -77 -83 -77c-51 0 -85 37 -85 77zM40 75c0 36 34 75 86 75c47 0 83 -39 83 -75c0 -40 -36 -77 -83 -77
c-52 0 -86 37 -86 77z" />
    <glyph glyph-name="perthousand" unicode="&#x2030;" horiz-adv-x="1368" 
d="M30 517c0 110 88 186 202 186c115 0 202 -76 202 -186c0 -108 -87 -185 -202 -185c-114 0 -202 77 -202 185zM176 517c0 -38 27 -62 56 -62c31 0 56 24 56 62s-26 62 -56 62s-56 -24 -56 -62zM161 45l512 685l107 -76l-512 -684zM503 182c0 110 87 185 202 185
c114 0 202 -75 202 -185c0 -109 -88 -186 -202 -186c-115 0 -202 77 -202 186zM649 182c0 -38 27 -62 56 -62c30 0 56 24 56 62s-26 62 -56 62s-56 -24 -56 -62zM934 182c0 110 88 185 202 185c115 0 202 -75 202 -185c0 -109 -87 -186 -202 -186c-114 0 -202 77 -202 186z
M1080 182c0 -38 27 -62 56 -62c31 0 56 24 56 62s-26 62 -56 62s-56 -24 -56 -62z" />
    <glyph glyph-name="guilsinglleft" unicode="&#x2039;" horiz-adv-x="348" 
d="M217 38l-187 222v7l187 214l100 -89l-112 -130l113 -132z" />
    <glyph glyph-name="guilsinglright" unicode="&#x203a;" horiz-adv-x="348" 
d="M318 260l-187 -222l-101 92l113 132l-112 130l100 89l187 -214v-7z" />
    <glyph glyph-name="fraction" unicode="&#x2044;" horiz-adv-x="358" 
d="M-150 59l551 671l107 -86l-549 -675z" />
    <glyph glyph-name="uni2070" unicode="&#x2070;" horiz-adv-x="485" 
d="M40 510c0 124 77 214 202 214c126 0 203 -90 203 -214s-75 -214 -201 -214s-204 90 -204 214zM175 510c0 -57 29 -89 69 -89c39 0 66 28 66 89c0 56 -18 89 -68 89c-45 0 -67 -31 -67 -89z" />
    <glyph glyph-name="uni2074" unicode="&#x2074;" horiz-adv-x="449" 
d="M236 300v64h-226v94l244 262h107v-241h68v-115h-68v-64h-125zM158 479h78v81z" />
    <glyph glyph-name="uni2075" unicode="&#x2075;" horiz-adv-x="418" 
d="M57 456l17 264h283v-120h-179l-3 -23c11 2 26 3 50 3c97 0 153 -57 153 -140c0 -88 -76 -145 -181 -145c-79 0 -138 26 -177 84l95 75c17 -22 49 -39 80 -39c34 0 48 11 48 27c0 22 -21 33 -64 33c-47 0 -81 -8 -122 -19z" />
    <glyph glyph-name="uni2076" unicode="&#x2076;" horiz-adv-x="475" 
d="M40 499c0 151 93 226 216 226c87 0 134 -22 165 -42l-53 -94c-31 13 -63 21 -112 21c-62 0 -86 -32 -86 -59c24 22 56 38 106 38c105 0 169 -57 169 -138c0 -92 -83 -156 -192 -156c-120 0 -213 72 -213 204zM187 456c1 -23 26 -41 66 -41s57 13 57 35
c0 19 -29 29 -59 29c-38 0 -51 -8 -64 -23z" />
    <glyph glyph-name="uni2077" unicode="&#x2077;" horiz-adv-x="397" 
d="M20 595v125h357v-96l-174 -324h-151l166 295h-198z" />
    <glyph glyph-name="uni2078" unicode="&#x2078;" horiz-adv-x="498" 
d="M240 565h19c26 0 39 5 39 24c0 16 -13 21 -50 21c-34 0 -48 -10 -48 -21c0 -19 11 -24 40 -24zM258 465h-16c-42 0 -57 -10 -57 -27c0 -19 21 -28 64 -28c42 0 64 6 64 27c0 19 -15 28 -55 28zM249 295c-114 0 -199 48 -199 126c0 40 15 73 55 97c-33 20 -40 53 -40 85
c0 73 77 122 184 122c109 0 184 -49 184 -122c0 -32 -8 -60 -41 -83c44 -21 56 -55 56 -96c0 -82 -85 -129 -199 -129z" />
    <glyph glyph-name="uni2079" unicode="&#x2079;" horiz-adv-x="475" 
d="M435 521c0 -151 -93 -226 -216 -226c-87 0 -134 22 -165 42l53 94c31 -13 63 -21 112 -21c62 0 86 32 86 59c-24 -22 -56 -38 -106 -38c-105 0 -169 57 -169 138c0 92 83 156 192 156c120 0 213 -72 213 -204zM288 564c-1 23 -26 41 -66 41s-57 -13 -57 -35
c0 -19 29 -29 59 -29c38 0 51 8 64 23z" />
    <glyph glyph-name="uni207A" unicode="&#x207a;" horiz-adv-x="439" 
d="M50 455v120h104v103h130v-103h105v-120h-105v-104h-130v104h-104z" />
    <glyph glyph-name="uni207B" unicode="&#x207b;" horiz-adv-x="426" 
d="M50 455v120h326v-120h-326z" />
    <glyph glyph-name="uni207C" unicode="&#x207c;" horiz-adv-x="408" 
d="M50 535v110h308v-110h-308zM50 386v110h308v-110h-308z" />
    <glyph glyph-name="uni207D" unicode="&#x207d;" horiz-adv-x="295" 
d="M285 265l-83 -75c-122 90 -162 197 -162 280c0 82 40 186 162 280l76 -78c-65 -49 -103 -130 -103 -202c0 -77 51 -156 110 -205z" />
    <glyph glyph-name="uni207E" unicode="&#x207e;" horiz-adv-x="292" 
d="M92 191l-78 78c81 66 103 130 103 201c0 72 -26 133 -107 203l81 77c121 -94 161 -179 161 -280c0 -83 -40 -190 -160 -279z" />
    <glyph glyph-name="uni2080" unicode="&#x2080;" horiz-adv-x="485" 
d="M40 110c0 124 77 214 202 214c126 0 203 -90 203 -214s-75 -214 -201 -214s-204 90 -204 214zM175 110c0 -57 29 -89 69 -89c39 0 66 28 66 89c0 56 -18 89 -68 89c-45 0 -67 -31 -67 -89z" />
    <glyph glyph-name="uni2081" unicode="&#x2081;" horiz-adv-x="330" 
d="M10 253l161 67h99v-420h-135v270l-77 -31z" />
    <glyph glyph-name="uni2082" unicode="&#x2082;" horiz-adv-x="425" 
d="M125 149l-95 61c35 78 104 114 194 114c99 0 159 -54 159 -126c0 -76 -44 -124 -90 -153l-39 -25h141v-120h-351v101l78 45c68 39 126 82 126 119c0 24 -10 39 -38 39c-42 0 -70 -21 -85 -55z" />
    <glyph glyph-name="uni2083" unicode="&#x2083;" horiz-adv-x="432" 
d="M114 157l-87 70c34 57 96 98 185 98c106 0 171 -41 171 -105c0 -47 -19 -72 -58 -94c30 -11 67 -35 67 -96c0 -80 -75 -135 -184 -135c-80 0 -147 28 -188 112l99 57c9 -29 39 -49 89 -49c35 0 49 5 49 23c0 15 -19 22 -54 22h-39v100h33c37 0 51 8 51 24
c0 12 -11 21 -38 21c-50 0 -73 -17 -96 -48z" />
    <glyph glyph-name="uni2084" unicode="&#x2084;" horiz-adv-x="449" 
d="M236 -100v64h-226v94l244 262h107v-241h68v-115h-68v-64h-125zM158 79h78v81z" />
    <glyph glyph-name="uni2085" unicode="&#x2085;" horiz-adv-x="418" 
d="M57 56l17 264h283v-120h-179l-3 -23c11 2 26 3 50 3c97 0 153 -57 153 -140c0 -88 -76 -145 -181 -145c-79 0 -138 26 -177 84l95 75c17 -22 49 -39 80 -39c34 0 48 11 48 27c0 22 -21 33 -64 33c-47 0 -81 -8 -122 -19z" />
    <glyph glyph-name="uni2086" unicode="&#x2086;" horiz-adv-x="475" 
d="M40 99c0 151 93 226 216 226c87 0 134 -22 165 -42l-53 -94c-31 13 -63 21 -112 21c-62 0 -86 -32 -86 -59c24 22 56 38 106 38c105 0 169 -57 169 -138c0 -92 -83 -156 -192 -156c-120 0 -213 72 -213 204zM187 56c1 -23 26 -41 66 -41s57 13 57 35c0 19 -29 29 -59 29
c-38 0 -51 -8 -64 -23z" />
    <glyph glyph-name="uni2087" unicode="&#x2087;" horiz-adv-x="397" 
d="M20 195v125h357v-96l-174 -324h-151l166 295h-198z" />
    <glyph glyph-name="uni2088" unicode="&#x2088;" horiz-adv-x="498" 
d="M240 165h19c26 0 39 5 39 24c0 16 -13 21 -50 21c-34 0 -48 -10 -48 -21c0 -19 11 -24 40 -24zM258 65h-16c-42 0 -57 -10 -57 -27c0 -19 21 -28 64 -28c42 0 64 6 64 27c0 19 -15 28 -55 28zM249 -105c-114 0 -199 48 -199 126c0 40 15 73 55 97c-33 20 -40 53 -40 85
c0 73 77 122 184 122c109 0 184 -49 184 -122c0 -32 -8 -60 -41 -83c44 -21 56 -55 56 -96c0 -82 -85 -129 -199 -129z" />
    <glyph glyph-name="uni2089" unicode="&#x2089;" horiz-adv-x="475" 
d="M435 121c0 -151 -93 -226 -216 -226c-87 0 -134 22 -165 42l53 94c31 -13 63 -21 112 -21c62 0 86 32 86 59c-24 -22 -56 -38 -106 -38c-105 0 -169 57 -169 138c0 92 83 156 192 156c120 0 213 -72 213 -204zM288 164c-1 23 -26 41 -66 41s-57 -13 -57 -35
c0 -19 29 -29 59 -29c38 0 51 8 64 23z" />
    <glyph glyph-name="uni208A" unicode="&#x208a;" horiz-adv-x="439" 
d="M50 55v120h104v103h130v-103h105v-120h-105v-104h-130v104h-104z" />
    <glyph glyph-name="uni208B" unicode="&#x208b;" horiz-adv-x="426" 
d="M50 55v120h326v-120h-326z" />
    <glyph glyph-name="uni208C" unicode="&#x208c;" horiz-adv-x="408" 
d="M50 135v110h308v-110h-308zM50 -14v110h308v-110h-308z" />
    <glyph glyph-name="uni208D" unicode="&#x208d;" horiz-adv-x="295" 
d="M285 -135l-83 -75c-122 90 -162 197 -162 280c0 82 40 186 162 280l76 -78c-65 -49 -103 -130 -103 -202c0 -77 51 -156 110 -205z" />
    <glyph glyph-name="uni208E" unicode="&#x208e;" horiz-adv-x="292" 
d="M92 -209l-78 78c81 66 103 130 103 201c0 72 -26 133 -107 203l81 77c121 -94 161 -179 161 -280c0 -83 -40 -190 -160 -279z" />
    <glyph glyph-name="Euro" unicode="&#x20ac;" horiz-adv-x="696" 
d="M20 371l50 124h65c49 125 165 213 323 213c88 0 155 -20 198 -55l-54 -113c-38 24 -84 37 -144 37c-67 0 -122 -29 -157 -82h291l-46 -124h-284v-42h269l-39 -123h-200c29 -51 99 -84 176 -84c29 0 94 12 130 38l41 -116c-31 -27 -106 -52 -174 -52
c-168 0 -283 74 -336 214h-106l47 123h39c-1 5 -1 11 -1 17c0 7 0 17 1 25h-89z" />
    <glyph glyph-name="uni20B4" unicode="&#x20b4;" horiz-adv-x="621" 
d="M40 387v120h336c3 4 6 12 6 23c0 21 -19 34 -75 34c-71 0 -118 -14 -153 -37l-62 121c53 38 122 61 226 61c108 0 219 -62 219 -148c0 -26 -5 -43 -12 -54h56v-120h-138c-33 -25 -76 -41 -104 -54h242v-120h-339c-5 -9 -10 -16 -10 -29c0 -34 38 -48 97 -48
c85 0 143 31 171 52l66 -102c-40 -62 -162 -95 -244 -95c-142 0 -245 57 -245 175c0 28 5 35 9 47h-46v120h127c72 33 96 39 125 54h-252z" />
    <glyph glyph-name="uni20BD" unicode="&#x20bd;" horiz-adv-x="629" 
d="M30 287v135h98v278c16 0 96 0 125 1c28 0 58 1 75 1c192 0 271 -88 271 -203c0 -119 -81 -212 -271 -212h-50v-42h160v-135h-160v-110h-150v110h-98v135h98v42h-98zM333 567h-55v-145h48c79 0 118 20 118 74s-39 71 -111 71z" />
    <glyph glyph-name="afii61352" unicode="&#x2116;" horiz-adv-x="1131" 
d="M650 0h-118l-324 424v-424h-148v700h118l323 -426v426h149v-700zM688 478c0 110 76 185 191 185c116 0 192 -75 192 -185c0 -109 -76 -186 -192 -186c-115 0 -191 77 -191 186zM823 478c0 -38 25 -61 56 -61c37 0 57 23 57 61c0 37 -25 60 -57 60c-34 0 -56 -23 -56 -60z
M707 121v130h345v-130h-345z" />
    <glyph glyph-name="trademark" unicode="&#x2122;" horiz-adv-x="831" 
d="M363 337v363h116l100 -115l95 115h117v-363h-146v128l-67 -80h-3l-66 81v-129h-146zM10 573v127h339v-127h-77v-236h-146v236h-116z" />
    <glyph glyph-name="partialdiff" unicode="&#x2202;" horiz-adv-x="601" 
d="M20 238c0 170 97 282 257 282c58 0 119 -16 151 -61c-7 96 -127 130 -231 119l22 134c221 0 352 -101 352 -311c0 -226 -98 -413 -298 -413c-159 0 -253 115 -253 250zM175 243c0 -87 54 -120 103 -120c67 0 118 67 126 163c-19 73 -74 99 -111 99
c-61 0 -118 -49 -118 -142z" />
    <glyph glyph-name="product" unicode="&#x220f;" horiz-adv-x="885" 
d="M635 -200v750h-385v-750h-160v900h705v-900h-160z" />
    <glyph glyph-name="summation" unicode="&#x2211;" horiz-adv-x="650" 
d="M307 250l-267 338v112h570v-150h-347l228 -300l-238 -300h357v-150h-570v112z" />
    <glyph glyph-name="minus" unicode="&#x2212;" horiz-adv-x="555" 
d="M30 296v126h495v-126h-495z" />
    <glyph glyph-name="uni2215" unicode="&#x2215;" horiz-adv-x="358" 
d="M-150 59l551 671l107 -86l-549 -675z" />
    <glyph glyph-name="radical" unicode="&#x221a;" horiz-adv-x="615" 
d="M0 351v130h194l109 -233l94 452h308v-120h-199l-136 -585h-92l-182 356h-96z" />
    <glyph glyph-name="infinity" unicode="&#x221e;" horiz-adv-x="683" 
d="M494 171c-67 0 -113 27 -151 64c-35 -37 -78 -64 -146 -64c-94 0 -177 69 -177 171c0 90 68 172 179 172c61 0 104 -28 140 -63c36 36 82 63 154 63c99 0 170 -68 170 -175c0 -80 -54 -168 -169 -168zM486 388c-23 0 -41 -16 -61 -42c23 -28 45 -49 66 -49s32 23 32 42
c0 27 -12 49 -37 49zM200 297c20 0 39 20 57 43c-22 28 -41 48 -56 48c-25 0 -41 -21 -41 -46c0 -29 23 -45 40 -45z" />
    <glyph glyph-name="integral" unicode="&#x222b;" horiz-adv-x="348" 
d="M77 530c0 151 88 208 189 208c58 0 111 -21 141 -61l-80 -94c-9 10 -22 20 -52 20c-37 0 -53 -26 -53 -73v-531c0 -151 -88 -208 -189 -208c-58 0 -111 21 -141 61l80 94c9 -10 22 -20 52 -20c37 0 53 26 53 73v531z" />
    <glyph glyph-name="approxequal" unicode="&#x2248;" horiz-adv-x="570" 
d="M86 358l-56 98c44 51 102 73 141 73c80 0 133 -51 205 -51c39 0 75 18 109 50l55 -93c-51 -50 -107 -73 -154 -73c-91 0 -143 47 -198 47c-36 0 -71 -25 -102 -51zM86 168l-56 98c44 51 102 73 141 73c80 0 133 -51 205 -51c39 0 75 18 109 50l55 -93
c-51 -50 -107 -73 -154 -73c-91 0 -143 47 -198 47c-36 0 -71 -25 -102 -51z" />
    <glyph glyph-name="notequal" unicode="&#x2260;" horiz-adv-x="555" 
d="M40 391v126h219l76 204l132 -42l-60 -162h108v-126h-156l-24 -65h180v-126h-225l-85 -225l-130 49l68 176h-103v126h147l24 65h-171z" />
    <glyph glyph-name="lessequal" unicode="&#x2264;" horiz-adv-x="453" 
d="M30 235v150l393 -244v-153zM423 188l-393 248v61l393 243v-156l-192 -118l192 -121v-157z" />
    <glyph glyph-name="greaterequal" unicode="&#x2265;" horiz-adv-x="453" 
d="M423 385v-150l-393 -247v153zM423 436l-393 -248v157l192 121l-192 118v156l393 -243v-61z" />
    <glyph glyph-name="lozenge" unicode="&#x25ca;" horiz-adv-x="498" 
d="M187 0l-167 254l168 266h123l167 -255l-168 -265h-123zM171 255l78 -120l78 130l-78 111z" />
    <glyph glyph-name="uniF350" unicode="&#xf350;" 
d="M-5 0l261 559h110l261 -559h-157l-42 85h-235l-43 -85h-155zM310 334l-66 -124h129z" />
    <glyph glyph-name="uniF351" unicode="&#xf351;" horiz-adv-x="568" 
d="M509 560v-140h-306v-56h140c140 0 206 -68 206 -179c0 -129 -88 -185 -251 -185h-245v560h456zM308 224h-105v-84h100c63 0 91 11 91 44c0 31 -23 40 -86 40z" />
    <glyph glyph-name="uniF352" unicode="&#xf352;" horiz-adv-x="588" 
d="M53 0v560h285c153 0 204 -59 204 -145c0 -52 -22 -86 -49 -116c43 -26 68 -62 68 -129c0 -120 -99 -170 -231 -170h-277zM318 218h-115v-78h109c70 0 92 11 92 38c0 30 -20 40 -86 40zM310 420h-107v-67h118c45 0 65 11 65 27c0 27 -14 40 -76 40z" />
    <glyph glyph-name="uniF353" unicode="&#xf353;" horiz-adv-x="507" 
d="M53 0v560h454v-140h-304v-420h-150z" />
    <glyph glyph-name="uniF354" unicode="&#xf354;" horiz-adv-x="659" 
d="M0 -100v240h65c32 49 60 150 60 367v53h449v-420h77v-240h-140v100h-371v-100h-140zM266 420v-15c0 -109 -14 -214 -46 -265h204v280h-158z" />
    <glyph glyph-name="uniF355" unicode="&#xf355;" horiz-adv-x="554" 
d="M53 0v560h453v-140h-303v-69h282v-135h-282v-76h310v-140h-460z" />
    <glyph glyph-name="uniF356" unicode="&#xf356;" horiz-adv-x="834" 
d="M214 305l-222 255h184l166 -191v191h150v-193l164 193h186l-224 -254l220 -306h-178l-150 216l-18 -17v-199h-150l1 197l-18 20l-158 -217h-170z" />
    <glyph glyph-name="uniF357" unicode="&#xf357;" horiz-adv-x="559" 
d="M290 -13c-132 0 -222 31 -294 134l120 79c39 -49 92 -73 170 -73c86 0 100 33 100 50c0 29 -27 38 -115 38h-69v140h90c56 0 75 17 75 41s-26 37 -92 37c-44 0 -99 -13 -139 -55l-117 78c57 76 142 117 272 117c150 0 227 -67 227 -169c0 -43 -14 -83 -54 -108
c52 -26 73 -67 73 -117c0 -118 -91 -192 -247 -192z" />
    <glyph glyph-name="uniF358" unicode="&#xf358;" horiz-adv-x="644" 
d="M175 0h-122v560h150v-311l264 311h124v-560h-150v311z" />
    <glyph glyph-name="uniF359" unicode="&#xf359;" horiz-adv-x="644" 
d="M175 0h-122v560h150v-311l264 311h124v-560h-150v311zM141 768h133c1 -32 16 -53 52 -53c35 0 49 20 49 53h132c-2 -114 -90 -163 -181 -163c-97 0 -183 47 -185 163z" />
    <glyph glyph-name="uniF35A" unicode="&#xf35a;" horiz-adv-x="608" 
d="M53 0v560h150v-201l205 201h195l-251 -245l266 -315h-197l-183 214l-35 -33v-181h-150z" />
    <glyph glyph-name="uniF35B" unicode="&#xf35b;" horiz-adv-x="633" 
d="M430 0v420h-158v-23c0 -294 -105 -410 -240 -403c-10 1 -21 4 -32 5v144c77 -12 124 48 124 281v136h456v-560h-150z" />
    <glyph glyph-name="uniF35C" unicode="&#xf35c;" horiz-adv-x="728" 
d="M53 0v560h127l188 -213l181 213h126v-560h-150v306l-138 -165h-40l-144 169v-310h-150z" />
    <glyph glyph-name="uniF35D" unicode="&#xf35d;" horiz-adv-x="640" 
d="M437 0v211h-234v-211h-150v560h150v-209h234v209h150v-560h-150z" />
    <glyph glyph-name="uniF35E" unicode="&#xf35e;" horiz-adv-x="664" 
d="M24 280c0 161 135 290 308 290c171 0 308 -124 308 -290c0 -165 -137 -290 -308 -290c-170 0 -308 124 -308 290zM179 280c0 -92 74 -145 153 -145c83 0 153 53 153 145s-77 145 -153 145c-79 0 -153 -53 -153 -145z" />
    <glyph glyph-name="uniF35F" unicode="&#xf35f;" horiz-adv-x="640" 
d="M437 0v420h-234v-420h-150v560h534v-560h-150z" />
    <glyph glyph-name="uniF360" unicode="&#xf360;" horiz-adv-x="586" 
d="M203 0h-150v560h253c204 0 256 -106 256 -201c0 -97 -66 -198 -255 -198h-104v-161zM310 420h-107v-119h102c71 0 102 21 102 59c0 34 -25 60 -97 60z" />
    <glyph glyph-name="uniF361" unicode="&#xf361;" horiz-adv-x="594" 
d="M499 209l89 -96c-56 -81 -152 -123 -260 -123c-185 0 -304 117 -304 290c0 160 126 290 310 290c109 0 201 -43 245 -113l-103 -92c-32 41 -92 60 -130 60c-96 0 -167 -53 -167 -145c0 -86 71 -145 162 -145c60 0 117 23 158 74z" />
    <glyph glyph-name="uniF362" unicode="&#xf362;" horiz-adv-x="529" 
d="M4 415v145h521v-145h-186v-415h-150v415h-185z" />
    <glyph glyph-name="uniF363" unicode="&#xf363;" horiz-adv-x="630" 
d="M155 24l64 120c4 -5 17 -7 21 -7c19 0 31 7 40 33l-280 390h187l166 -237l120 237h158l-214 -427c-43 -85 -89 -133 -174 -133c-23 0 -56 4 -88 24z" />
    <glyph glyph-name="uniF364" unicode="&#xf364;" horiz-adv-x="800" 
d="M324 -12v63h-3c-187 0 -301 85 -301 237c0 161 126 234 304 237v47h152v-47c172 0 304 -68 304 -237c0 -151 -114 -237 -300 -237h-4v-63h-152zM477 384h-1v-192h4c96 0 145 28 145 96c0 64 -31 96 -148 96zM175 288c0 -43 20 -96 147 -96h2v192c-97 0 -149 -31 -149 -96
z" />
    <glyph glyph-name="uniF365" unicode="&#xf365;" horiz-adv-x="614" 
d="M611 560l-215 -276l222 -284h-184l-127 161l-128 -161h-183l223 284l-214 276h182l121 -152l121 152h182z" />
    <glyph glyph-name="uniF366" unicode="&#xf366;" horiz-adv-x="648" 
d="M53 0v560h150v-420h210v420h150v-420h77v-240h-140v100h-447z" />
    <glyph glyph-name="uniF367" unicode="&#xf367;" horiz-adv-x="610" 
d="M557 560v-560h-150v196c-32 -14 -81 -26 -134 -26c-135 0 -241 55 -241 195v195h150v-94c0 -119 31 -156 110 -156c40 0 82 9 115 30v220h150z" />
    <glyph glyph-name="uniF368" unicode="&#xf368;" horiz-adv-x="794" 
d="M53 0v560h150v-420h119v420h150v-420h119v420h150v-560h-688z" />
    <glyph glyph-name="uniF369" unicode="&#xf369;" horiz-adv-x="816" 
d="M53 0v560h150v-420h119v420h150v-420h119v420h150v-420h67v-240h-140v100h-615z" />
    <glyph glyph-name="uniF36A" unicode="&#xf36a;" horiz-adv-x="639" 
d="M0 420v140h277v-174h94c170 0 253 -62 253 -193c0 -135 -97 -193 -261 -193h-236v420h-127zM369 245h-92v-105h90c69 0 102 7 102 53c0 37 -32 52 -100 52z" />
    <glyph glyph-name="uniF36B" unicode="&#xf36b;" horiz-adv-x="777" 
d="M573 0v560h151v-560h-151zM275 245h-72v-105h70c69 0 103 7 103 53c0 37 -33 52 -101 52zM203 560v-174h99c163 0 229 -79 229 -193c0 -128 -98 -193 -245 -193h-233v560h150z" />
    <glyph glyph-name="uniF36C" unicode="&#xf36c;" horiz-adv-x="570" 
d="M300 245h-97v-105h95c69 0 102 18 102 53c0 37 -32 52 -100 52zM203 560v-174h99c170 0 253 -65 253 -193s-97 -193 -260 -193h-242v560h150z" />
    <glyph glyph-name="uniF36D" unicode="&#xf36d;" horiz-adv-x="604" 
d="M208 216v140h215c-20 43 -74 74 -152 74c-49 0 -120 -14 -167 -68l-98 97c60 76 164 111 270 111c187 0 304 -114 304 -288c0 -166 -113 -292 -311 -292c-85 0 -199 25 -273 130l99 85c45 -60 117 -75 177 -75c81 0 140 34 153 86h-217z" />
    <glyph glyph-name="uniF36E" unicode="&#xf36e;" horiz-adv-x="878" 
d="M53 0v560h150v-212h57c27 128 143 222 294 222c185 0 300 -124 300 -290c0 -165 -129 -290 -300 -290c-153 0 -273 80 -295 231h-56v-221h-150zM405 280c0 -92 66 -150 149 -150c88 0 145 58 145 150s-59 150 -145 150c-84 0 -149 -58 -149 -150z" />
    <glyph glyph-name="uniF36F" unicode="&#xf36f;" horiz-adv-x="601" 
d="M398 0v174h-81l-143 -174h-176l169 202c-81 29 -126 82 -126 165c0 109 86 193 254 193h253v-560h-150zM286 314h112v106h-110c-66 0 -92 -15 -92 -52c0 -32 37 -57 90 -54z" />
    <glyph glyph-name="uniF371" unicode="&#xf371;" horiz-adv-x="554" 
d="M86 662c0 41 35 72 81 72c39 0 79 -31 79 -72c0 -44 -40 -73 -79 -73c-46 0 -81 29 -81 73zM301 662c0 41 39 72 81 72c39 0 78 -29 78 -72c0 -44 -39 -73 -78 -73c-42 0 -81 29 -81 73zM53 0v560h453v-140h-303v-69h282v-135h-282v-76h310v-140h-460z" />
    <glyph glyph-name="uniF372" unicode="&#xf372;" horiz-adv-x="659" 
d="M484 174c0 43 -39 61 -73 61c-41 0 -67 -15 -82 -35v-200h-150v420h-180v140h516v-140h-186v-65c22 12 61 20 109 20c94 0 197 -46 197 -186s-93 -196 -182 -196c-45 0 -84 21 -101 43l70 111c7 -9 17 -14 28 -14c21 0 34 14 34 41z" />
    <glyph glyph-name="uniF373" unicode="&#xf373;" horiz-adv-x="507" 
d="M53 0v560h454v-140h-304v-420h-150zM427 771l-132 -164l-100 70l123 176z" />
    <glyph glyph-name="uniF374" unicode="&#xf374;" horiz-adv-x="589" 
d="M416 355v-140h-239c20 -64 87 -81 151 -81c80 0 114 44 137 75l118 -58c-39 -108 -161 -157 -239 -157c-192 0 -320 113 -320 286c0 165 124 286 314 286c73 0 185 -32 230 -109l-110 -80c-27 30 -66 49 -129 49c-64 0 -123 -17 -149 -71h236z" />
    <glyph glyph-name="uniF375" unicode="&#xf375;" horiz-adv-x="537" 
d="M370 170c0 88 -340 5 -340 223c0 103 101 177 244 177c104 0 201 -34 244 -93l-87 -98c-60 36 -101 51 -175 51c-42 0 -71 -15 -71 -39c0 -79 340 2 340 -221c0 -105 -95 -180 -239 -180c-109 0 -222 42 -276 99l79 112c68 -54 144 -71 221 -71c41 0 60 14 60 40z" />
    <glyph glyph-name="uniF376" unicode="&#xf376;" horiz-adv-x="262" 
d="M56 0v560h150v-560h-150z" />
    <glyph glyph-name="uniF377" unicode="&#xf377;" horiz-adv-x="262" 
d="M-28 646c0 38 34 67 78 67c39 0 76 -29 76 -67c0 -41 -37 -68 -76 -68c-44 0 -78 27 -78 68zM136 646c0 38 35 67 78 67c40 0 76 -29 76 -67c0 -41 -36 -68 -76 -68c-43 0 -78 27 -78 68zM56 0v560h150v-560h-150z" />
    <glyph glyph-name="uniF378" unicode="&#xf378;" horiz-adv-x="413" 
d="M366 560v-381c0 -123 -71 -189 -181 -189c-107 0 -165 50 -195 110l109 84c12 -27 42 -54 72 -54c32 0 45 15 45 79v351h150z" />
    <glyph glyph-name="uniF379" unicode="&#xf379;" horiz-adv-x="880" 
d="M393 0v420h-120l-5 -47c-36 -341 -135 -381 -239 -375l-29 2l1 142c34 -3 104 27 123 282l10 136h409v-183h77c179 0 245 -71 245 -184c0 -128 -101 -193 -254 -193h-218zM618 237h-75v-97h73c62 0 94 7 94 53c0 38 -31 44 -92 44z" />
    <glyph glyph-name="uniF37A" unicode="&#xf37a;" horiz-adv-x="891" 
d="M561 365h77c162 0 238 -64 238 -179c0 -129 -94 -186 -246 -186h-219v224h-208v-224h-150v560h150v-195h208v195h150v-195zM637 224h-76v-84h74c62 0 86 2 86 46c0 36 -24 38 -84 38z" />
    <glyph glyph-name="uniF37B" unicode="&#xf37b;" horiz-adv-x="630" 
d="M-1 420v140h516v-140h-186v-61c23 8 51 16 85 16c118 0 192 -56 192 -196v-179h-150v161c0 28 -14 74 -62 74c-24 0 -48 -8 -65 -25v-210h-150v420h-180z" />
    <glyph glyph-name="uniF37C" unicode="&#xf37c;" horiz-adv-x="608" 
d="M53 0v560h150v-201l205 201h195l-251 -245l266 -315h-197l-183 214l-35 -33v-181h-150zM424 771l-132 -164l-100 70l123 176z" />
    <glyph glyph-name="uniF37E" unicode="&#xf37e;" horiz-adv-x="630" 
d="M155 24l64 120c4 -5 17 -7 21 -7c19 0 31 7 40 33l-280 390h187l166 -237l120 237h158l-214 -427c-43 -85 -89 -133 -174 -133c-23 0 -56 4 -88 24zM151 768h133c1 -32 16 -53 52 -53c35 0 49 20 49 53h132c-2 -114 -90 -163 -181 -163c-97 0 -183 47 -185 163z" />
    <glyph glyph-name="uniF37F" unicode="&#xf37f;" horiz-adv-x="640" 
d="M53 0v560h150v-420h234v420h150v-560h-194v-105h-146v105h-194z" />
    <glyph glyph-name="uniF381" unicode="&#xf381;" horiz-adv-x="609" 
d="M0 375v140h92v45h150v-45h177v-140h-177v-32h99c170 0 253 -43 253 -171s-97 -172 -260 -172h-242v375h-92zM339 203h-97v-63h95c69 0 102 -3 102 32c0 37 -32 31 -100 31z" />
    <glyph glyph-name="uniF389" unicode="&#xf389;" horiz-adv-x="664" 
d="M24 280c0 161 135 286 308 286c171 0 308 -120 308 -286c0 -165 -137 -286 -308 -286c-170 0 -308 120 -308 286zM332 139c59 0 111 24 137 72h-273c26 -48 80 -72 136 -72zM332 421c-56 0 -109 -24 -135 -70h269c-27 46 -81 70 -134 70z" />
    <glyph glyph-name="uniF38A" unicode="&#xf38a;" horiz-adv-x="654" 
d="M554 381l-183 -381h-103l-278 560h163l167 -340l103 221c38 83 103 127 167 127c31 0 63 -10 91 -30l-55 -126c-7 4 -15 6 -23 6c-14 -1 -34 -8 -49 -37z" />
    <glyph glyph-name="uniF393" unicode="&#xf393;" horiz-adv-x="506" 
d="M53 0v560h314v88h140v-228h-304v-420h-150z" />
    <glyph glyph-name="uniF3CF" unicode="&#xf3cf;" horiz-adv-x="955" 
d="M550 0h-114l-250 293v-293h-144v560h114l250 -294v294h144v-560zM574 378c0 91 65 154 166 154c102 0 167 -63 167 -154s-65 -155 -167 -155c-101 0 -166 64 -166 155zM704 378c0 -22 16 -34 36 -34c26 0 37 12 37 34c0 20 -16 32 -37 32c-23 0 -36 -12 -36 -32zM588 72
v125h306v-125h-306z" />
    <glyph glyph-name="uniF3D0" unicode="&#xf3d0;" horiz-adv-x="519" 
d="M153 768h133c1 -32 16 -53 52 -53c35 0 49 20 49 53h132c-2 -114 -90 -163 -181 -163c-97 0 -183 47 -185 163z" />
    <glyph glyph-name="uniF3E4" unicode="&#xf3e4;" horiz-adv-x="0" 
d="M-174 771l-132 -164l-100 70l123 176z" />
    <glyph glyph-name="uniF400" unicode="&#xf400;" horiz-adv-x="0" 
d="M-134 751l-132 -164l-100 70l123 176z" />
    <glyph glyph-name="uniF401" unicode="&#xf401;" horiz-adv-x="0" 
d="M-171 846l-240 -113l-57 99l228 142z" />
    <glyph glyph-name="uniF406" unicode="&#xf406;" horiz-adv-x="575" 
d="M173 863l64 77c26 -27 67 -60 143 -60c66 0 113 30 140 60l55 -78c-35 -59 -111 -112 -195 -112c-95 0 -174 59 -207 113z" />
    <glyph glyph-name="uniF407" unicode="&#xf407;" horiz-adv-x="527" 
d="M224 -157l54 65c14 -14 42 -28 81 -28c18 0 29 4 29 13c0 12 -16 17 -45 17h-6v90h75v-26c81 -5 116 -36 116 -90c0 -55 -38 -94 -139 -94c-98 0 -140 29 -165 53z" />
    <glyph glyph-name="uniF408" unicode="&#xf408;" horiz-adv-x="569" 
d="M385 945l184 -117l-58 -85l-128 66l-128 -66l-52 83l178 119h4z" />
    <glyph glyph-name="uniF409" unicode="&#xf409;" horiz-adv-x="460" 
d="M287 -109l121 78c30 -22 52 -54 52 -94c0 -87 -58 -144 -104 -171l-69 50c21 22 32 48 32 75c0 25 -16 44 -32 62z" />
    <glyph glyph-name="uniF40A" unicode="&#xf40a;" horiz-adv-x="216" 
d="M42 665l122 76c38 -31 52 -69 52 -110c0 -82 -64 -149 -123 -185l-63 55c29 27 44 59 44 86c0 30 -17 58 -32 78z" />
    <glyph glyph-name="uniF40B" unicode="&#xf40b;" horiz-adv-x="473" 
d="M310 828c0 41 34 72 82 72c47 0 81 -31 81 -72c0 -43 -34 -74 -81 -74c-51 0 -82 31 -82 74z" />
    <glyph glyph-name="uniF40C" unicode="&#xf40c;" horiz-adv-x="546" 
d="M231 849c0 83 70 118 155 118c89 0 160 -35 160 -118c0 -81 -71 -121 -160 -121c-85 0 -155 40 -155 121zM341 849c0 -28 20 -41 47 -41s48 13 48 41c0 27 -21 38 -48 38s-47 -11 -47 -38z" />
    <glyph glyph-name="uniF40D" unicode="&#xf40d;" horiz-adv-x="556" 
d="M226 766l-46 94c30 37 80 63 125 63c60 0 81 -30 135 -30c23 0 53 3 78 30l38 -94c-28 -45 -71 -66 -126 -66c-50 0 -81 30 -138 30c-21 0 -43 -8 -66 -27z" />
    <glyph glyph-name="uniF40E" unicode="&#xf40e;" horiz-adv-x="469" 
d="M440 -70l45 -90c-17 -21 -67 -40 -120 -40c-78 0 -145 29 -145 95c0 93 137 129 249 128v-23c-58 0 -99 -30 -99 -54c0 -18 13 -26 30 -26s23 2 40 10z" />
    <glyph glyph-name="uniF410" unicode="&#xf410;" horiz-adv-x="0" 
d="M-298 733l-240 113l69 128l228 -142z" />
    <glyph glyph-name="uniF416" unicode="&#xf416;" horiz-adv-x="410" 
d="M237 -109l121 78c30 -22 52 -54 52 -94c0 -87 -58 -144 -104 -171l-69 50c21 22 32 48 32 75c0 25 -16 44 -32 62z" />
    <glyph glyph-name="uniF418" unicode="&#xf418;" horiz-adv-x="216" 
d="M42 505l122 76c38 -31 52 -69 52 -110c0 -82 -64 -149 -123 -185l-63 55c29 27 44 59 44 86c0 30 -17 58 -32 78z" />
    <glyph glyph-name="uniF447" unicode="&#xf447;" horiz-adv-x="529" 
d="M124 -161l44 69c14 -14 42 -28 81 -28c18 0 29 4 29 13c0 12 -16 17 -45 17h-6v90h-38v420h-185v140h521v-140h-186v-420h-37v-26c67 -6 106 -36 106 -90c0 -55 -50 -94 -151 -94c-76 0 -112 30 -133 49z" />
    <glyph glyph-name="uniF44E" unicode="&#xf44e;" horiz-adv-x="654" 
d="M20 240c0 37 11 92 23 116h430c-20 43 -75 70 -153 70c-48 0 -119 -10 -166 -64l-99 97c61 76 165 107 270 107c188 0 305 -110 305 -284c0 -166 -114 -288 -314 -288c-203 0 -296 128 -296 246zM475 216h-300c15 -50 57 -82 144 -82c84 0 141 31 156 82z" />
    <glyph glyph-name="uniF452" unicode="&#xf452;" horiz-adv-x="783" 
d="M53 0v560h458v-140h-308v-88h288v-140h-288v-192h-150zM576 0v560h150v-560h-150z" />
    <glyph glyph-name="uniF453" unicode="&#xf453;" horiz-adv-x="1048" 
d="M53 0v560h458v-140h-308v-88h288v-140h-288v-192h-150zM578 0v560h150v-420h311v-140h-461z" />
    <glyph glyph-name="zero.tab" unicode="&#xf4e0;" horiz-adv-x="620" 
d="M30 350c0 206 95 357 279 357c181 0 280 -151 280 -357c0 -207 -97 -357 -278 -357c-186 0 -281 150 -281 357zM190 350c0 -138 50 -207 121 -207c80 0 118 69 118 207c0 139 -42 207 -120 207c-71 0 -119 -70 -119 -207z" />
    <glyph glyph-name="one.tab" unicode="&#xf4e1;" horiz-adv-x="620" 
d="M61 0v145h207v371l-125 -57l-53 126l230 115h98v-555h136v-145h-493z" />
    <glyph glyph-name="two.tab" unicode="&#xf4e2;" horiz-adv-x="620" 
d="M155 445l-135 51c35 141 161 211 288 211c171 0 256 -101 256 -232c0 -134 -86 -218 -214 -300l-47 -30h268v-145h-541v113l83 58c162 113 291 192 291 290c0 61 -35 96 -102 96c-87 0 -125 -56 -147 -112z" />
    <glyph glyph-name="three.tab" unicode="&#xf4e3;" horiz-adv-x="620" 
d="M162 472l-124 58c40 107 119 179 284 179c145 0 246 -69 246 -187c0 -67 -32 -115 -91 -143c67 -24 114 -73 114 -162c0 -134 -102 -225 -267 -225c-143 0 -243 40 -298 185l136 61c19 -57 64 -101 146 -101c75 0 123 31 123 80s-46 71 -113 71h-102v140h82
c70 0 110 31 110 70c0 40 -29 66 -100 66c-86 0 -122 -40 -146 -92z" />
    <glyph glyph-name="four.tab" unicode="&#xf4e4;" horiz-adv-x="620" 
d="M363 0v122h-336v100l362 478h124v-443h87v-135h-87v-122h-150zM222 257h141v195z" />
    <glyph glyph-name="five.tab" unicode="&#xf4e5;" horiz-adv-x="620" 
d="M64 346l37 354h458v-145h-326l-13 -108c24 12 64 20 131 20c159 0 238 -95 238 -234c0 -146 -99 -241 -275 -241c-115 0 -227 42 -294 179l140 62c23 -54 87 -91 150 -91c81 0 119 35 119 88c0 60 -36 97 -121 97c-72 0 -94 -15 -139 -43z" />
    <glyph glyph-name="six.tab" unicode="&#xf4e6;" horiz-adv-x="620" 
d="M31 331c0 252 119 378 309 378c124 0 180 -41 228 -93l-86 -110c-38 33 -72 58 -142 58c-109 0 -154 -70 -154 -171c32 45 76 88 182 88c150 0 231 -94 231 -229c0 -154 -108 -261 -263 -261c-192 0 -305 120 -305 340zM210 250c1 -56 37 -114 113 -114
c74 0 116 44 116 107c0 60 -36 98 -107 98c-79 0 -110 -53 -122 -91z" />
    <glyph glyph-name="seven.tab" unicode="&#xf4e7;" horiz-adv-x="620" 
d="M35 555v145h550v-97l-303 -603h-161l280 555h-366z" />
    <glyph glyph-name="eight.tab" unicode="&#xf4e8;" horiz-adv-x="620" 
d="M297 424h28c44 0 88 25 88 74c0 47 -32 70 -104 70c-63 0 -102 -23 -102 -69c0 -42 35 -75 90 -75zM323 294h-23c-74 0 -114 -37 -114 -80c0 -52 46 -82 124 -82c77 0 124 28 124 79s-40 83 -111 83zM311 -8c-175 0 -285 79 -285 210c0 67 41 136 101 163
c-46 22 -80 87 -80 140c0 122 95 203 263 203c172 0 263 -81 263 -203c0 -53 -20 -106 -79 -136c70 -25 100 -94 100 -163c0 -136 -113 -214 -283 -214z" />
    <glyph glyph-name="nine.tab" unicode="&#xf4e9;" horiz-adv-x="620" 
d="M605 369c0 -252 -135 -378 -309 -378c-124 0 -210 51 -258 103l86 110c38 -33 86 -68 172 -68c110 0 155 79 154 151c-30 -36 -66 -68 -168 -68c-158 0 -265 94 -265 236c0 147 111 254 284 254c183 0 304 -120 304 -340zM432 430c-2 70 -47 134 -121 134
c-88 0 -134 -44 -134 -101c0 -66 50 -104 122 -104c79 0 121 33 133 71z" />
    <glyph glyph-name="dollar.tab" unicode="&#xf4ec;" horiz-adv-x="620" 
d="M439 194c0 122 -390 55 -390 309c0 94 75 181 199 206v70h149v-70c83 -17 150 -60 197 -122l-104 -100c-40 44 -98 84 -176 84c-72 0 -105 -26 -105 -66c0 -107 390 -46 390 -299c0 -109 -84 -194 -202 -216v-78h-149v80c-120 21 -199 88 -238 163l113 94
c46 -74 121 -120 207 -120c78 0 109 30 109 65z" />
    <glyph glyph-name="Euro.tab" unicode="&#xf4ed;" horiz-adv-x="620" 
d="M1 371l50 124h65c49 125 155 213 313 213c88 0 145 -20 188 -55l-54 -113c-38 24 -74 37 -134 37c-67 0 -112 -29 -147 -82h271l-46 -124h-264v-42h249l-39 -123h-180c29 -51 89 -84 166 -84c29 0 84 12 120 38l41 -116c-31 -27 -96 -52 -164 -52
c-168 0 -273 74 -326 214h-106l47 123h39c-1 5 -1 11 -1 17c0 7 0 17 1 25h-89z" />
    <glyph glyph-name="cent.tab" unicode="&#xf4ee;" horiz-adv-x="620" 
d="M461 195l106 -63c-35 -69 -94 -113 -162 -131v-201h-155v201c-131 28 -210 124 -210 260c0 129 82 232 210 261v178h155v-178c79 -19 133 -64 158 -121l-108 -70c-21 29 -43 47 -70 57v-256c33 9 57 32 76 63zM190 261c0 -48 32 -102 80 -116v237
c-54 -19 -80 -64 -80 -121z" />
    <glyph glyph-name="sterling.tab" unicode="&#xf4ef;" horiz-adv-x="620" 
d="M55 248v124h47c-14 32 -27 69 -27 121c0 111 89 214 234 214c86 0 168 -32 227 -98l-82 -116c-57 56 -106 69 -147 69c-42 0 -77 -26 -77 -80c0 -35 18 -68 34 -110h166v-124h-141v-12c0 -25 -8 -55 -23 -74c48 -2 103 -35 151 -35c41 0 61 14 94 57l77 -98
c-42 -55 -98 -86 -168 -86c-87 0 -145 42 -221 42c-38 0 -76 -10 -120 -53l-69 107c37 36 74 57 106 66c17 23 22 47 22 71v15h-83z" />
    <glyph glyph-name="yen.tab" unicode="&#xf4fa;" horiz-adv-x="620" 
d="M82 301v126h70l-162 273h187l134 -247l136 247h183l-165 -273h72v-126h-151v-65h151v-126h-151v-110h-155v110h-149v126h149v65h-149z" />
    <glyph glyph-name="florin.tab" unicode="&#xf4fb;" horiz-adv-x="620" 
d="M403 465c0 -1 -1 -2 -1 -4h132v-135h-156l-57 -319c-20 -116 -64 -215 -192 -215c-52 0 -101 21 -135 58l50 112c23 -24 49 -35 75 -35c27 0 46 20 55 68l61 331h-123v135h147l4 26c19 123 75 222 221 222c68 0 104 -17 133 -41l-53 -116c-22 14 -43 22 -72 22
c-53 0 -72 -32 -89 -109z" />
    <glyph glyph-name="uni20B4.tab" unicode="&#xf4fc;" horiz-adv-x="620" 
d="M40 387v120h336c3 4 6 12 6 23c0 21 -19 34 -75 34c-71 0 -118 -14 -153 -37l-62 121c53 38 122 61 226 61c108 0 219 -62 219 -148c0 -26 -5 -43 -12 -54h56v-120h-138c-33 -25 -76 -41 -104 -54h242v-120h-339c-5 -9 -10 -16 -10 -29c0 -34 38 -48 97 -48
c85 0 143 31 171 52l66 -102c-40 -62 -162 -95 -244 -95c-142 0 -245 57 -245 175c0 28 5 35 9 47h-46v120h127c72 33 96 39 125 54h-252z" />
    <glyph glyph-name="uni20BD.tab" unicode="&#xf4fd;" horiz-adv-x="620" 
d="M30 287v135h98v278c16 0 96 0 125 1c28 0 58 1 75 1c192 0 271 -88 271 -203c0 -119 -81 -212 -271 -212h-50v-42h160v-135h-160v-110h-150v110h-98v135h98v42h-98zM333 567h-55v-145h48c79 0 118 20 118 74s-39 71 -111 71z" />
    <glyph glyph-name="uniF66D" unicode="&#xf66d;" 
d="M-5 0l261 559h110l261 -559h-157l-42 85h-235l-43 -85h-155zM310 334l-66 -124h129zM145 707l66 75c21 -23 52 -52 105 -52c49 0 90 26 110 50l51 -72c-28 -42 -73 -98 -167 -98c-92 0 -146 64 -165 97z" />
    <glyph glyph-name="uniF66E" unicode="&#xf66e;" 
d="M-5 0l261 559h110l261 -559h-157l-42 85h-235l-43 -85h-155zM310 334l-66 -124h129zM164 630v120h294v-120h-294z" />
    <glyph glyph-name="uniF66F" unicode="&#xf66f;" 
d="M596 -70l45 -90c-17 -21 -67 -40 -120 -40c-78 0 -145 29 -145 95c0 54 42 87 93 106l-41 84h-235l-43 -85h-155l261 559h110l261 -559h-42c-35 0 -59 -26 -59 -50c0 -19 13 -30 30 -30s23 2 40 10zM310 334l-66 -124h129z" />
    <glyph glyph-name="uniF671" unicode="&#xf671;" horiz-adv-x="594" 
d="M499 209l89 -96c-56 -81 -152 -123 -260 -123c-185 0 -304 117 -304 290c0 160 126 290 310 290c109 0 201 -43 245 -113l-103 -92c-32 41 -92 60 -130 60c-96 0 -167 -53 -167 -145c0 -86 71 -145 162 -145c60 0 117 23 158 74zM467 771l-132 -164l-100 70l123 176z" />
    <glyph glyph-name="uniF672" unicode="&#xf672;" horiz-adv-x="594" 
d="M499 209l89 -96c-56 -81 -152 -123 -260 -123c-185 0 -304 117 -304 290c0 160 126 290 310 290c109 0 201 -43 245 -113l-103 -92c-32 41 -92 60 -130 60c-96 0 -167 -53 -167 -145c0 -86 71 -145 162 -145c60 0 117 23 158 74zM314 598l-165 136l70 88l98 -81l100 79
l67 -87l-166 -135h-4z" />
    <glyph glyph-name="uniF673" unicode="&#xf673;" horiz-adv-x="594" 
d="M499 209l89 -96c-56 -81 -152 -123 -260 -123c-185 0 -304 117 -304 290c0 160 126 290 310 290c109 0 201 -43 245 -113l-103 -92c-32 41 -92 60 -130 60c-96 0 -167 -53 -167 -145c0 -86 71 -145 162 -145c60 0 117 23 158 74zM312 816l165 -136l-70 -88l-98 81
l-100 -79l-67 87l166 135h4z" />
    <glyph glyph-name="uniF674" unicode="&#xf674;" horiz-adv-x="594" 
d="M499 209l89 -96c-56 -81 -152 -123 -260 -123c-185 0 -304 117 -304 290c0 160 126 290 310 290c109 0 201 -43 245 -113l-103 -92c-32 41 -92 60 -130 60c-96 0 -167 -53 -167 -145c0 -86 71 -145 162 -145c60 0 117 23 158 74zM240 698c0 41 34 72 82 72
c47 0 81 -31 81 -72c0 -43 -34 -74 -81 -74c-51 0 -82 31 -82 74z" />
    <glyph glyph-name="uniF675" unicode="&#xf675;" horiz-adv-x="615" 
d="M53 0v560h190c260 0 348 -126 348 -273c0 -160 -106 -287 -362 -287h-176zM242 420h-39v-280h40c139 0 193 55 193 147c0 83 -49 133 -194 133zM264 598l-165 136l70 88l98 -81l100 79l67 -87l-166 -135h-4z" />
    <glyph glyph-name="uniF676" unicode="&#xf676;" horiz-adv-x="673" 
d="M20 218v124h91v218h191c259 0 347 -126 347 -273c0 -160 -106 -287 -361 -287h-177v218h-91zM300 420h-39v-78h126v-124h-126v-78h40c139 0 193 55 193 147c0 83 -49 133 -194 133z" />
    <glyph glyph-name="uniF678" unicode="&#xf678;" horiz-adv-x="554" 
d="M53 0v560h453v-140h-303v-69h282v-135h-282v-76h310v-140h-460zM284 598l-165 136l70 88l98 -81l100 79l67 -87l-166 -135h-4z" />
    <glyph glyph-name="uniF679" unicode="&#xf679;" horiz-adv-x="554" 
d="M53 0v560h453v-140h-303v-69h282v-135h-282v-76h310v-140h-460zM210 698c0 41 34 72 82 72c47 0 81 -31 81 -72c0 -43 -34 -74 -81 -74c-51 0 -82 31 -82 74z" />
    <glyph glyph-name="uniF67A" unicode="&#xf67a;" horiz-adv-x="554" 
d="M53 0v560h453v-140h-303v-69h282v-135h-282v-76h310v-140h-460zM142 630v120h294v-120h-294z" />
    <glyph glyph-name="uniF67C" unicode="&#xf67c;" horiz-adv-x="554" 
d="M53 0v560h463v-140h-313v-69h292v-135h-292v-76h320v-140h-9c-32 -2 -54 -27 -54 -50c0 -19 13 -30 30 -30s23 2 40 10l45 -90c-17 -21 -67 -40 -120 -40c-78 0 -145 29 -145 95c0 53 40 86 90 105h-347z" />
    <glyph glyph-name="uniF67D" unicode="&#xf67d;" horiz-adv-x="616" 
d="M302 192v135h290v-235c-59 -63 -144 -102 -243 -102c-189 0 -325 117 -325 290c0 160 122 290 309 290c103 0 206 -44 246 -108l-105 -92c-33 36 -80 55 -136 55c-98 0 -159 -52 -159 -145c0 -97 72 -145 171 -145c34 0 71 8 98 24v33h-146zM162 707l66 75
c21 -23 52 -52 105 -52c49 0 90 26 110 50l51 -72c-28 -42 -73 -98 -167 -98c-92 0 -146 64 -165 97z" />
    <glyph glyph-name="uniF67E" unicode="&#xf67e;" horiz-adv-x="616" 
d="M302 192v135h290v-235c-59 -63 -144 -102 -243 -102c-189 0 -325 117 -325 290c0 160 122 290 309 290c103 0 206 -44 246 -108l-105 -92c-33 36 -80 55 -136 55c-98 0 -159 -52 -159 -145c0 -97 72 -145 171 -145c34 0 71 8 98 24v33h-146zM332 816l165 -136l-70 -88
l-98 81l-100 -79l-67 87l166 135h4z" />
    <glyph glyph-name="uniF67F" unicode="&#xf67f;" horiz-adv-x="616" 
d="M302 192v135h290v-235c-59 -63 -144 -102 -243 -102c-189 0 -325 117 -325 290c0 160 122 290 309 290c103 0 206 -44 246 -108l-105 -92c-33 36 -80 55 -136 55c-98 0 -159 -52 -159 -145c0 -97 72 -145 171 -145c34 0 71 8 98 24v33h-146zM247 -109l121 78
c30 -22 52 -54 52 -94c0 -87 -58 -144 -104 -171l-69 50c21 22 32 48 32 75c0 25 -16 44 -32 62z" />
    <glyph glyph-name="uniF680" unicode="&#xf680;" horiz-adv-x="616" 
d="M302 192v135h290v-235c-59 -63 -144 -102 -243 -102c-189 0 -325 117 -325 290c0 160 122 290 309 290c103 0 206 -44 246 -108l-105 -92c-33 36 -80 55 -136 55c-98 0 -159 -52 -159 -145c0 -97 72 -145 171 -145c34 0 71 8 98 24v33h-146zM250 698c0 41 34 72 82 72
c47 0 81 -31 81 -72c0 -43 -34 -74 -81 -74c-51 0 -82 31 -82 74z" />
    <glyph glyph-name="uniF681" unicode="&#xf681;" horiz-adv-x="639" 
d="M0 396v115h53v49h150v-49h234v49h150v-49h52v-115h-52v-396h-150v211h-234v-211h-150v396h-53zM203 351h234v45h-234v-45z" />
    <glyph glyph-name="uniF682" unicode="&#xf682;" horiz-adv-x="640" 
d="M437 0v211h-234v-211h-150v560h150v-209h234v209h150v-560h-150zM323 816l165 -136l-70 -88l-98 81l-100 -79l-67 87l166 135h4z" />
    <glyph glyph-name="uniF685" unicode="&#xf685;" horiz-adv-x="262" 
d="M56 0v560h150v-560h-150zM-16 630v120h294v-120h-294z" />
    <glyph glyph-name="uniF686" unicode="&#xf686;" horiz-adv-x="262" 
d="M56 0v560h150v-560h-2c-35 0 -59 -26 -59 -50c0 -19 13 -30 30 -30s23 2 40 10l45 -90c-17 -21 -67 -40 -120 -40c-78 0 -145 29 -145 95c0 53 40 86 90 105h-29z" />
    <glyph glyph-name="uniF688" unicode="&#xf688;" horiz-adv-x="413" 
d="M366 560v-381c0 -123 -71 -189 -181 -189c-107 0 -165 50 -195 110l109 84c12 -27 42 -54 72 -54c32 0 45 15 45 79v351h150zM282 816l165 -136l-70 -88l-98 81l-100 -79l-67 87l166 135h4z" />
    <glyph glyph-name="uniF689" unicode="&#xf689;" horiz-adv-x="608" 
d="M53 0v560h150v-201l205 201h195l-251 -245l266 -315h-197l-183 214l-35 -33v-181h-150zM197 -109l121 78c30 -22 52 -54 52 -94c0 -87 -58 -144 -104 -171l-69 50c21 22 32 48 32 75c0 25 -16 44 -32 62z" />
    <glyph glyph-name="uniF68A" unicode="&#xf68a;" horiz-adv-x="523" 
d="M53 0v560h150v-420h311v-140h-461zM377 771l-132 -164l-100 70l123 176z" />
    <glyph glyph-name="uniF68B" unicode="&#xf68b;" horiz-adv-x="523" 
d="M53 0v560h150v-420h311v-140h-461zM328 560h154c10 -16 14 -44 14 -70c0 -82 -64 -149 -123 -185l-63 55c35 35 44 79 44 106c0 38 -11 74 -26 94z" />
    <glyph glyph-name="uniF68C" unicode="&#xf68c;" horiz-adv-x="523" 
d="M53 0v560h150v-420h311v-140h-461zM197 -109l121 78c30 -22 52 -54 52 -94c0 -87 -58 -144 -104 -171l-69 50c21 22 32 48 32 75c0 25 -16 44 -32 62z" />
    <glyph glyph-name="uniF68D" unicode="&#xf68d;" horiz-adv-x="523" 
d="M53 0v560h150v-420h311v-140h-461zM291 301c0 41 37 85 94 85c52 0 92 -44 92 -85c0 -45 -40 -87 -92 -87c-57 0 -94 42 -94 87z" />
    <glyph glyph-name="uniF68E" unicode="&#xf68e;" horiz-adv-x="631" 
d="M578 0h-116l-263 304v-304h-146v560h115l264 -304v304h146v-560zM447 771l-132 -164l-100 70l123 176z" />
    <glyph glyph-name="uniF68F" unicode="&#xf68f;" horiz-adv-x="631" 
d="M578 0h-116l-263 304v-304h-146v560h115l264 -304v304h146v-560zM313 598l-165 136l70 88l98 -81l100 79l67 -87l-166 -135h-4z" />
    <glyph glyph-name="uniF690" unicode="&#xf690;" horiz-adv-x="631" 
d="M578 0h-116l-263 304v-304h-146v560h115l264 -304v304h146v-560zM227 -109l121 78c30 -22 52 -54 52 -94c0 -87 -58 -144 -104 -171l-69 50c21 22 32 48 32 75c0 25 -16 44 -32 62z" />
    <glyph glyph-name="uniF692" unicode="&#xf692;" horiz-adv-x="664" 
d="M24 280c0 161 135 290 308 290c171 0 308 -124 308 -290c0 -165 -137 -290 -308 -290c-170 0 -308 124 -308 290zM179 280c0 -92 74 -145 153 -145c83 0 153 53 153 145s-77 145 -153 145c-79 0 -153 -53 -153 -145zM554 761l-142 -154l-76 57l125 169zM378 777
l-125 -170l-77 58l109 178z" />
    <glyph glyph-name="uniF693" unicode="&#xf693;" horiz-adv-x="664" 
d="M24 280c0 161 135 290 308 290c171 0 308 -124 308 -290c0 -165 -137 -290 -308 -290c-170 0 -308 124 -308 290zM179 280c0 -92 74 -145 153 -145c83 0 153 53 153 145s-77 145 -153 145c-79 0 -153 -53 -153 -145zM185 630v120h294v-120h-294z" />
    <glyph glyph-name="uniF695" unicode="&#xf695;" horiz-adv-x="589" 
d="M203 0h-150v560h245c192 0 244 -94 244 -190c0 -68 -40 -135 -107 -166l158 -204h-181l-135 177h-74v-177zM295 420h-92v-103h97c57 0 87 18 87 53c0 31 -18 50 -92 50zM407 771l-132 -164l-100 70l123 176z" />
    <glyph glyph-name="uniF696" unicode="&#xf696;" horiz-adv-x="589" 
d="M203 0h-150v560h245c192 0 244 -94 244 -190c0 -68 -40 -135 -107 -166l158 -204h-181l-135 177h-74v-177zM295 420h-92v-103h97c57 0 87 18 87 53c0 31 -18 50 -92 50zM274 598l-165 136l70 88l98 -81l100 79l67 -87l-166 -135h-4z" />
    <glyph glyph-name="uniF697" unicode="&#xf697;" horiz-adv-x="589" 
d="M203 0h-150v560h245c192 0 244 -94 244 -190c0 -68 -40 -135 -107 -166l158 -204h-181l-135 177h-74v-177zM295 420h-92v-103h97c57 0 87 18 87 53c0 31 -18 50 -92 50zM197 -109l121 78c30 -22 52 -54 52 -94c0 -87 -58 -144 -104 -171l-69 50c21 22 32 48 32 75
c0 25 -16 44 -32 62z" />
    <glyph glyph-name="uniF698" unicode="&#xf698;" horiz-adv-x="537" 
d="M370 170c0 88 -340 5 -340 223c0 103 101 177 244 177c104 0 201 -34 244 -93l-87 -98c-60 36 -101 51 -175 51c-42 0 -71 -15 -71 -39c0 -79 340 2 340 -221c0 -105 -95 -180 -239 -180c-109 0 -222 42 -276 99l79 112c68 -54 144 -71 221 -71c41 0 60 14 60 40z
M407 771l-132 -164l-100 70l123 176z" />
    <glyph glyph-name="uniF699" unicode="&#xf699;" horiz-adv-x="514" 
d="M121 -161l44 69c14 -14 42 -28 81 -28c18 0 29 4 29 13c0 12 -16 17 -45 17h-6v88c-92 13 -179 63 -214 116l89 109c53 -62 121 -89 195 -89c38 0 53 10 53 25c0 69 -320 36 -320 238c0 91 91 169 234 169c104 0 185 -35 238 -104l-101 -97c-33 36 -81 61 -155 61
c-42 0 -61 -11 -61 -28c0 -59 320 -40 320 -228c0 -99 -75 -168 -203 -175v-21c67 -6 106 -36 106 -90c0 -55 -50 -94 -151 -94c-76 0 -112 30 -133 49z" />
    <glyph glyph-name="uniF69A" unicode="&#xf69a;" horiz-adv-x="537" 
d="M370 170c0 88 -340 5 -340 223c0 103 101 177 244 177c104 0 201 -34 244 -93l-87 -98c-60 36 -101 51 -175 51c-42 0 -71 -15 -71 -39c0 -79 340 2 340 -221c0 -105 -95 -180 -239 -180c-109 0 -222 42 -276 99l79 112c68 -54 144 -71 221 -71c41 0 60 14 60 40z
M272 816l165 -136l-70 -88l-98 81l-100 -79l-67 87l166 135h4z" />
    <glyph glyph-name="uniF69B" unicode="&#xf69b;" horiz-adv-x="537" 
d="M370 170c0 88 -340 5 -340 223c0 103 101 177 244 177c104 0 201 -34 244 -93l-87 -98c-60 36 -101 51 -175 51c-42 0 -71 -15 -71 -39c0 -79 340 2 340 -221c0 -105 -95 -180 -239 -180c-109 0 -222 42 -276 99l79 112c68 -54 144 -71 221 -71c41 0 60 14 60 40z
M197 -109l121 78c30 -22 52 -54 52 -94c0 -87 -58 -144 -104 -171l-69 50c21 22 32 48 32 75c0 25 -16 44 -32 62z" />
    <glyph glyph-name="uniF69D" unicode="&#xf69d;" horiz-adv-x="529" 
d="M4 415v145h521v-145h-186v-415h-150v415h-185zM262 598l-165 136l70 88l98 -81l100 79l67 -87l-166 -135h-4z" />
    <glyph glyph-name="uniF69E" unicode="&#xf69e;" horiz-adv-x="529" 
d="M4 415v145h521v-145h-186v-415h-150v415h-185zM182 -109l121 78c30 -22 52 -54 52 -94c0 -87 -58 -144 -104 -171l-69 50c21 22 32 48 32 75c0 25 -16 44 -32 62z" />
    <glyph glyph-name="uniF69F" unicode="&#xf69f;" 
d="M573 560v-318c0 -177 -128 -247 -255 -247c-143 0 -269 84 -269 251v314h150v-297c0 -58 34 -128 119 -128c77 0 105 62 105 125v300h150zM145 707l66 75c21 -23 52 -52 105 -52c49 0 90 26 110 50l51 -72c-28 -42 -73 -98 -167 -98c-92 0 -146 64 -165 97z" />
    <glyph glyph-name="uniF6A0" unicode="&#xf6a0;" 
d="M573 560v-318c0 -177 -128 -247 -255 -247c-143 0 -269 84 -269 251v314h150v-297c0 -58 34 -128 119 -128c77 0 105 62 105 125v300h150zM534 761l-142 -154l-76 57l125 169zM358 777l-125 -170l-77 58l109 178z" />
    <glyph glyph-name="uniF6A1" unicode="&#xf6a1;" 
d="M573 560v-318c0 -177 -128 -247 -255 -247c-143 0 -269 84 -269 251v314h150v-297c0 -58 34 -128 119 -128c77 0 105 62 105 125v300h150zM164 630v120h294v-120h-294z" />
    <glyph glyph-name="uniF6A2" unicode="&#xf6a2;" 
d="M573 560v-318c0 -129 -68 -202 -154 -231c-34 -24 -49 -48 -49 -65c0 -18 13 -26 30 -26s23 2 40 10l45 -90c-17 -21 -67 -40 -120 -40c-78 0 -145 29 -145 95c0 46 33 76 80 101c-135 6 -251 90 -251 250v314h150v-297c0 -58 34 -128 119 -128c77 0 105 62 105 125v300
h150z" />
    <glyph glyph-name="uniF6A3" unicode="&#xf6a3;" 
d="M573 560v-318c0 -177 -128 -247 -255 -247c-143 0 -269 84 -269 251v314h150v-297c0 -58 34 -128 119 -128c77 0 105 62 105 125v300h150zM173 731c0 71 57 129 137 129c81 0 139 -58 139 -129c0 -70 -58 -127 -139 -127c-80 0 -137 57 -137 127zM268 733
c0 -27 17 -44 44 -44c26 0 42 17 42 44c0 26 -16 42 -42 42c-27 0 -44 -16 -44 -42z" />
    <glyph glyph-name="uniF6AB" unicode="&#xf6ab;" horiz-adv-x="541" 
d="M22 420v140h495v-99l-293 -321h300v-140h-516v99l291 321h-277zM407 771l-132 -164l-100 70l123 176z" />
    <glyph glyph-name="uniF6AC" unicode="&#xf6ac;" horiz-adv-x="541" 
d="M22 420v140h495v-99l-293 -321h300v-140h-516v99l291 321h-277zM189 698c0 41 34 72 82 72c47 0 81 -31 81 -72c0 -43 -34 -74 -81 -74c-51 0 -82 31 -82 74z" />
    <glyph glyph-name="uniF6AD" unicode="&#xf6ad;" horiz-adv-x="262" 
d="M56 0v560h150v-560h-150zM50 698c0 41 34 72 82 72c47 0 81 -31 81 -72c0 -43 -34 -74 -81 -74c-51 0 -82 31 -82 74z" />
    <glyph glyph-name="uniF6BA" unicode="&#xf6ba;" horiz-adv-x="424" 
d="M60 299v130h304v-130h-304z" />
    <glyph glyph-name="uniF6BB" unicode="&#xf6bb;" horiz-adv-x="616" 
d="M80 301v126h456v-126h-456z" />
    <glyph glyph-name="uniF6BC" unicode="&#xf6bc;" horiz-adv-x="796" 
d="M80 301v126h636v-126h-636z" />
    <glyph glyph-name="uniF6C3" unicode="&#xf6c3;" horiz-adv-x="380" 
d="M207 -109l121 78c30 -22 52 -54 52 -94c0 -87 -58 -144 -104 -171l-69 50c21 22 32 48 32 75c0 25 -16 44 -32 62z" />
    <glyph glyph-name="uniF6C9" unicode="&#xf6c9;" horiz-adv-x="597" 
d="M597 846l-240 -113l-57 99l228 142z" />
    <glyph glyph-name="uniF6CA" unicode="&#xf6ca;" horiz-adv-x="567" 
d="M385 743l-184 117l58 85l128 -76l128 76l52 -83l-178 -119h-4z" />
    <glyph glyph-name="uniF6CB" unicode="&#xf6cb;" horiz-adv-x="531" 
d="M115 831c0 44 37 76 85 76c41 0 83 -32 83 -76c0 -46 -42 -77 -83 -77c-48 0 -85 31 -85 77zM364 831c0 44 40 76 85 76c41 0 82 -30 82 -76s-41 -77 -82 -77c-45 0 -85 31 -85 77z" />
    <glyph glyph-name="uniF6CE" unicode="&#xf6ce;" horiz-adv-x="496" 
d="M440 733l-240 113l69 128l228 -142z" />
    <glyph glyph-name="uniF6CF" unicode="&#xf6cf;" horiz-adv-x="664" 
d="M665 841l-204 -113l-61 63l159 144zM445 870l-167 -142l-64 58l101 149z" />
    <glyph glyph-name="uniF6D0" unicode="&#xf6d0;" horiz-adv-x="534" 
d="M220 770v120h314v-120h-314z" />
    <glyph glyph-name="uniF6D1" unicode="&#xf6d1;" horiz-adv-x="592" 
d="M193 893h130c9 -38 31 -51 60 -51c28 0 57 15 62 51h130c-5 -93 -101 -164 -186 -164c-122 0 -182 70 -196 164z" />
    <glyph glyph-name="uniF6D4" unicode="&#xf6d4;" horiz-adv-x="489" 
d="M123 738h133c1 -32 16 -53 52 -53c35 0 49 20 49 53h132c-2 -114 -90 -163 -181 -163c-97 0 -183 47 -185 163z" />
    <glyph glyph-name="uniF6F4" unicode="&#xf6f4;" horiz-adv-x="502" 
d="M169 707l66 75c21 -23 52 -52 105 -52c49 0 90 26 110 50l51 -72c-28 -42 -73 -98 -167 -98c-92 0 -146 64 -165 97z" />
    <glyph glyph-name="uniF6F5" unicode="&#xf6f5;" horiz-adv-x="494" 
d="M324 598l-165 136l70 88l98 -81l100 79l67 -87l-166 -135h-4z" />
    <glyph glyph-name="uniF6F6" unicode="&#xf6f6;" horiz-adv-x="498" 
d="M332 816l165 -136l-70 -88l-98 81l-100 -79l-67 87l166 135h4z" />
    <glyph glyph-name="uniF6F7" unicode="&#xf6f7;" horiz-adv-x="413" 
d="M250 698c0 41 34 72 82 72c47 0 81 -31 81 -72c0 -43 -34 -74 -81 -74c-51 0 -82 31 -82 74z" />
    <glyph glyph-name="uniF6F8" unicode="&#xf6f8;" horiz-adv-x="544" 
d="M544 761l-142 -154l-76 57l125 169zM368 777l-125 -170l-77 58l109 178z" />
    <glyph glyph-name="uniF6F9" unicode="&#xf6f9;" horiz-adv-x="535" 
d="M0 73v150l66 45v292h150v-189l149 102v-150l-149 -102v-81h311v-140h-461v118z" />
    <glyph glyph-name="uniF6FA" unicode="&#xf6fa;" horiz-adv-x="946" 
d="M445 0v18c-34 -15 -73 -24 -113 -24c-170 0 -308 120 -308 286c0 161 135 286 308 286c41 0 79 -8 113 -23v17h463v-140h-313v-69h292v-135h-292v-76h320v-140h-470zM332 139c44 0 85 13 113 40v199c-29 28 -71 43 -113 43c-79 0 -153 -49 -153 -141s74 -141 153 -141z
" />
    <glyph glyph-name="uniF6FB" unicode="&#xf6fb;" horiz-adv-x="395" 
d="M400 -70l45 -90c-17 -21 -67 -40 -120 -40c-78 0 -145 29 -145 95c0 93 124 124 209 128v-23c-35 0 -59 -26 -59 -50c0 -19 13 -30 30 -30s23 2 40 10z" />
    <glyph glyph-name="uniF6FC" unicode="&#xf6fc;" horiz-adv-x="483" 
d="M207 731c0 71 57 129 137 129c81 0 139 -58 139 -129c0 -70 -58 -127 -139 -127c-80 0 -137 57 -137 127zM302 733c0 -27 17 -44 44 -44c26 0 42 17 42 44c0 26 -16 42 -42 42c-27 0 -44 -16 -44 -42z" />
    <glyph glyph-name="uniF6FD" unicode="&#xf6fd;" horiz-adv-x="537" 
d="M370 170c0 88 -340 5 -340 223c0 103 101 177 244 177c104 0 201 -34 244 -93l-87 -98c-60 36 -101 51 -175 51c-42 0 -71 -15 -71 -39c0 -79 340 2 340 -221c0 -105 -95 -180 -239 -180c-109 0 -222 42 -276 99l79 112c68 -54 144 -71 221 -71c41 0 60 14 60 40z
M266 598l-165 136l70 88l98 -81l100 79l67 -87l-166 -135h-4z" />
    <glyph glyph-name="uniF6FE" unicode="&#xf6fe;" horiz-adv-x="520" 
d="M215 629l-60 67c38 54 88 78 132 78c47 0 77 -39 118 -39c33 0 47 10 66 27l49 -75c-36 -43 -83 -72 -127 -72s-74 39 -119 39c-20 0 -44 -13 -59 -25z" />
    <glyph glyph-name="uniF6FF" unicode="&#xf6ff;" horiz-adv-x="541" 
d="M22 420v140h495v-99l-293 -321h300v-140h-516v99l291 321h-277zM268 598l-165 136l70 88l98 -81l100 79l67 -87l-166 -135h-4z" />
    <glyph glyph-name="uniF760" unicode="&#xf760;" horiz-adv-x="414" 
d="M328 607l-147 160l114 86l119 -177z" />
    <glyph glyph-name="uniF761" unicode="&#xf761;" 
d="M-5 0l261 559h110l261 -559h-157l-42 85h-235l-43 -85h-155zM310 334l-66 -124h129z" />
    <glyph glyph-name="uniF762" unicode="&#xf762;" horiz-adv-x="588" 
d="M53 0v560h285c153 0 204 -59 204 -145c0 -52 -22 -86 -49 -116c43 -26 68 -62 68 -129c0 -120 -99 -170 -231 -170h-277zM318 218h-115v-78h109c70 0 92 11 92 38c0 30 -20 40 -86 40zM310 420h-107v-67h118c45 0 65 11 65 27c0 27 -14 40 -76 40z" />
    <glyph glyph-name="uniF763" unicode="&#xf763;" horiz-adv-x="594" 
d="M499 209l89 -96c-56 -81 -152 -123 -260 -123c-185 0 -304 117 -304 290c0 160 126 290 310 290c109 0 201 -43 245 -113l-103 -92c-32 41 -92 60 -130 60c-96 0 -167 -53 -167 -145c0 -86 71 -145 162 -145c60 0 117 23 158 74z" />
    <glyph glyph-name="uniF764" unicode="&#xf764;" horiz-adv-x="615" 
d="M53 0v560h190c260 0 348 -126 348 -273c0 -160 -106 -287 -362 -287h-176zM242 420h-39v-280h40c139 0 193 55 193 147c0 83 -49 133 -194 133z" />
    <glyph glyph-name="uniF765" unicode="&#xf765;" horiz-adv-x="554" 
d="M53 0v560h453v-140h-303v-69h282v-135h-282v-76h310v-140h-460z" />
    <glyph glyph-name="uniF766" unicode="&#xf766;" horiz-adv-x="530" 
d="M53 0v560h458v-140h-308v-88h288v-140h-288v-192h-150z" />
    <glyph glyph-name="uniF767" unicode="&#xf767;" horiz-adv-x="616" 
d="M302 192v135h290v-235c-59 -63 -144 -102 -243 -102c-189 0 -325 117 -325 290c0 160 122 290 309 290c103 0 206 -44 246 -108l-105 -92c-33 36 -80 55 -136 55c-98 0 -159 -52 -159 -145c0 -97 72 -145 171 -145c34 0 71 8 98 24v33h-146z" />
    <glyph glyph-name="uniF768" unicode="&#xf768;" horiz-adv-x="640" 
d="M437 0v211h-234v-211h-150v560h150v-209h234v209h150v-560h-150z" />
    <glyph glyph-name="uniF769" unicode="&#xf769;" horiz-adv-x="262" 
d="M56 0v560h150v-560h-150z" />
    <glyph glyph-name="uniF76A" unicode="&#xf76a;" horiz-adv-x="413" 
d="M366 560v-381c0 -123 -71 -189 -181 -189c-107 0 -165 50 -195 110l109 84c12 -27 42 -54 72 -54c32 0 45 15 45 79v351h150z" />
    <glyph glyph-name="uniF76B" unicode="&#xf76b;" horiz-adv-x="608" 
d="M53 0v560h150v-201l205 201h195l-251 -245l266 -315h-197l-183 214l-35 -33v-181h-150z" />
    <glyph glyph-name="uniF76C" unicode="&#xf76c;" horiz-adv-x="523" 
d="M53 0v560h150v-420h311v-140h-461z" />
    <glyph glyph-name="uniF76D" unicode="&#xf76d;" horiz-adv-x="728" 
d="M53 0v560h127l188 -213l181 213h126v-560h-150v306l-138 -165h-40l-144 169v-310h-150z" />
    <glyph glyph-name="uniF76E" unicode="&#xf76e;" horiz-adv-x="631" 
d="M578 0h-116l-263 304v-304h-146v560h115l264 -304v304h146v-560z" />
    <glyph glyph-name="uniF76F" unicode="&#xf76f;" horiz-adv-x="664" 
d="M24 280c0 161 135 290 308 290c171 0 308 -124 308 -290c0 -165 -137 -290 -308 -290c-170 0 -308 124 -308 290zM179 280c0 -92 74 -145 153 -145c83 0 153 53 153 145s-77 145 -153 145c-79 0 -153 -53 -153 -145z" />
    <glyph glyph-name="uniF770" unicode="&#xf770;" horiz-adv-x="586" 
d="M203 0h-150v560h253c204 0 256 -106 256 -201c0 -97 -66 -198 -255 -198h-104v-161zM310 420h-107v-119h102c71 0 102 21 102 59c0 34 -25 60 -97 60z" />
    <glyph glyph-name="uniF771" unicode="&#xf771;" horiz-adv-x="664" 
d="M24 280c0 161 135 290 308 290c171 0 308 -124 308 -290c0 -71 -22 -134 -73 -185l48 -56l-105 -83l-52 58c-38 -16 -80 -24 -126 -24c-184 0 -308 124 -308 290zM179 280c0 -92 64 -145 153 -145c14 0 28 4 40 5l-42 44l94 80l46 -51c11 17 15 41 15 67
c0 92 -64 145 -153 145s-153 -53 -153 -145z" />
    <glyph glyph-name="uniF772" unicode="&#xf772;" horiz-adv-x="589" 
d="M203 0h-150v560h245c192 0 244 -94 244 -190c0 -68 -40 -135 -107 -166l158 -204h-181l-135 177h-74v-177zM295 420h-92v-103h97c57 0 87 18 87 53c0 31 -18 50 -92 50z" />
    <glyph glyph-name="uniF773" unicode="&#xf773;" horiz-adv-x="537" 
d="M370 170c0 88 -340 5 -340 223c0 103 101 177 244 177c104 0 201 -34 244 -93l-87 -98c-60 36 -101 51 -175 51c-42 0 -71 -15 -71 -39c0 -79 340 2 340 -221c0 -105 -95 -180 -239 -180c-109 0 -222 42 -276 99l79 112c68 -54 144 -71 221 -71c41 0 60 14 60 40z" />
    <glyph glyph-name="uniF774" unicode="&#xf774;" horiz-adv-x="529" 
d="M4 415v145h521v-145h-186v-415h-150v415h-185z" />
    <glyph glyph-name="uniF775" unicode="&#xf775;" 
d="M573 560v-318c0 -177 -128 -247 -255 -247c-143 0 -269 84 -269 251v314h150v-297c0 -58 34 -128 119 -128c77 0 105 62 105 125v300h150z" />
    <glyph glyph-name="uniF776" unicode="&#xf776;" horiz-adv-x="626" 
d="M636 560l-265 -560h-103l-278 560h163l167 -340l155 340h161z" />
    <glyph glyph-name="uniF777" unicode="&#xf777;" horiz-adv-x="827" 
d="M828 560l-176 -560h-121l-115 291l-111 -291h-121l-185 560h154l98 -290l107 290h119l108 -287l94 287h149z" />
    <glyph glyph-name="uniF778" unicode="&#xf778;" horiz-adv-x="614" 
d="M611 560l-215 -276l222 -284h-184l-127 161l-128 -161h-183l223 284l-214 276h182l121 -152l121 152h182z" />
    <glyph glyph-name="uniF779" unicode="&#xf779;" horiz-adv-x="611" 
d="M621 560l-242 -361v-199h-150v199l-239 361h182l135 -203l135 203h179z" />
    <glyph glyph-name="uniF77A" unicode="&#xf77a;" horiz-adv-x="541" 
d="M22 420v140h495v-99l-293 -321h300v-140h-516v99l291 321h-277z" />
    <glyph glyph-name="uniF7A1" unicode="&#xf7a1;" horiz-adv-x="263" 
d="M59 0v401h146v-401h-146zM51 490c0 38 32 72 82 72c44 0 79 -34 79 -72c0 -33 -35 -70 -79 -70c-50 0 -82 37 -82 70z" />
    <glyph glyph-name="uniF7A8" unicode="&#xf7a8;" horiz-adv-x="508" 
d="M145 700c0 41 37 70 78 70c38 0 79 -29 79 -70c0 -45 -41 -72 -79 -72c-41 0 -78 27 -78 72zM349 700c0 41 38 70 81 70c41 0 79 -29 79 -70c0 -45 -36 -72 -79 -72s-81 27 -81 72z" />
    <glyph glyph-name="uniF7AF" unicode="&#xf7af;" horiz-adv-x="454" 
d="M160 630v120h294v-120h-294z" />
    <glyph glyph-name="uniF7B4" unicode="&#xf7b4;" horiz-adv-x="487" 
d="M487 771l-132 -164l-100 70l123 176z" />
    <glyph glyph-name="uniF7B8" unicode="&#xf7b8;" horiz-adv-x="477" 
d="M194 -161l44 69c14 -14 42 -28 81 -28c18 0 29 4 29 13c0 12 -16 17 -45 17h-6v90h75v-26c67 -6 106 -36 106 -90c0 -55 -50 -94 -151 -94c-76 0 -112 30 -133 49z" />
    <glyph glyph-name="uniF7BF" unicode="&#xf7bf;" horiz-adv-x="436" 
d="M160 168c0 -19 12 -28 42 -28c27 0 60 11 87 66l122 -58c-42 -120 -131 -154 -211 -154c-125 0 -195 63 -195 150c0 96 54 138 103 170c18 12 43 26 43 52c0 21 -3 26 -4 35l137 2c4 -9 9 -31 9 -40c1 -72 -44 -105 -91 -137c-25 -17 -42 -33 -42 -58zM301 490
c0 -33 -32 -70 -82 -70c-45 0 -79 37 -79 70c0 38 34 72 79 72c50 0 82 -34 82 -72z" />
    <glyph glyph-name="uniF7E0" unicode="&#xf7e0;" 
d="M-5 0l261 559h110l261 -559h-157l-42 85h-235l-43 -85h-155zM310 334l-66 -124h129zM323 607l-147 160l114 86l119 -177z" />
    <glyph glyph-name="uniF7E1" unicode="&#xf7e1;" 
d="M-5 0l261 559h110l261 -559h-157l-42 85h-235l-43 -85h-155zM310 334l-66 -124h129zM452 771l-132 -164l-100 70l123 176z" />
    <glyph glyph-name="uniF7E2" unicode="&#xf7e2;" 
d="M-5 0l261 559h110l261 -559h-157l-42 85h-235l-43 -85h-155zM310 334l-66 -124h129zM314 816l165 -136l-70 -88l-98 81l-100 -79l-67 87l166 135h4z" />
    <glyph glyph-name="uniF7E3" unicode="&#xf7e3;" 
d="M-5 0l261 559h110l261 -559h-157l-42 85h-235l-43 -85h-155zM310 334l-66 -124h129zM189 629l-60 67c38 54 88 78 132 78c47 0 77 -39 118 -39c33 0 47 10 66 27l49 -75c-36 -43 -83 -72 -127 -72s-74 39 -119 39c-20 0 -44 -13 -59 -25z" />
    <glyph glyph-name="uniF7E4" unicode="&#xf7e4;" 
d="M-5 0l261 559h110l261 -559h-157l-42 85h-235l-43 -85h-155zM310 334l-66 -124h129zM129 700c0 41 37 70 78 70c38 0 79 -29 79 -70c0 -45 -41 -72 -79 -72c-41 0 -78 27 -78 72zM333 700c0 41 38 70 81 70c41 0 79 -29 79 -70c0 -45 -36 -72 -79 -72s-81 27 -81 72z" />
    <glyph glyph-name="uniF7E5" unicode="&#xf7e5;" 
d="M-5 0l261 559h110l261 -559h-157l-42 85h-235l-43 -85h-155zM310 334l-66 -124h129zM173 731c0 71 57 129 137 129c81 0 139 -58 139 -129c0 -70 -58 -127 -139 -127c-80 0 -137 57 -137 127zM268 733c0 -27 17 -44 44 -44c26 0 42 17 42 44c0 26 -16 42 -42 42
c-27 0 -44 -16 -44 -42z" />
    <glyph glyph-name="uniF7E6" unicode="&#xf7e6;" horiz-adv-x="992" 
d="M491 0v85h-249l-78 -85h-164l452 560h501v-140h-312v-69h292v-135h-292v-76h320v-140h-470zM332 210h159v194z" />
    <glyph glyph-name="uniF7E7" unicode="&#xf7e7;" horiz-adv-x="594" 
d="M184 -161l44 69c14 -14 42 -28 81 -28c18 0 29 4 29 13c0 12 -16 17 -45 17h-6v86c-162 15 -263 124 -263 284s126 286 310 286c109 0 201 -39 245 -109l-103 -92c-32 41 -92 56 -130 56c-96 0 -167 -49 -167 -141c0 -86 71 -141 162 -141c60 0 117 19 158 70l89 -96
c-50 -73 -132 -111 -226 -118v-21c67 -6 106 -36 106 -90c0 -55 -50 -94 -151 -94c-76 0 -112 30 -133 49z" />
    <glyph glyph-name="uniF7E8" unicode="&#xf7e8;" horiz-adv-x="554" 
d="M53 0v560h453v-140h-303v-69h282v-135h-282v-76h310v-140h-460zM308 607l-147 160l114 86l119 -177z" />
    <glyph glyph-name="uniF7E9" unicode="&#xf7e9;" horiz-adv-x="554" 
d="M53 0v560h453v-140h-303v-69h282v-135h-282v-76h310v-140h-460zM427 771l-132 -164l-100 70l123 176z" />
    <glyph glyph-name="uniF7EA" unicode="&#xf7ea;" horiz-adv-x="554" 
d="M53 0v560h453v-140h-303v-69h282v-135h-282v-76h310v-140h-460zM292 816l165 -136l-70 -88l-98 81l-100 -79l-67 87l166 135h4z" />
    <glyph glyph-name="uniF7EB" unicode="&#xf7eb;" horiz-adv-x="554" 
d="M53 0v560h453v-140h-303v-69h282v-135h-282v-76h310v-140h-460zM95 700c0 41 37 70 78 70c38 0 79 -29 79 -70c0 -45 -41 -72 -79 -72c-41 0 -78 27 -78 72zM299 700c0 41 38 70 81 70c41 0 79 -29 79 -70c0 -45 -36 -72 -79 -72s-81 27 -81 72z" />
    <glyph glyph-name="uniF7EC" unicode="&#xf7ec;" horiz-adv-x="262" 
d="M56 0v560h150v-560h-150zM148 607l-147 160l114 86l119 -177z" />
    <glyph glyph-name="uniF7ED" unicode="&#xf7ed;" horiz-adv-x="262" 
d="M56 0v560h150v-560h-150zM277 771l-132 -164l-100 70l123 176z" />
    <glyph glyph-name="uniF7EE" unicode="&#xf7ee;" horiz-adv-x="262" 
d="M56 0v560h150v-560h-150zM134 816l165 -136l-70 -88l-98 81l-100 -79l-67 87l166 135h4z" />
    <glyph glyph-name="uniF7EF" unicode="&#xf7ef;" horiz-adv-x="262" 
d="M56 0v560h150v-560h-150zM-51 700c0 41 37 70 78 70c38 0 79 -29 79 -70c0 -45 -41 -72 -79 -72c-41 0 -78 27 -78 72zM153 700c0 41 38 70 81 70c41 0 79 -29 79 -70c0 -45 -36 -72 -79 -72s-81 27 -81 72z" />
    <glyph glyph-name="uniF7F0" unicode="&#xf7f0;" horiz-adv-x="673" 
d="M20 218v124h91v218h191c259 0 347 -126 347 -273c0 -160 -106 -287 -361 -287h-177v218h-91zM300 420h-39v-78h126v-124h-126v-78h40c139 0 193 55 193 147c0 83 -49 133 -194 133z" />
    <glyph glyph-name="uniF7F1" unicode="&#xf7f1;" horiz-adv-x="631" 
d="M578 0h-116l-263 304v-304h-146v560h115l264 -304v304h146v-560zM183 629l-60 67c38 54 88 78 132 78c47 0 77 -39 118 -39c33 0 47 10 66 27l49 -75c-36 -43 -83 -72 -127 -72s-74 39 -119 39c-20 0 -44 -13 -59 -25z" />
    <glyph glyph-name="uniF7F2" unicode="&#xf7f2;" horiz-adv-x="664" 
d="M24 280c0 161 135 290 308 290c171 0 308 -124 308 -290c0 -165 -137 -290 -308 -290c-170 0 -308 124 -308 290zM179 280c0 -92 74 -145 153 -145c83 0 153 53 153 145s-77 145 -153 145c-79 0 -153 -53 -153 -145zM328 607l-147 160l114 86l119 -177z" />
    <glyph glyph-name="uniF7F3" unicode="&#xf7f3;" horiz-adv-x="664" 
d="M24 280c0 161 135 290 308 290c171 0 308 -124 308 -290c0 -165 -137 -290 -308 -290c-170 0 -308 124 -308 290zM179 280c0 -92 74 -145 153 -145c83 0 153 53 153 145s-77 145 -153 145c-79 0 -153 -53 -153 -145zM487 771l-132 -164l-100 70l123 176z" />
    <glyph glyph-name="uniF7F4" unicode="&#xf7f4;" horiz-adv-x="664" 
d="M24 280c0 161 135 290 308 290c171 0 308 -124 308 -290c0 -165 -137 -290 -308 -290c-170 0 -308 124 -308 290zM179 280c0 -92 74 -145 153 -145c83 0 153 53 153 145s-77 145 -153 145c-79 0 -153 -53 -153 -145zM335 816l165 -136l-70 -88l-98 81l-100 -79l-67 87
l166 135h4z" />
    <glyph glyph-name="uniF7F5" unicode="&#xf7f5;" horiz-adv-x="664" 
d="M24 280c0 161 135 290 308 290c171 0 308 -124 308 -290c0 -165 -137 -290 -308 -290c-170 0 -308 124 -308 290zM179 280c0 -92 74 -145 153 -145c83 0 153 53 153 145s-77 145 -153 145c-79 0 -153 -53 -153 -145zM210 629l-60 67c38 54 88 78 132 78
c47 0 77 -39 118 -39c33 0 47 10 66 27l49 -75c-36 -43 -83 -72 -127 -72s-74 39 -119 39c-20 0 -44 -13 -59 -25z" />
    <glyph glyph-name="uniF7F6" unicode="&#xf7f6;" horiz-adv-x="664" 
d="M24 280c0 161 135 290 308 290c171 0 308 -124 308 -290c0 -165 -137 -290 -308 -290c-170 0 -308 124 -308 290zM179 280c0 -92 74 -145 153 -145c83 0 153 53 153 145s-77 145 -153 145c-79 0 -153 -53 -153 -145zM150 700c0 41 37 70 78 70c38 0 79 -29 79 -70
c0 -45 -41 -72 -79 -72c-41 0 -78 27 -78 72zM354 700c0 41 38 70 81 70c41 0 79 -29 79 -70c0 -45 -36 -72 -79 -72s-81 27 -81 72z" />
    <glyph glyph-name="uniF7F8" unicode="&#xf7f8;" horiz-adv-x="664" 
d="M43 55l43 49c-39 48 -62 108 -62 176c0 161 135 286 308 286c48 0 94 -10 134 -27l46 52l105 -84l-42 -48c41 -48 65 -110 65 -179c0 -165 -137 -286 -308 -286c-49 0 -95 10 -136 28l-47 -54zM485 280c0 22 -5 43 -13 60l-172 -198c10 -2 21 -3 32 -3
c83 0 153 49 153 141zM179 280c0 -21 4 -40 11 -57l171 195c-10 2 -20 3 -29 3c-79 0 -153 -49 -153 -141z" />
    <glyph glyph-name="uniF7F9" unicode="&#xf7f9;" 
d="M573 560v-318c0 -177 -128 -247 -255 -247c-143 0 -269 84 -269 251v314h150v-297c0 -58 34 -128 119 -128c77 0 105 62 105 125v300h150zM308 607l-147 160l114 86l119 -177z" />
    <glyph glyph-name="uniF7FA" unicode="&#xf7fa;" 
d="M573 560v-318c0 -177 -128 -247 -255 -247c-143 0 -269 84 -269 251v314h150v-297c0 -58 34 -128 119 -128c77 0 105 62 105 125v300h150zM457 771l-132 -164l-100 70l123 176z" />
    <glyph glyph-name="uniF7FB" unicode="&#xf7fb;" 
d="M573 560v-318c0 -177 -128 -247 -255 -247c-143 0 -269 84 -269 251v314h150v-297c0 -58 34 -128 119 -128c77 0 105 62 105 125v300h150zM314 816l165 -136l-70 -88l-98 81l-100 -79l-67 87l166 135h4z" />
    <glyph glyph-name="uniF7FC" unicode="&#xf7fc;" 
d="M573 560v-318c0 -177 -128 -247 -255 -247c-143 0 -269 84 -269 251v314h150v-297c0 -58 34 -128 119 -128c77 0 105 62 105 125v300h150zM129 700c0 41 37 70 78 70c38 0 79 -29 79 -70c0 -45 -41 -72 -79 -72c-41 0 -78 27 -78 72zM333 700c0 41 38 70 81 70
c41 0 79 -29 79 -70c0 -45 -36 -72 -79 -72s-81 27 -81 72z" />
    <glyph glyph-name="uniF7FD" unicode="&#xf7fd;" horiz-adv-x="611" 
d="M621 560l-242 -361v-199h-150v199l-239 361h182l135 -203l135 203h179zM437 771l-132 -164l-100 70l123 176z" />
    <glyph glyph-name="uniF7FE" unicode="&#xf7fe;" horiz-adv-x="566" 
d="M203 0h-150v560h150v-75h83c204 0 256 -106 256 -201c0 -97 -66 -198 -255 -198h-84v-86zM290 345h-87v-119h82c71 0 102 21 102 59c0 34 -25 60 -97 60z" />
    <glyph glyph-name="uniF7FF" unicode="&#xf7ff;" horiz-adv-x="611" 
d="M621 560l-242 -361v-199h-150v199l-239 361h182l135 -203l135 203h179zM123 700c0 41 37 70 78 70c38 0 79 -29 79 -70c0 -45 -41 -72 -79 -72c-41 0 -78 27 -78 72zM327 700c0 41 38 70 81 70c41 0 79 -29 79 -70c0 -45 -36 -72 -79 -72s-81 27 -81 72z" />
    <glyph glyph-name="uniFE56" unicode="&#xfe56;" horiz-adv-x="436" 
d="M256 393c0 19 -12 27 -42 27c-26 0 -60 -10 -87 -65l-122 58c42 120 132 153 212 153c124 0 194 -62 194 -150c0 -95 -54 -138 -103 -170c-18 -12 -43 -25 -43 -51c0 -21 3 -27 4 -35l-137 -2c-4 9 -9 31 -9 40c-1 72 44 104 91 136c25 17 42 33 42 59zM115 70
c0 34 32 70 82 70c45 0 79 -36 79 -70c0 -37 -34 -72 -79 -72c-50 0 -82 35 -82 72z" />
    <glyph glyph-name="uniFE57" unicode="&#xfe57;" horiz-adv-x="263" 
d="M59 159v401h146v-401h-146zM51 70c0 34 32 70 82 70c44 0 79 -36 79 -70c0 -37 -35 -72 -79 -72c-50 0 -82 35 -82 72z" />
    <glyph glyph-name="uniFEFF" unicode="&#xfeff;" horiz-adv-x="0" 
 />
    <glyph glyph-name="nbspace" horiz-adv-x="236" 
 />
    <glyph glyph-name="caron.l" horiz-adv-x="222" 
d="M48 701h154c10 -16 14 -44 14 -70c0 -82 -64 -149 -123 -185l-63 55c35 35 44 79 44 106c0 38 -11 74 -26 94z" />
    <glyph glyph-name="caron.lsmall" horiz-adv-x="222" 
d="M48 560h154c10 -16 14 -44 14 -70c0 -82 -64 -149 -123 -185l-63 55c35 35 44 79 44 106c0 38 -11 74 -26 94z" />
    <glyph glyph-name="afii10024.ss01" horiz-adv-x="953" 
d="M554 276v-276h-155v276h-64l-164 -276h-176l214 360l-205 340h180l161 -279h54v279h155v-279h54l161 279h180l-205 -340l214 -360h-176l-164 276h-64z" />
    <glyph glyph-name="a.ss02" horiz-adv-x="591" 
d="M401 0v41c-18 -20 -63 -49 -131 -49c-142 0 -245 93 -245 267c0 161 112 272 250 272c73 0 106 -17 126 -34v23h145v-520h-145zM301 127c38 0 83 24 100 61v159c-15 27 -47 49 -95 49c-74 0 -131 -47 -131 -135c0 -84 53 -134 126 -134z" />
    <glyph glyph-name="uniF35A.ss01" horiz-adv-x="612" 
d="M53 0v560h150v-209h49l167 209h191l-224 -266l236 -294h-193l-164 211h-62v-211h-150z" />
    <glyph glyph-name="aacute.ss02" horiz-adv-x="591" 
d="M401 0v41c-18 -20 -63 -49 -131 -49c-142 0 -245 93 -245 267c0 161 112 272 250 272c73 0 106 -17 126 -34v23h145v-520h-145zM301 127c38 0 83 24 100 61v159c-15 27 -47 49 -95 49c-74 0 -131 -47 -131 -135c0 -84 53 -134 126 -134zM477 751l-132 -164l-100 70
l123 176z" />
    <glyph glyph-name="afii10028.ss01" horiz-adv-x="701" 
d="M65 0v700h155v-279h49l229 279h193l-281 -336l301 -364h-204l-228 276h-59v-276h-155z" />
    <glyph glyph-name="uniF356.ss01" horiz-adv-x="844" 
d="M497 211v-211h-150v211h-47l-131 -211h-168l180 287l-184 273h176l136 -209h38v209h150v-209h34l140 209h176l-189 -271l185 -289h-168l-135 211h-43z" />
    <glyph glyph-name="acircumflex.ss02" horiz-adv-x="591" 
d="M401 0v41c-18 -20 -63 -49 -131 -49c-142 0 -245 93 -245 267c0 161 112 272 250 272c73 0 106 -17 126 -34v23h145v-520h-145zM301 127c38 0 83 24 100 61v159c-15 27 -47 49 -95 49c-74 0 -131 -47 -131 -135c0 -84 53 -134 126 -134zM330 796l165 -136l-70 -88l-98 81
l-100 -79l-67 87l166 135h4z" />
    <glyph glyph-name="aogonek.ss02" 
d="M401 0v41c-22 -15 -63 -49 -131 -49c-142 0 -245 93 -245 267c0 161 112 272 250 272c73 0 106 -17 126 -34v23h145v-520c-50 -5 -84 -32 -84 -54c0 -18 13 -26 30 -26s23 2 40 10l45 -90c-17 -21 -67 -40 -120 -40c-78 0 -145 29 -145 95c0 51 52 89 89 105zM301 127
c38 0 83 24 100 61v159c-15 27 -47 49 -95 49c-74 0 -131 -47 -131 -135c0 -84 53 -134 126 -134z" />
    <glyph glyph-name="adieresis.ss02" horiz-adv-x="591" 
d="M401 0v41c-18 -20 -63 -49 -131 -49c-142 0 -245 93 -245 267c0 161 112 272 250 272c73 0 106 -17 126 -34v23h145v-520h-145zM301 127c38 0 83 24 100 61v159c-15 27 -47 49 -95 49c-74 0 -131 -47 -131 -135c0 -84 53 -134 126 -134zM131 660c0 41 37 70 78 70
c38 0 79 -29 79 -70c0 -45 -41 -72 -79 -72c-41 0 -78 27 -78 72zM335 660c0 41 38 70 81 70c41 0 79 -29 79 -70c0 -45 -36 -72 -79 -72s-81 27 -81 72z" />
    <glyph glyph-name="aring.ss02" horiz-adv-x="591" 
d="M401 0v41c-18 -20 -63 -49 -131 -49c-142 0 -245 93 -245 267c0 161 112 272 250 272c73 0 106 -17 126 -34v23h145v-520h-145zM301 127c38 0 83 24 100 61v159c-15 27 -47 49 -95 49c-74 0 -131 -47 -131 -135c0 -84 53 -134 126 -134zM177 701c0 71 57 129 137 129
c81 0 139 -58 139 -129c0 -70 -58 -127 -139 -127c-80 0 -137 57 -137 127zM272 703c0 -27 17 -44 44 -44c26 0 42 17 42 44c0 26 -16 42 -42 42c-27 0 -44 -16 -44 -42z" />
    <glyph glyph-name="atilde.ss02" horiz-adv-x="591" 
d="M401 0v41c-18 -20 -63 -49 -131 -49c-142 0 -245 93 -245 267c0 161 112 272 250 272c73 0 106 -17 126 -34v23h145v-520h-145zM301 127c38 0 83 24 100 61v159c-15 27 -47 49 -95 49c-74 0 -131 -47 -131 -135c0 -84 53 -134 126 -134zM207 599l-60 67
c38 54 88 78 132 78c47 0 77 -39 118 -39c33 0 47 10 66 27l49 -75c-36 -43 -83 -72 -127 -72s-74 39 -119 39c-20 0 -44 -13 -59 -25z" />
    <glyph glyph-name="kcommaaccent.ss01" horiz-adv-x="532" 
d="M45 0v730h145v-389h18l146 179h186l-203 -237l210 -283h-184l-147 206h-26v-206h-145zM177 -109l121 78c30 -22 52 -54 52 -94c0 -87 -58 -144 -104 -171l-69 50c21 22 32 48 32 75c0 25 -16 44 -32 62z" />
    <glyph glyph-name="afii10072.ss01" horiz-adv-x="785" 
d="M465 185v-185h-145v185h-32l-119 -185h-178l181 261l-182 259h176l130 -200h24v200h145v-200h22l132 200h176l-180 -256l179 -264h-178l-121 185h-30z" />
    <glyph glyph-name="K.ss01" horiz-adv-x="701" 
d="M65 0v700h155v-279h49l229 279h193l-281 -336l301 -364h-204l-228 276h-59v-276h-155z" />
    <glyph glyph-name="afii10065.var.accented.ss02" horiz-adv-x="591" 
d="M401 0v41c-18 -20 -63 -49 -131 -49c-142 0 -245 93 -245 267c0 161 112 272 250 272c73 0 106 -17 126 -34v23h145v-520h-145zM301 127c38 0 83 24 100 61v159c-15 27 -47 49 -95 49c-74 0 -131 -47 -131 -135c0 -84 53 -134 126 -134zM477 751l-132 -164l-100 70
l123 176z" />
    <glyph glyph-name="Kcommaaccent.ss01" horiz-adv-x="701" 
d="M65 0v700h155v-279h49l229 279h193l-281 -336l301 -364h-204l-228 276h-59v-276h-155zM247 -109l121 78c30 -22 52 -54 52 -94c0 -87 -58 -144 -104 -171l-69 50c21 22 32 48 32 75c0 25 -16 44 -32 62z" />
    <glyph glyph-name="uniF689.ss01" horiz-adv-x="612" 
d="M53 0v560h150v-209h49l167 209h191l-224 -266l236 -294h-193l-164 211h-62v-211h-150zM209 -109l121 78c30 -22 52 -54 52 -94c0 -87 -58 -144 -104 -171l-69 50c21 22 32 48 32 75c0 25 -16 44 -32 62z" />
    <glyph glyph-name="uniF76B.ss01" horiz-adv-x="612" 
d="M53 0v560h150v-209h49l167 209h191l-224 -266l236 -294h-193l-164 211h-62v-211h-150z" />
    <glyph glyph-name="afii10065.ss02" horiz-adv-x="591" 
d="M401 0v41c-18 -20 -63 -49 -131 -49c-142 0 -245 93 -245 267c0 161 112 272 250 272c73 0 106 -17 126 -34v23h145v-520h-145zM301 127c38 0 83 24 100 61v159c-15 27 -47 49 -95 49c-74 0 -131 -47 -131 -135c0 -84 53 -134 126 -134z" />
    <glyph glyph-name="afii10076.ss01" horiz-adv-x="557" 
d="M45 0v520h145v-200h30l166 200h176l-217 -251l222 -269h-184l-151 185h-42v-185h-145z" />
    <glyph glyph-name="afii10109.ss01" horiz-adv-x="557" 
d="M45 0v520h145v-200h30l166 200h176l-217 -251l222 -269h-184l-151 185h-42v-185h-145zM451 751l-132 -164l-100 70l123 176z" />
    <glyph glyph-name="afii10061.ss01" horiz-adv-x="701" 
d="M65 0v700h155v-279h49l229 279h193l-281 -336l301 -364h-204l-228 276h-59v-276h-155zM547 846l-240 -113l-57 99l228 142z" />
    <glyph glyph-name="uniF37C.ss01" horiz-adv-x="612" 
d="M53 0v560h150v-209h49l167 209h191l-224 -266l236 -294h-193l-164 211h-62v-211h-150zM458 771l-132 -164l-100 70l123 176z" />
    <glyph glyph-name="agrave.ss02" horiz-adv-x="591" 
d="M401 0v41c-18 -20 -63 -49 -131 -49c-142 0 -245 93 -245 267c0 161 112 272 250 272c73 0 106 -17 126 -34v23h145v-520h-145zM301 127c38 0 83 24 100 61v159c-15 27 -47 49 -95 49c-74 0 -131 -47 -131 -135c0 -84 53 -134 126 -134zM318 587l-147 160l114 86
l119 -177z" />
    <glyph glyph-name="amacron.ss02" horiz-adv-x="591" 
d="M401 0v41c-18 -20 -63 -49 -131 -49c-142 0 -245 93 -245 267c0 161 112 272 250 272c73 0 106 -17 126 -34v23h145v-520h-145zM301 127c38 0 83 24 100 61v159c-15 27 -47 49 -95 49c-74 0 -131 -47 -131 -135c0 -84 53 -134 126 -134zM168 610v120h294v-120h-294z" />
    <glyph glyph-name="k.ss01" horiz-adv-x="532" 
d="M45 0v730h145v-389h18l146 179h186l-203 -237l210 -283h-184l-147 206h-26v-206h-145z" />
    <glyph glyph-name="abreve.ss02" horiz-adv-x="591" 
d="M401 0v41c-18 -20 -63 -49 -131 -49c-142 0 -245 93 -245 267c0 161 112 272 250 272c73 0 106 -17 126 -34v23h145v-520h-145zM301 127c38 0 83 24 100 61v159c-15 27 -47 49 -95 49c-74 0 -131 -47 -131 -135c0 -84 53 -134 126 -134zM163 707l66 75
c21 -23 52 -52 105 -52c49 0 90 26 110 50l51 -72c-28 -42 -73 -98 -167 -98c-92 0 -146 64 -165 97z" />
    </font>
</defs>
</svg>
